<svg xmlns="http://www.w3.org/2000/svg" width="2256" height="960" viewBox="0 0 2256 960" role="img" aria-labelledby="title desc">
  <title id="title">AGT governance gate for .NET MCP tool calls</title>
  <desc id="desc">A manga-style technical cover showing risky MCP calls being scanned by a governance layer and emitted as audited tool calls.</desc>
  <defs>
    <pattern id="dots" width="18" height="18" patternUnits="userSpaceOnUse">
      <circle cx="4" cy="4" r="1.8" fill="#1c2430" opacity="0.16" />
    </pattern>
    <linearGradient id="gate" x1="0" x2="1" y1="0" y2="1">
      <stop offset="0" stop-color="#dff7f4" />
      <stop offset="1" stop-color="#2fb6ad" />
    </linearGradient>
    <filter id="shadow" x="-20%" y="-20%" width="140%" height="140%">
      <feDropShadow dx="0" dy="22" stdDeviation="18" flood-color="#10151d" flood-opacity="0.22" />
    </filter>
  </defs>
  <rect width="2256" height="960" fill="#f6f1e6" />
  <rect width="2256" height="960" fill="url(#dots)" opacity="0.45" />
  <g stroke="#19202a" stroke-width="8" stroke-linecap="round" stroke-linejoin="round" fill="none" opacity="0.16">
    <path d="M66 214 C260 156 450 168 642 118" />
    <path d="M88 738 C274 652 484 660 670 592" />
    <path d="M1586 130 C1772 218 1950 220 2150 304" />
    <path d="M1552 780 C1786 712 1968 746 2196 660" />
  </g>
  <g transform="translate(168 236)" filter="url(#shadow)">
    <path d="M0 82 L330 0 L534 132 L196 226 Z" fill="#ffffff" />
    <path d="M0 82 L196 226 L196 462 L0 318 Z" fill="#f3d8d4" />
    <path d="M196 226 L534 132 L534 368 L196 462 Z" fill="#f8efea" />
    <path d="M0 82 L330 0 L534 132 L196 226 Z M0 82 L196 226 L196 462 L0 318 Z M196 226 L534 132 L534 368 L196 462 Z" fill="none" />
    <path d="M94 130 L286 76 L430 154 L230 214 Z" fill="#2b303b" />
    <path d="M94 130 L230 214 L230 304 L94 218 Z" fill="#e55449" />
    <path d="M230 214 L430 154 L430 244 L230 304 Z" fill="#fff8f0" />
    <path d="M94 130 L286 76 L430 154 L230 214 Z M94 130 L230 214 L230 304 L94 218 Z M230 214 L430 154 L430 244 L230 304 Z" fill="none" />
    <text x="118" y="178" font-family="Arial, 'Microsoft YaHei', sans-serif" font-size="54" font-weight="800" fill="#fff8f0" transform="skewY(8)">风险85</text>
    <path d="M30 22 L-34 -42 M92 6 L50 -78 M458 58 L554 26 M488 118 L604 132" stroke="#e55449" stroke-width="12" />
  </g>
  <g transform="translate(802 130)" filter="url(#shadow)">
    <path d="M350 0 L700 190 L350 380 L0 190 Z" fill="#e7fffb" />
    <path d="M0 190 L350 380 L350 740 L0 550 Z" fill="#58c8bd" />
    <path d="M350 380 L700 190 L700 550 L350 740 Z" fill="#9ce7de" />
    <path d="M350 0 L700 190 L350 380 L0 190 Z M0 190 L350 380 L350 740 L0 550 Z M350 380 L700 190 L700 550 L350 740 Z" fill="none" />
    <path d="M212 210 L350 134 L488 210 L350 286 Z" fill="#fff8ee" />
    <path d="M212 210 L350 286 L350 456 L212 380 Z" fill="#1f6f72" />
    <path d="M350 286 L488 210 L488 380 L350 456 Z" fill="#2ea6a2" />
    <path d="M212 210 L350 134 L488 210 L350 286 Z M212 210 L350 286 L350 456 L212 380 Z M350 286 L488 210 L488 380 L350 456 Z" fill="none" />
    <text x="260" y="258" font-family="Arial, 'Microsoft YaHei', sans-serif" font-size="64" font-weight="900" fill="#121922">治理层</text>
    <circle cx="156" cy="454" r="34" fill="#f6f1e6" />
    <circle cx="350" cy="552" r="34" fill="#f6f1e6" />
    <circle cx="546" cy="454" r="34" fill="#f6f1e6" />
    <path d="M190 454 L316 532 M384 532 L512 454" stroke="#f6f1e6" stroke-width="14" />
    <path d="M84 326 L620 326 M84 616 L620 326 M84 470 L620 470" stroke="#19202a" stroke-width="5" opacity="0.18" />
  </g>
  <g transform="translate(1546 254)" filter="url(#shadow)">
    <path d="M0 118 L318 0 L548 122 L222 250 Z" fill="#ffffff" />
    <path d="M0 118 L222 250 L222 454 L0 326 Z" fill="#d7f1ec" />
    <path d="M222 250 L548 122 L548 330 L222 454 Z" fill="#f8fffb" />
    <path d="M0 118 L318 0 L548 122 L222 250 Z M0 118 L222 250 L222 454 L0 326 Z M222 250 L548 122 L548 330 L222 454 Z" fill="none" />
    <path d="M156 144 L310 86 L430 148 L272 214 Z" fill="#fff8ee" />
    <path d="M156 144 L272 214 L272 300 L156 230 Z" fill="#2fb6ad" />
    <path d="M272 214 L430 148 L430 236 L272 300 Z" fill="#f6f1e6" />
    <path d="M156 144 L310 86 L430 148 L272 214 Z M156 144 L272 214 L272 300 L156 230 Z M272 214 L430 148 L430 236 L272 300 Z" fill="none" />
    <text x="258" y="198" font-family="Arial, 'Microsoft YaHei', sans-serif" font-size="58" font-weight="900" fill="#121922">审计</text>
    <path d="M432 82 C516 70 566 106 596 174 M454 226 C540 226 588 270 606 340" stroke="#2fb6ad" stroke-width="13" />
    <path d="M100 406 C168 486 308 512 426 430" stroke="#19202a" stroke-width="7" opacity="0.35" />
  </g>
  <g stroke="#19202a" stroke-width="10" stroke-linecap="round" fill="none">
    <path d="M690 480 C758 478 790 478 840 482" />
    <path d="M760 434 L840 482 L756 528" />
    <path d="M1490 480 C1540 478 1572 478 1628 482" />
    <path d="M1550 434 L1628 482 L1546 530" />
  </g>
  <g stroke="#e55449" stroke-width="6" stroke-linecap="round" opacity="0.38">
    <path d="M84 112 L266 88 M94 158 L384 104 M1850 870 L2140 820 M1922 908 L2196 860" />
  </g>
</svg>
