<svg xmlns="http://www.w3.org/2000/svg" xmlns:xlink="http://www.w3.org/1999/xlink" viewBox="0 0 560 420"><defs><style>.cls-1,.cls-5{isolation:isolate;}.cls-13,.cls-17,.cls-2{fill:#cfd8f8;}.cls-12,.cls-13,.cls-15,.cls-19,.cls-2,.cls-3,.cls-5,.cls-6,.cls-7,.cls-8{stroke:#3a3836;}.cls-2,.cls-3,.cls-6,.cls-7{stroke-miterlimit:10;}.cls-12,.cls-13,.cls-15,.cls-16,.cls-19,.cls-2,.cls-3,.cls-5,.cls-6,.cls-7,.cls-8{stroke-width:2px;}.cls-15,.cls-3,.cls-9{fill:#fff;}.cls-4{fill:#2a2a2a;mix-blend-mode:multiply;opacity:0.2;}.cls-12,.cls-13,.cls-15,.cls-16,.cls-19,.cls-5,.cls-8{stroke-linecap:round;stroke-linejoin:round;}.cls-5{fill:url(#linear-gradient);}.cls-12,.cls-16,.cls-6{fill:none;}.cls-7{fill:#e3e3e3;}.cls-11,.cls-8{fill:#fde17d;}.cls-10{fill:#3a3836;}.cls-14{fill:#a0e9c0;}.cls-16{stroke:#313131;}.cls-18{fill:#fb8553;}.cls-19{fill:#ced7f8;}</style><linearGradient id="linear-gradient" x1="171.7057" y1="274.1169" x2="374.4109" y2="274.1169" gradientUnits="userSpaceOnUse"><stop offset="0" stop-color="#fd6d37"/><stop offset="0.5233" stop-color="#f98f3a"/><stop offset="1" stop-color="#f6aa3c"/></linearGradient></defs><g class="cls-1"><g id="Layer_1" data-name="Layer 1"><rect class="cls-2" x="444.804" y="289.0546" width="95.6201" height="39.9813"/><polyline class="cls-3" points="480.404 328.104 480.404 307.995 488.051 307.995 488.051 328.104"/><polyline class="cls-3" points="495.089 328.104 495.089 307.995 502.736 307.995 502.736 328.104"/><polyline class="cls-3" points="509.033 328.104 509.033 307.995 516.68 307.995 516.68 328.104"/><polyline class="cls-3" points="523.718 328.104 523.718 307.995 531.365 307.995 531.365 328.104"/><circle class="cls-3" cx="459.5904" cy="309.1256" r="7.1109"/><path class="cls-4" d="M457.7934,315.226s5.589-3.1233,6.1186-11.5631c0,0,7.951,5.5343-2.4448,12.998A4.96,4.96,0,0,1,457.7934,315.226Z"/><polygon class="cls-5" points="374.411 332.633 374.411 215.601 273.058 157.085 171.706 215.601 171.706 332.633 273.058 391.149 374.411 332.633"/><polyline class="cls-6" points="273.058 156.25 273.058 128.371 192.586 128.371 192.586 102.057"/><line class="cls-3" x1="205.9612" y1="81.1292" x2="234.8852" y2="100.576"/><rect class="cls-7" x="226.5397" y="86.7878" width="9.2836" height="22.596" rx="4.6317" transform="matrix(0.558, -0.8299, 0.8299, 0.558, 20.794, 235.2092)"/><circle class="cls-3" cx="191.1213" cy="74.2687" r="28.1685"/><polygon class="cls-8" points="193.239 60.502 178.414 77.446 191.121 77.446 189.003 88.035 203.829 71.092 191.121 71.092 193.239 60.502"/><polyline class="cls-6" points="375.05 332.101 411.091 332.101 411.091 309.045 444.172 309.045"/><path class="cls-7" d="M48.2022,324.5923A23.8887,23.8887,0,0,1,27.695,312.973a3.2056,3.2056,0,1,1,5.4976-3.2983A17.5162,17.5162,0,0,0,54.2734,317.1a3.2056,3.2056,0,0,1,2.226,6.0123A23.8194,23.8194,0,0,1,48.2022,324.5923Z"/><path class="cls-9" d="M63.3923,347.8017a1.9744,1.9744,0,0,1-1.9444-1.52l-15.2754-61.71,7.0723-3.8467L67.4089,339.46l-2.1016,6.9209a1.9892,1.9892,0,0,1-1.915,1.4209Z"/><path class="cls-10" d="M52.5773,282.2254l13.7954,57.204L64.35,346.0912a1.0022,1.0022,0,0,1-1.9317-.05l-15.0893-60.96,5.248-2.8556m1.3335-3.0023-2.29,1.2456-5.2481,2.8555-1.3564.7381.3711,1.4993,15.0893,60.96a3.0021,3.0021,0,0,0,5.7866.1513l2.0225-6.6623.1582-.5207-.1274-.5291L54.5217,281.7566l-.6109-2.5335Z"/><path class="cls-9" d="M31.2458,347.8017a1.9885,1.9885,0,0,1-1.9141-1.4209L27.2292,339.46l14.165-58.7353,7.0713,3.8467L33.19,346.2812A1.9743,1.9743,0,0,1,31.2458,347.8017Z"/><path class="cls-10" d="M42.0612,282.2254l5.2481,2.8556L32.22,346.0407a1.0021,1.0021,0,0,1-1.9316.05l-2.023-6.6618,13.7959-57.204m-1.3335-3.0023-.6108,2.5335L26.321,338.9605l-.1275.5292.1582.5209,2.023,6.6617a3.0021,3.0021,0,0,0,5.7866-.1508l15.0894-60.96.3711-1.4993-1.3565-.7381-5.248-2.8555-2.29-1.2456Z"/><rect class="cls-9" x="44.2106" y="261.5566" width="6.3408" height="20.7012"/><path class="cls-10" d="M49.5514,262.557v18.7008H45.21V262.557h4.3413m2-2H43.21v22.7008h8.3413V260.557Z"/><rect class="cls-11" x="41.9928" y="240.9472" width="10.7764" height="20.7012"/><path class="cls-10" d="M51.7687,241.9474v18.7008H42.9928V241.9474h8.7759m2-2H40.9928v22.7008H53.7687V239.9474Z"/><circle class="cls-7" cx="47.3393" cy="279.3382" r="9.542"/><path class="cls-9" d="M47.34,283.3476a4.0093,4.0093,0,1,1,4.0088-4.01A4.0143,4.0143,0,0,1,47.34,283.3476Z"/><path class="cls-10" d="M47.34,276.3291a3.0092,3.0092,0,1,1-3.0092,3.0091,3.0091,3.0091,0,0,1,3.0092-3.0091m0-2a5.0092,5.0092,0,1,0,5.0088,5.0091,5.0147,5.0147,0,0,0-5.0088-5.0091Z"/><polyline class="cls-12" points="171.632 332.11 123.479 332.11 123.479 280.426 57.92 280.821"/><circle class="cls-2" cx="55.46" cy="130.265" r="36.9517"/><circle class="cls-3" cx="55.46" cy="130.265" r="28.2225"/><polygon class="cls-13" points="67.007 114.057 64.5 124.188 61.994 134.32 55.589 129.62 49.183 124.921 58.095 119.489 67.007 114.057"/><polygon class="cls-12" points="44.17 145.184 53.082 139.752 61.994 134.32 55.589 129.62 49.183 124.921 46.677 135.052 44.17 145.184"/><line class="cls-3" x1="55.46" y1="102.0425" x2="55.46" y2="110.3244"/><line class="cls-3" x1="83.6825" y1="130.265" x2="75.4007" y2="130.265"/><line class="cls-3" x1="55.717" y1="158.4874" x2="55.717" y2="150.2056"/><line class="cls-3" x1="27.2376" y1="129.7487" x2="35.5194" y2="129.7487"/><rect class="cls-3" x="49.3446" y="86.0282" width="12.7448" height="7.1485" rx="3.5743"/><polyline class="cls-6" points="171.359 215.964 120.549 215.964 120.549 135.134 92.412 135.134"/><path class="cls-14" d="M376.7928,399.25h0a9.6394,9.6394,0,0,0-9.6395-9.6395h-1.0912s.5384-12.4827-10.0783-13.6c0,0,1.0338-10.3993-11.0766-11.5834V363.24a3.9827,3.9827,0,0,0-3.9827-3.9827h-9.978V399.25"/><polyline class="cls-15" points="257.97 273.214 257.97 215.482 340.096 215.482 340.096 399.738 282.093 399.738"/><polygon class="cls-15" points="202.15 399.738 202.15 261.501 281.473 279.999 281.473 399.738 202.15 399.738"/><path class="cls-14" d="M214.7636,399.6279c-.0092-4.49-3.5565-8.7732-7.9894-8.9349.0032-.1155.0189-.2306.0189-.3493a10.2646,10.2646,0,0,0-19.644-4.2092,10.2375,10.2375,0,0,0-16.0686,5.3343,8.3063,8.3063,0,0,0-6.2156,8.0422"/><line class="cls-12" x1="150.1668" y1="399.7384" x2="220.5737" y2="399.7384"/><line class="cls-12" x1="340.0964" y1="399.7384" x2="417.4893" y2="399.7384"/><line class="cls-12" x1="325.0702" y1="235.0805" x2="297.3288" y2="235.0805"/><line class="cls-12" x1="284.2705" y1="235.0805" x2="272.9955" y2="235.0805"/><line class="cls-12" x1="325.0702" y1="255.961" x2="297.3288" y2="255.961"/><line class="cls-12" x1="284.2705" y1="255.961" x2="272.9955" y2="255.961"/><line class="cls-12" x1="325.0702" y1="276.8418" x2="297.3288" y2="276.8418"/><line class="cls-12" x1="325.0702" y1="297.722" x2="297.3288" y2="297.722"/><line class="cls-12" x1="325.0702" y1="318.6028" x2="297.3288" y2="318.6028"/><line class="cls-12" x1="325.0702" y1="339.4833" x2="297.3288" y2="339.4833"/><line class="cls-12" x1="325.0702" y1="360.3639" x2="297.3288" y2="360.3639"/><line class="cls-12" x1="325.0702" y1="381.2444" x2="297.3288" y2="381.2444"/><line class="cls-12" x1="231.3567" y1="287.7213" x2="220.0819" y2="287.7213"/><line class="cls-12" x1="231.3567" y1="307.3881" x2="220.0819" y2="307.3881"/><line class="cls-12" x1="231.3567" y1="327.0552" x2="220.0819" y2="327.0552"/><line class="cls-12" x1="231.3567" y1="346.7223" x2="220.0819" y2="346.7223"/><line class="cls-12" x1="231.3567" y1="366.3894" x2="220.0819" y2="366.3894"/><line class="cls-12" x1="231.3567" y1="386.0565" x2="220.0819" y2="386.0565"/><line class="cls-12" x1="263.6203" y1="287.7213" x2="252.3449" y2="287.7213"/><line class="cls-12" x1="263.6203" y1="307.3881" x2="252.3449" y2="307.3881"/><line class="cls-12" x1="263.6203" y1="327.0552" x2="252.3449" y2="327.0552"/><line class="cls-12" x1="263.6203" y1="346.7223" x2="252.3449" y2="346.7223"/><line class="cls-12" x1="263.6203" y1="366.3894" x2="252.3449" y2="366.3894"/><line class="cls-12" x1="263.6203" y1="386.0565" x2="252.3449" y2="386.0565"/><line class="cls-16" x1="425.807" y1="399.7384" x2="444.1717" y2="399.7384"/><rect class="cls-17" x="414.9986" y="70.9451" width="75.8328" height="65.2875"/><rect class="cls-6" x="414.9986" y="70.9451" width="75.8328" height="65.2875"/><rect class="cls-3" x="421.7845" y="129.2273" width="63.8586" height="0.022"/><polygon class="cls-3" points="437.749 129.238 427.106 129.238 427.106 115.783 423.115 115.783 432.428 104.57 441.74 115.783 437.749 115.783 437.749 129.238"/><polygon class="cls-3" points="459.035 129.238 448.392 129.238 448.392 102.327 444.401 102.327 453.714 91.114 463.027 102.327 459.035 102.327 459.035 129.238"/><polygon class="cls-3" points="480.322 129.238 469.678 129.238 469.678 88.871 465.687 88.871 475 77.658 484.313 88.871 480.322 88.871 480.322 129.238"/><polyline class="cls-6" points="273.058 128.371 363.968 128.371 363.968 102.704 414.424 102.704"/><polygon class="cls-18" points="279.999 133.23 279.999 125.077 272.938 121 265.877 125.077 265.877 133.23 272.938 137.307 279.999 133.23"/><polygon class="cls-18" points="418.032 336.96 418.032 328.806 410.97 324.729 403.909 328.806 403.909 336.96 410.97 341.037 418.032 336.96"/><polygon class="cls-18" points="130.385 284.503 130.385 276.35 123.324 272.273 116.263 276.35 116.263 284.503 123.324 288.58 130.385 284.503"/><polygon class="cls-18" points="127.555 139.211 127.555 131.057 120.494 126.98 113.433 131.057 113.433 139.211 120.494 143.288 127.555 139.211"/><circle class="cls-8" cx="472.2231" cy="199.0923" r="21.0591"/><circle class="cls-3" cx="472.2231" cy="193.1381" r="6.7247"/><path class="cls-3" d="M486.0255,214.5281c4.3354-3.3878-4.3487-14.6653-13.9533-13.9532-7.685.57-13.9532,6.2471-13.9532,13.9532C458.119,214.5281,471.075,226.2109,486.0255,214.5281Z"/><circle class="cls-2" cx="445.3637" cy="213.8822" r="21.0591"/><circle class="cls-3" cx="445.3637" cy="207.928" r="6.7247"/><path class="cls-3" d="M459.1661,229.3181c4.3354-3.3879-4.3487-14.6654-13.9532-13.9533-7.6851.57-13.9533,6.2471-13.9533,13.9533C431.26,229.3181,444.2156,241.0008,459.1661,229.3181Z"/><line class="cls-19" x1="374.7928" y1="215.4817" x2="423.0262" y2="215.4817"/><polygon class="cls-9" points="357.412 36.424 350.511 34.177 357.412 31.931 359.658 25.03 361.905 31.931 368.805 34.177 361.905 36.424 359.658 43.322 357.412 36.424"/><path class="cls-10" d="M359.6584,28.26l1.4541,4.4631,4.4629,1.4537-4.4629,1.4545-1.4541,4.4625-1.4541-4.4625-4.4629-1.4545,4.4629-1.4537,1.4541-4.4631m0-6.4563-1.9019,5.8368-1.1387,3.4959-3.496,1.1388-5.8365,1.9012,5.8365,1.9021,3.496,1.1392,1.1392,3.4958,1.9014,5.8358,1.9013-5.8358,1.1392-3.4958,3.4961-1.1392,5.8364-1.9021-5.8364-1.9012-3.4961-1.1388L361.56,27.6405l-1.9018-5.8368Z"/><polygon class="cls-9" points="539.177 171.379 532.279 169.132 539.177 166.886 541.424 159.986 543.672 166.886 550.57 169.132 543.672 171.379 541.424 178.276 539.177 171.379"/><path class="cls-10" d="M541.424,163.2151l1.4541,4.4631,4.4629,1.4538-4.4629,1.4544-1.4541,4.4625-1.4541-4.4625-4.4629-1.4544,4.4629-1.4538,1.4541-4.4631m0-6.4563-1.9019,5.8367-1.1386,3.4961-3.4961,1.1388-5.8364,1.9013,5.8364,1.902,3.4961,1.1392,1.1391,3.4956,1.9014,5.8359,1.9014-5.8359,1.1391-3.4956,3.4961-1.1392,5.8364-1.902-5.8364-1.9013-3.4961-1.1388-1.1386-3.4961-1.9019-5.8367Z"/><polygon class="cls-3" points="21.697 26.368 29.044 29.638 21.528 32.575 18.221 39.937 15.32 32.437 7.973 29.167 15.489 26.229 18.795 18.868 21.697 26.368"/><polygon class="cls-10" points="85.869 213.447 89.542 215.082 85.784 216.551 84.131 220.231 82.68 216.481 79.006 214.846 82.764 213.378 84.418 209.697 85.869 213.447"/><polygon class="cls-10" points="449.977 33.152 453.65 34.787 449.892 36.256 448.239 39.937 446.788 36.187 443.115 34.552 446.873 33.083 448.526 29.402 449.977 33.152"/><polygon class="cls-10" points="102.559 38.577 106.232 40.211 102.474 41.68 100.821 45.361 99.37 41.611 95.697 39.976 99.455 38.507 101.108 34.827 102.559 38.577"/><polygon class="cls-10" points="537.751 238.83 541.424 240.465 537.666 241.934 536.013 245.615 534.562 241.865 530.889 240.23 534.647 238.761 536.3 235.08 537.751 238.83"/></g></g></svg>