<?xml version="1.0" encoding="utf-8"?>
<!-- Generator: Adobe Illustrator 26.2.1, SVG Export Plug-In . SVG Version: 6.00 Build 0)  -->
<svg version="1.1" id="Layer_1" xmlns="http://www.w3.org/2000/svg" xmlns:xlink="http://www.w3.org/1999/xlink" x="0px" y="0px"
	 viewBox="0 0 560 420" style="enable-background:new 0 0 560 420;" xml:space="preserve">
<style type="text/css">
	.st0{fill:#A2ECC2;}
	.st1{fill:#3A3836;}
	.st2{fill:#E6E6E6;stroke:#3A3836;stroke-width:2;stroke-miterlimit:10;}
	.st3{fill:#FFFFFF;stroke:#3A3836;stroke-width:2;stroke-linecap:round;stroke-linejoin:round;}
	.st4{fill:#D1DAFA;stroke:#3A3836;stroke-width:1.74;stroke-linecap:round;stroke-linejoin:round;}
	.st5{fill:#D1DAFA;}
	.st6{fill:none;stroke:#FD8753;stroke-width:2;stroke-miterlimit:10;}
	.st7{fill:#FFFFFF;}
	.st8{fill:#E4E4E4;}
	.st9{fill:none;stroke:#3A3836;stroke-width:2;stroke-linecap:round;stroke-linejoin:round;}
	.st10{fill:#FFFFFF;stroke:#3A3836;stroke-width:2;stroke-miterlimit:10;}
	.st11{opacity:0.7;}
	.st12{opacity:0.7;fill:#FF6C37;enable-background:new    ;}
	.st13{fill:#FF6C1B;stroke:#3A3836;stroke-width:2;stroke-miterlimit:10;}
	.st14{opacity:0.7;fill:url(#SVGID_1_);enable-background:new    ;}
	.st15{opacity:0.7;fill:url(#SVGID_00000054252980007580071190000007883525467303769508_);enable-background:new    ;}
	
		.st16{fill:url(#SVGID_00000149342801365998253520000010201770876989738924_);stroke:#3A3836;stroke-width:2;stroke-linecap:round;stroke-linejoin:round;}
</style>
<g>
	<g id="Layer_1_00000135656601385957406490000001615800240595313537_">
		<path class="st0" d="M111.9,213.6l-50.8,97.6c-0.9,1.7-0.3,3.9,1.5,4.9c0.5,0.3,1.1,0.4,1.7,0.4h92.5c2,0,3.6-1.6,3.6-3.6
			c0-0.5-0.1-1-0.3-1.4l-41.7-97.6c-0.8-1.8-2.9-2.7-4.7-1.9C112.9,212.3,112.3,212.8,111.9,213.6z"/>
		<path class="st0" d="M111.9,165.8l-50.8,97.6c-0.9,1.7-0.3,3.9,1.5,4.9c0.5,0.3,1.1,0.4,1.7,0.4h92.5c2,0,3.6-1.6,3.6-3.6
			c0-0.5-0.1-1-0.3-1.4l-41.7-97.6c-0.8-1.8-2.9-2.7-4.7-1.9C112.9,164.4,112.3,165,111.9,165.8z"/>
		<path class="st0" d="M111.9,254.3l-50.8,97.6c-0.9,1.7-0.3,3.9,1.5,4.9c0.5,0.3,1.1,0.4,1.7,0.4h92.5c2,0,3.6-1.6,3.6-3.6
			c0-0.5-0.1-1-0.3-1.4l-41.7-97.6c-0.8-1.8-2.9-2.7-4.7-1.9C112.9,252.9,112.3,253.5,111.9,254.3z"/>
		<path class="st1" d="M160.8,43.6H379c7.9,0,14.3,6.4,14.3,14.3v264.5c0,7.9-6.4,14.3-14.3,14.3H160.8c-7.9,0-14.3-6.4-14.3-14.3
			V58C146.4,50.1,152.9,43.6,160.8,43.6z"/>
		<path class="st2" d="M154.8,43.6H373c7.9,0,14.3,6.4,14.3,14.3v264.5c0,7.9-6.4,14.3-14.3,14.3H154.8c-7.9,0-14.3-6.4-14.3-14.3
			V58C140.5,50.1,146.9,43.6,154.8,43.6z"/>
		<rect x="153.8" y="56.1" class="st3" width="219.2" height="233.2"/>
		<rect x="207.3" y="104.1" class="st4" width="116.5" height="15.3"/>
		<rect x="207.3" y="163.9" class="st4" width="116.5" height="15.3"/>
		<rect x="207.3" y="223.6" class="st4" width="116.5" height="15.3"/>
		<rect x="221.8" y="131.6" class="st5" width="102" height="7.2"/>
		<rect x="221.8" y="191.4" class="st5" width="102" height="7.2"/>
		<rect x="221.8" y="251.2" class="st5" width="102" height="7.2"/>
		<polyline class="st6" points="171.6,117.7 178.4,122.5 193.4,105.6 		"/>
		<polyline class="st6" points="174,177.4 180.8,182.3 195.8,165.3 		"/>
		<polyline class="st6" points="171.6,237.2 178.4,242.1 193.4,225.1 		"/>
		<polygon class="st7" points="369.4,178.7 384.8,183.3 396.2,202.9 384.6,209 		"/>
		<path class="st8" d="M462.8,412.5H321.9c-8.8,0-15.9-7.1-15.9-15.9v0c0-8.8,7.1-15.9,15.9-15.9h140.9c8.8,0,15.9,7.1,15.9,15.9v0
			C478.7,405.4,471.6,412.5,462.8,412.5z"/>
		<path class="st7" d="M474.9,295h-17.7v24.3c9.8,0,17.7-7.9,17.7-17.7c0,0,0,0,0,0V295z"/>
		<path class="st7" d="M457.1,298.7v88c0,12.8-10.4,23.1-23.1,23.1c-12.8,0-23.1-10.4-23.1-23.1l-2.4-60.1c-0.1-4.8-5.3-4.5-7.9-4.5
			c-1.2,0-2.4,0.5-3.3,1.3c-0.9,0.8-1.4,2-1.5,3.2l-8.7,57.9c-1.8,14.9-10.8,24.5-24.3,24.6c-13.7,0.2-22-13.8-22-27.5l8.6-148.7
			c-37.9-27.2-49.8-52.4-54.9-74.9s18.7-28.7,18.7-28.7c-1.2-31.1,11.5-24.1,11.5-24.1c11.5,81.9,44.6,73.4,44.6,73.4"/>
		<path class="st9" d="M457.1,298.7v88c0,12.8-10.4,23.1-23.1,23.1c-12.8,0-23.1-10.4-23.1-23.1l-2.4-60.1c-0.1-4.8-5.3-4.5-7.9-4.5
			c-1.2,0-2.4,0.5-3.3,1.3c-0.9,0.8-1.4,2-1.5,3.2l-8.7,57.9c-1.8,14.9-10.8,24.5-24.3,24.6c-13.7,0.2-22-13.8-22-27.5l8.6-148.7
			c-37.9-27.2-49.8-52.4-54.9-74.9s18.7-28.7,18.7-28.7c-1.2-31.1,11.5-24.1,11.5-24.1c11.5,81.9,44.6,73.4,44.6,73.4"/>
		<path class="st7" d="M455.1,189.4l2.7-2.2c25.1-22.2,27.4-60.5,5.2-85.5s-60.5-27.4-85.5-5.2s-27.4,60.5-5.2,85.5
			c5.4,6.1,12,11.1,19.4,14.6"/>
		<path class="st9" d="M455.1,189.4l2.7-2.2c25.1-22.2,27.4-60.5,5.2-85.5s-60.5-27.4-85.5-5.2s-27.4,60.5-5.2,85.5
			c5.4,6.1,12,11.1,19.4,14.6"/>
		<path class="st10" d="M402.4,190H476c7.2,0,13,5.8,13,13v81.3c0,7.2-5.8,13-13,13h-73.6c-7.2,0-13-5.8-13-13V203
			C389.4,195.8,395.3,190,402.4,190L402.4,190z"/>
		<g class="st11">
			<path class="st12" d="M456.9,84.1c-4.7,0-8.6-3.8-8.6-8.6c0-4.7,3.8-8.6,8.6-8.6c4.7,0,8.6,3.8,8.6,8.6v0
				C465.5,80.2,461.7,84.1,456.9,84.1z"/>
		</g>
		<path class="st13" d="M456.9,84.1c-4.7,0-8.6-3.8-8.6-8.6c0-4.7,3.8-8.6,8.6-8.6c4.7,0,8.6,3.8,8.6,8.6v0
			C465.5,80.2,461.7,84.1,456.9,84.1z"/>
		<path class="st9" d="M361,160.2c19.4-2.3,32.7-18.7,32.7-38.7c0-11.7-4.2-21.4-12.4-28.5"/>
		<path class="st9" d="M349.6,232.9c0,0,11.1,33,39.7,26.6"/>
		<path class="st9" d="M348.6,256.6c0,0,12.1,25.8,40.7,19.4"/>
		<path class="st9" d="M452.1,82.6l-4,6.6"/>
		<path class="st9" d="M417.2,191.2v23.3c0,4.2,1.7,8.2,4.6,11.1c1.5,1.5,3.2,2.6,5.1,3.4c1.9,0.8,3.9,1.2,6,1.2H488"/>
		<g class="st11">
			
				<linearGradient id="SVGID_1_" gradientUnits="userSpaceOnUse" x1="-942.5716" y1="2483.5933" x2="-933.113" y2="2483.5933" gradientTransform="matrix(-1 0 0 1 -495.48 -2237.27)">
				<stop  offset="0" style="stop-color:#FF7002"/>
				<stop  offset="0.3" style="stop-color:#FC7304"/>
				<stop  offset="0.5" style="stop-color:#FA7C0A"/>
				<stop  offset="0.68" style="stop-color:#F68915"/>
				<stop  offset="0.84" style="stop-color:#F19F25"/>
				<stop  offset="0.98" style="stop-color:#EABB39"/>
				<stop  offset="1" style="stop-color:#E9BE3B"/>
			</linearGradient>
			<path class="st14" d="M442.4,251.1c-2.6,0-4.8-2.1-4.8-4.8s2.1-4.8,4.8-4.8s4.8,2.1,4.8,4.8S445,251.1,442.4,251.1z"/>
		</g>
		<g class="st11">
			
				<linearGradient id="SVGID_00000153674895700612528740000014607910440500880773_" gradientUnits="userSpaceOnUse" x1="-739.5649" y1="2484.5977" x2="-642.5278" y2="2484.5977" gradientTransform="matrix(-1 0 0 1 -495.48 -2237.27)">
				<stop  offset="0" style="stop-color:#FF7002"/>
				<stop  offset="0.3" style="stop-color:#FC7304"/>
				<stop  offset="0.5" style="stop-color:#FA7C0A"/>
				<stop  offset="0.68" style="stop-color:#F68915"/>
				<stop  offset="0.84" style="stop-color:#F19F25"/>
				<stop  offset="0.98" style="stop-color:#EABB39"/>
				<stop  offset="1" style="stop-color:#E9BE3B"/>
			</linearGradient>
			<path style="opacity:0.7;fill:url(#SVGID_00000153674895700612528740000014607910440500880773_);enable-background:new    ;" d="
				M459.4,252.9c-3.1,0-5.5-2.5-5.5-5.5c0-3.1,2.5-5.5,5.5-5.5c3.1,0,5.5,2.5,5.5,5.5c0,0,0,0,0,0
				C464.9,250.4,462.4,252.9,459.4,252.9z"/>
		</g>
		<path class="st13" d="M442.4,252.2c-3.1,0-5.6-2.5-5.6-5.6c0-3.1,2.5-5.6,5.6-5.6c3.1,0,5.6,2.5,5.6,5.6c0,0,0,0,0,0
			C447.9,249.7,445.4,252.2,442.4,252.2z"/>
		<path class="st13" d="M459.2,252.2c-3.1,0-5.6-2.5-5.6-5.6c0-3.1,2.5-5.6,5.6-5.6c3.1,0,5.6,2.5,5.6,5.6
			C464.8,249.7,462.3,252.2,459.2,252.2L459.2,252.2z"/>
		<path class="st9" d="M488.3,241.3h-12.7c-2.4,0-4.4,2.5-4.4,5.8c0,3.3,1.9,5.8,4.4,5.8h12.7"/>
		<path class="st9" d="M488.3,263.3h-69.4c-2.4,0-4.4,2.6-4.4,5.8c0,3.2,1.9,5.8,4.4,5.8h69.4"/>
		<path class="st9" d="M415.2,161.1c-5,0-9.1-4.1-9.1-9.1s4.1-9.1,9.1-9.1c5,0,9.1,4.1,9.1,9.1c0,0,0,0,0,0
			C424.2,157,420.2,161.1,415.2,161.1z"/>
		<path class="st7" d="M476,297.3c0,0-1.3,20.6-18.9,22L476,297.3z"/>
		<path class="st9" d="M476,297.3c0,0-1.3,20.6-18.9,22"/>
		<path class="st8" d="M361.4,179.3c7.9,11.8,21.2,19.3,28.7,17.7c-4.4,0-15.3-10.8-20.8-17.1L361.4,179.3z"/>
		<polyline class="st9" points="339.6,380.9 114.2,380.9 114.2,357.1 		"/>
		<line class="st9" x1="457.1" y1="380.9" x2="505.9" y2="380.9"/>
		<line class="st9" x1="90.9" y1="380.9" x2="54.1" y2="380.9"/>
		<path class="st3" d="M293.1,33.1L293.1,33.1c0-14.2-11.4-25.6-25.5-25.6c-14.1,0-25.5,11.4-25.5,25.5c0,0,0,0,0,0v0.1h-31
			c-6.4,0-11.6,5.2-11.6,11.6v15.7h138.4V44.7c0-6.4-5.2-11.6-11.6-11.6c0,0,0,0,0,0H293.1z"/>
		
			<linearGradient id="SVGID_00000013908921431322255710000010301999266684332970_" gradientUnits="userSpaceOnUse" x1="256.0187" y1="389.5173" x2="279.3842" y2="389.5173" gradientTransform="matrix(1 0 0 -1 0 422)">
			<stop  offset="0" style="stop-color:#FF6D37"/>
			<stop  offset="0.54" style="stop-color:#FA9139"/>
			<stop  offset="1" style="stop-color:#F7AC3B"/>
		</linearGradient>
		
			<circle style="fill:url(#SVGID_00000013908921431322255710000010301999266684332970_);stroke:#3A3836;stroke-width:2;stroke-linecap:round;stroke-linejoin:round;" cx="267.7" cy="32.5" r="11.7"/>
		<line class="st9" x1="102.2" y1="380.9" x2="114.2" y2="380.9"/>
		<path class="st10" d="M441.3,18.1l8.4,2.7l-8.4,2.7l-2.7,8.4l-2.7-8.4l-8.4-2.7l8.4-2.7l2.7-8.4L441.3,18.1z"/>
		<path class="st10" d="M75.3,119.8l8.4,2.7l-8.4,2.7l-2.7,8.4l-2.7-8.4l-8.4-2.7l8.4-2.7l2.7-8.4L75.3,119.8z"/>
	</g>
</g>
</svg>
