<?xml version="1.0" encoding="UTF-8"?>
<svg id="Layer_1" data-name="Layer 1" xmlns="http://www.w3.org/2000/svg" xmlns:xlink="http://www.w3.org/1999/xlink" viewBox="0 0 560 420">
  <defs>
    <style>
      .cls-1, .cls-2, .cls-3, .cls-4, .cls-5, .cls-6 {
        fill: none;
      }

      .cls-7 {
        clip-path: url(#clippath);
      }

      .cls-8, .cls-9, .cls-10, .cls-11 {
        fill: #fff;
      }

      .cls-12 {
        fill: #e4e4e4;
      }

      .cls-13 {
        fill: url(#linear-gradient-2);
      }

      .cls-13, .cls-14, .cls-15, .cls-9, .cls-16, .cls-17, .cls-18, .cls-19, .cls-20, .cls-21, .cls-10, .cls-11, .cls-22, .cls-2, .cls-3, .cls-4, .cls-5 {
        stroke-width: 2px;
      }

      .cls-13, .cls-14, .cls-15, .cls-9, .cls-16, .cls-17, .cls-18, .cls-19, .cls-20, .cls-21, .cls-10, .cls-22, .cls-3, .cls-4 {
        stroke: #3a3836;
      }

      .cls-13, .cls-14, .cls-15, .cls-9, .cls-16, .cls-17, .cls-18, .cls-19, .cls-20, .cls-21, .cls-22, .cls-4, .cls-5, .cls-6 {
        stroke-miterlimit: 10;
      }

      .cls-14 {
        fill: #ffd1be;
      }

      .cls-15 {
        fill: #f2cd70;
      }

      .cls-16 {
        fill: #ffde83;
      }

      .cls-17 {
        fill: #e4d8f6;
      }

      .cls-18 {
        fill: #8fd8ad;
      }

      .cls-19 {
        fill: #a4eec4;
      }

      .cls-20 {
        fill: #d1dafa;
      }

      .cls-21 {
        fill: #fb8553;
      }

      .cls-10, .cls-11, .cls-2, .cls-3 {
        stroke-linecap: round;
        stroke-linejoin: round;
      }

      .cls-11, .cls-2, .cls-5 {
        stroke: #3a3937;
      }

      .cls-22 {
        fill: url(#linear-gradient);
      }

      .cls-6 {
        stroke: #94abed;
        stroke-width: .5px;
      }
    </style>
    <linearGradient id="linear-gradient" x1="378.01" y1="62.54" x2="378.01" y2="124.72" gradientUnits="userSpaceOnUse">
      <stop offset="0" stop-color="#ff8853"/>
      <stop offset=".25" stop-color="#ff8853"/>
      <stop offset="1" stop-color="#ffc15a"/>
    </linearGradient>
    <linearGradient id="linear-gradient-2" x1="54.47" y1="167.9" x2="137.85" y2="167.9" xlink:href="#linear-gradient"/>
    <clipPath id="clippath">
      <rect class="cls-1" x="402.76" y="206.79" width="90.31" height="79.89" rx="12.27" ry="12.27"/>
    </clipPath>
  </defs>
  <rect class="cls-9" x="36.38" y="144.12" width="121.18" height="107.19" rx="12.27" ry="12.27"/>
  <rect class="cls-20" x="402.76" y="206.79" width="90.31" height="79.89" rx="12.27" ry="12.27"/>
  <rect class="cls-4" x="402.76" y="206.79" width="90.31" height="79.89" rx="12.27" ry="12.27"/>
  <g>
    <g>
      <path class="cls-5" d="M218.12,125.74c2.63-1.75,6.2-3.09,9.3-2.38l5.94,13.11-12.11,.73-3.14-11.45Z"/>
      <path class="cls-4" d="M317.62,136.44c-.48-1.91-1.59-3.65-3.12-4.89l-9.91,6.67,1.31,4.67,10.22-3.5,1.5-2.95Z"/>
    </g>
    <g>
      <path class="cls-17" d="M144.46,337.85v-4.66h237.43v45.5c0,11.98-53.15,21.7-118.71,21.7s-118.71-9.71-118.71-21.7v-40.83Z"/>
      <ellipse class="cls-17" cx="263.18" cy="333.19" rx="118.71" ry="21.7"/>
    </g>
    <g>
      <path class="cls-16" d="M235.99,320.29c0,2.8-12.56,5-27.87,5s-27.72-2.27-27.72-5.07v-66.66c0-1.13,.91-.68,2.04-.68h51.5c1.13,0,2.04-.37,2.04,.76v66.66"/>
      <ellipse class="cls-15" cx="208.12" cy="252.88" rx="27.72" ry="5.07"/>
    </g>
    <g>
      <path class="cls-19" d="M270.71,302.61v32.63c1.92,4.47,22.36,7.98,47.3,7.98s45.94-3.61,47.39-8.16c0-5.69,0-32.45,0-32.45"/>
      <ellipse class="cls-18" cx="318.02" cy="303.14" rx="47.47" ry="8.68"/>
    </g>
    <g>
      <path class="cls-21" d="M224.16,72.19c-2.21-.61-4.09-2.05-5.26-4.02-1.16-1.97-1.52-4.32-.99-6.54,.53-2.23,1.91-4.16,3.84-5.39,1.93-1.23,4.26-1.67,6.51-1.21l.59,.15c1.76,.45,3.33,1.43,4.5,2.82"/>
      <g>
        <path class="cls-8" d="M394.14,113.07c-.9-3.8-3.05-7.19-6.12-9.61l-.59-.45c-3.7-2.7-8.33-3.82-12.85-3.12-4.53,.71-8.59,3.18-11.3,6.88-9.37,12.37-21.83,22.07-36.13,28.11-2.86,1.22-8.82,2.63-13.95,2.55l-5.54-.91c12.95-9.85,21.31-25.41,21.31-42.93,0-2.07-.13-4.11-.36-6.12,.07-.37,.14-.74,.2-1.11l-.45-.88c-3.91-25.93-26.29-45.81-53.31-45.81-29.78,0-53.91,24.14-53.91,53.91,0,12.31,4.14,23.65,11.08,32.73l-9.03,.53c-9.91-2.17-19.35-14.84-29.1-28.07-2.31-9.53-10.87-16.62-21.11-16.62-12.01,0-21.74,9.73-21.74,21.74,0,10.37,7.27,19.04,16.99,21.2,10.36,15.2,24.81,33.35,47.11,43.96v36.78c0,1.96,.72,4.26,1.9,5.84,.59,.79,4.46,3.78,7.73,4.38l-6.98,96c.34,5.87,.92,10.64,4.11,14.93,3.19,4.28,7.88,7.21,13.14,8.19,5.44,1.04,11.08-.08,15.71-3.13,4.63-3.05,7.88-7.79,9.06-13.21l9.49-60.11,25.38-10.22,1.44,4.23-1.34,28.9c0,12.44,9.68,22.63,21.5,22.63h2.5c11.84,0,21.58-10.19,21.58-22.63v-50.86c0-10.2-6.52-18.88-15.42-21.67-.14-1.16-.29-2.37-.44-3.64l.44,1.84-1.36-23.33s.01,.02,.01,.02l-.02-.26c44.36-19.25,61.59-43.06,69.19-59.35,1.66-3.54,2.07-7.53,1.17-11.33Z"/>
        <g>
          <path class="cls-12" d="M307.88,136.91c-9.49,7.24-20.02,11.7-31.57,11.68-17.14,0-34.03-7.91-45.62-20.86-1.49,3.45,1.32,17.76,1.94,15.38,14.19,8.49,19.78,10.24,35.96,11.55,11.08,.09,19.81-2.12,27.48-6.56,6.06-3.5,9.65-5.68,14.78-11.2"/>
          <path class="cls-2" d="M224.16,72.19c-2.21-.61-4.09-2.05-5.26-4.02-1.16-1.97-1.52-4.32-.99-6.54,.53-2.23,1.91-4.16,3.84-5.39,1.93-1.23,4.26-1.67,6.51-1.21l.59,.15c1.76,.45,3.33,1.43,4.5,2.82"/>
          <path class="cls-2" d="M274.1,148.29c-29.78,0-53.91-24.14-53.91-53.91,0-29.78,24.14-53.91,53.91-53.91,29.78,0,53.91,24.14,53.91,53.91,0,29.78-24.14,53.91-53.91,53.91Z"/>
          <path class="cls-11" d="M298.99,217.13c1.95-2.59,4.47-4.69,7.37-6.15,2.89-1.46,6.08-2.23,9.32-2.25h2.5c11.9,0,21.58,10.19,21.58,22.63v50.86c0,12.44-9.74,22.63-21.58,22.63h-2.5c-11.82,0-21.5-10.19-21.5-22.63l1.7-29"/>
          <path class="cls-11" d="M226.23,190.94l-8.97,120.78c-.05,.61-.05,1.22-.01,1.83,.35,5.45,1.03,9.95,4.06,14.01,3.2,4.28,7.88,7.21,13.14,8.19h0c5.44,1.04,11.08-.08,15.71-3.13,4.63-3.05,7.88-7.79,9.06-13.21l8.92-52.39c.8-4.7,4.05-8.63,8.52-10.29h0s19.03-3.51,19.03-3.51"/>
          <path class="cls-2" d="M229.63,127.3l-7.39,.34c-12.19-4.19-23.55-20.38-35.76-37.21-2.72-3.69-6.78-6.14-11.31-6.82-4.53-.68-9.14,.46-12.82,3.17h0l-.54,.42c-3.04,2.43-5.17,5.81-6.05,9.6-.88,3.79-.45,7.77,1.21,11.28,7.6,16.31,30.87,52.46,68.83,65.74l.28,19.24"/>
          <path class="cls-2" d="M324.18,208.11l-1.37-23.57"/>
          <path class="cls-2" d="M293.39,161.18h-9.71c-.61,0-1.2,.24-1.63,.67-.43,.43-.68,1.01-.68,1.62v10.03c-.01,.31,.04,.62,.15,.91,.11,.29,.28,.55,.5,.78,.22,.22,.47,.4,.76,.52,.29,.12,.59,.18,.9,.18h9.71c.61,0,1.2-.24,1.63-.68,.43-.43,.68-1.02,.68-1.64v-10.03c0-.61-.25-1.19-.68-1.62-.43-.43-1.02-.67-1.63-.67v-.08Z"/>
          <path class="cls-2" d="M327.28,88.09c-2.37,15.63-19.1,30.65-40.64,31.33-23.47,.72-43.16-16.95-43.6-33.74-.55-5.55,.04-11.16,1.71-16.48,3.48-8.45,13.3-14.46,39.87-15.32,9.26-.66,18.57,.29,27.51,2.81"/>
          <path class="cls-2" d="M232.13,104.47c-3.35,0-6.07-2.72-6.07-6.07,0-3.35,2.72-6.07,6.07-6.07,3.35,0,6.07,2.72,6.07,6.07,0,3.35-2.72,6.07-6.07,6.07Z"/>
          <path class="cls-2" d="M307.28,137.5c5.49,1.83,15.05-.19,18.92-1.83,14.3-6.04,26.76-15.74,36.13-28.11,2.7-3.7,6.77-6.17,11.3-6.88,4.53-.7,9.15,.42,12.85,3.12l.59,.45c3.06,2.42,5.22,5.81,6.12,9.61,.9,3.8,.49,7.79-1.17,11.33-7.6,16.29-24.84,40.1-69.2,59.35l1.37,23.57"/>
          <path class="cls-2" d="M215.73,169.84l-.19,36.78c0,1.96,.62,3.88,1.8,5.45,1.17,1.57,4.38,3.51,6.26,4.07l-1.55-.79"/>
          <path class="cls-3" d="M322.23,185.71s-23.08-6.55-14.34-46.99"/>
          <path class="cls-3" d="M322.84,184.8s-11.65-21.21-4.15-46.63"/>
          <path class="cls-3" d="M226.27,176.56s19.87-5.64,15.76-38.76"/>
          <path class="cls-3" d="M225.66,175.64s11.65-21.21,4.15-46.63"/>
          <circle class="cls-9" cx="172.03" cy="104.69" r="21.74"/>
        </g>
        <g>
          <path class="cls-14" d="M208.05,82.42l-9.66-15.16-5.27-27.9c-.14-.81-.49-1.57-1.01-2.21-4.09-5.05-16.1,.35-25.86,8.26-9.76,7.92-17.51,18.56-13.43,23.6,.52,.64,1.19,1.13,1.96,1.44l26.21,10.92,12.83,12.59c1.16,1.19,5.15-.33,9.01-3.46,3.86-3.13,6.15-6.7,5.22-8.08Z"/>
          <path class="cls-21" d="M155.92,66.49c1.81,2.24,10.67-1.95,19.78-9.35,9.12-7.39,15.03-15.2,13.23-17.42-1.8-2.22-10.67,1.95-19.78,9.35-9.12,7.39-15.05,15.18-13.23,17.42Z"/>
          <path class="cls-21" d="M180.85,51.51l-2.63-2.27c-.73-.75-3.23,.21-5.65,2.17s-3.97,3.98-3.39,4.85l.1,.23,1.67,3.24"/>
          <path class="cls-10" d="M197.44,79.02s-3.01,3.56-6.14,4.36"/>
          <path class="cls-10" d="M200.54,82.84s-3.01,3.56-6.14,4.36"/>
        </g>
      </g>
    </g>
  </g>
  <path class="cls-9" d="M122.75,300.75l8.18,2.67-8.18,2.68-2.66,8.18-2.68-8.18-8.18-2.68,8.18-2.67,2.68-8.18,2.66,8.18Z"/>
  <path class="cls-22" d="M404.94,109.18v-31.09l-26.93-15.54-26.92,15.54v31.09l26.92,15.54,26.93-15.54Z"/>
  <line class="cls-9" x1="90.5" y1="186.19" x2="133.43" y2="186.19"/>
  <line class="cls-9" x1="90.5" y1="223.19" x2="133.43" y2="223.19"/>
  <line class="cls-9" x1="70.08" y1="203.19" x2="133.43" y2="203.19"/>
  <rect class="cls-13" x="54.47" y="163.41" width="83.37" height="8.96"/>
  <g class="cls-7">
    <g>
      <line class="cls-6" x1="402.05" y1="198.12" x2="402.05" y2="298.13"/>
      <line class="cls-6" x1="417.32" y1="198.12" x2="417.32" y2="298.13"/>
      <line class="cls-6" x1="432.59" y1="198.12" x2="432.59" y2="298.13"/>
      <line class="cls-6" x1="447.86" y1="198.12" x2="447.86" y2="298.13"/>
      <line class="cls-6" x1="463.13" y1="198.12" x2="463.13" y2="298.13"/>
      <line class="cls-6" x1="478.4" y1="198.12" x2="478.4" y2="298.13"/>
      <line class="cls-6" x1="493.67" y1="198.12" x2="493.67" y2="298.13"/>
      <line class="cls-6" x1="397.85" y1="293.94" x2="497.86" y2="293.94"/>
      <line class="cls-6" x1="397.85" y1="278.67" x2="497.86" y2="278.67"/>
      <line class="cls-6" x1="397.85" y1="263.4" x2="497.86" y2="263.4"/>
      <line class="cls-6" x1="397.85" y1="248.13" x2="497.86" y2="248.13"/>
      <line class="cls-6" x1="397.85" y1="232.85" x2="497.86" y2="232.85"/>
      <line class="cls-6" x1="397.85" y1="217.58" x2="497.86" y2="217.58"/>
      <line class="cls-6" x1="397.85" y1="202.31" x2="497.86" y2="202.31"/>
    </g>
  </g>
  <path class="cls-4" d="M422.48,267.02l11.05-14.16c3.41-4.37,9.54-5.5,14.28-2.63h0c4.73,2.86,10.84,1.75,14.25-2.6l18.02-22.94"/>
  <rect class="cls-4" x="402.76" y="206.79" width="90.31" height="79.89" rx="12.27" ry="12.27"/>
  <path class="cls-9" d="M450.51,116.54l8.18,2.67-8.18,2.68-2.66,8.18-2.68-8.18-8.18-2.68,8.18-2.67,2.68-8.18,2.66,8.18Z"/>
  <path class="cls-9" d="M115.08,71.94l2.5,.81-2.5,.82-.81,2.5-.82-2.5-2.5-.82,2.5-.81,.82-2.5,.81,2.5Z"/>
</svg>