<svg width="576" height="486" viewBox="0 0 576 486" fill="none" xmlns="http://www.w3.org/2000/svg">
<path d="M455.969 31H560.901C563.283 31 565.214 32.931 565.214 35.313V111.687C565.214 114.069 563.283 116 560.901 116H455.969C453.587 116 451.656 114.069 451.656 111.687V35.313C451.656 32.931 453.587 31 455.969 31Z" fill="#E6E6E6" stroke="#3A3836" stroke-width="2"/>
<path d="M481.87 52.5801H461.282V107.702H481.87V52.5801Z" fill="white"/>
<path d="M507.107 65.8625H486.519V107.702H507.107V65.8625Z" fill="white"/>
<path d="M533.008 73.832H512.42V107.702H533.008V73.832Z" fill="white"/>
<path d="M558.908 63.2061H538.321V107.702H558.908V63.2061Z" fill="white"/>
<path d="M452.317 99.733C454.701 99.733 456.634 97.8003 456.634 95.4162C456.634 93.0321 454.701 91.0994 452.317 91.0994C449.933 91.0994 448 93.0321 448 95.4162C448 97.8003 449.933 99.733 452.317 99.733Z" fill="#A4EEC4" stroke="#3A3836" stroke-width="2"/>
<path d="M471.576 67.1907C473.96 67.1907 475.893 65.258 475.893 62.8739C475.893 60.4898 473.96 58.5571 471.576 58.5571C469.192 58.5571 467.26 60.4898 467.26 62.8739C467.26 65.258 469.192 67.1907 471.576 67.1907Z" fill="#A4EEC4" stroke="#3A3836" stroke-width="2"/>
<path d="M497.477 85.1221C499.861 85.1221 501.794 83.1894 501.794 80.8053C501.794 78.4212 499.861 76.4885 497.477 76.4885C495.093 76.4885 493.16 78.4212 493.16 80.8053C493.16 83.1894 495.093 85.1221 497.477 85.1221Z" fill="#A4EEC4" stroke="#3A3836" stroke-width="2"/>
<path d="M522.714 86.4505C525.098 86.4505 527.031 84.5178 527.031 82.1337C527.031 79.7496 525.098 77.8169 522.714 77.8169C520.33 77.8169 518.397 79.7496 518.397 82.1337C518.397 84.5178 520.33 86.4505 522.714 86.4505Z" fill="#F79A8E" stroke="#3A3836" stroke-width="2"/>
<path d="M549.279 75.1604C551.663 75.1604 553.595 73.2277 553.595 70.8436C553.595 68.4596 551.663 66.5269 549.279 66.5269C546.895 66.5269 544.962 68.4596 544.962 70.8436C544.962 73.2277 546.895 75.1604 549.279 75.1604Z" fill="#A4EEC4" stroke="#3A3836" stroke-width="2"/>
<path d="M568.538 101.725C570.922 101.725 572.855 99.7927 572.855 97.4086C572.855 95.0245 570.922 93.0918 568.538 93.0918C566.154 93.0918 564.221 95.0245 564.221 97.4086C564.221 99.7927 566.154 101.725 568.538 101.725Z" fill="#A4EEC4" stroke="#3A3836" stroke-width="2"/>
<path d="M454.309 91.0993L467.924 65.8626M474.897 65.1985L493.16 79.4771" stroke="#3A3836" stroke-width="2"/>
<path d="M501.462 82.7979H518.397" stroke="#3A3836" stroke-width="2"/>
<path d="M527.031 81.1374L545.626 73.168" stroke="#3A3836" stroke-width="2"/>
<path d="M552.599 73.832L565.882 93.7557" stroke="#3A3836" stroke-width="2"/>
<path d="M172.5 306L295.5 409.5" stroke="#3A3836" stroke-width="2.11" stroke-miterlimit="10"/>
<path d="M299 459C322.748 459 342 439.748 342 416C342 392.252 322.748 373 299 373C275.252 373 256 392.252 256 416C256 439.748 275.252 459 299 459Z" fill="white" stroke="#3A3836" stroke-width="2.11" stroke-miterlimit="10"/>
<path d="M199.5 262L320 294" stroke="#3A3836" stroke-width="2.11" stroke-miterlimit="10"/>
<path d="M336 340C359.748 340 379 320.748 379 297C379 273.252 359.748 254 336 254C312.252 254 293 273.252 293 297C293 320.748 312.252 340 336 340Z" fill="white" stroke="#3A3836" stroke-width="2.11" stroke-miterlimit="10"/>
<path d="M202 217L323.5 174" stroke="#3A3836" stroke-width="2.11" stroke-miterlimit="10"/>
<path d="M336 211C359.748 211 379 191.748 379 168C379 144.252 359.748 125 336 125C312.252 125 293 144.252 293 168C293 191.748 312.252 211 336 211Z" fill="white" stroke="#3A3836" stroke-width="2.11" stroke-miterlimit="10"/>
<path d="M179.5 170.5L294 59" stroke="#3A3836" stroke-width="2.11" stroke-miterlimit="10"/>
<path d="M299 95C322.748 95 342 75.7482 342 52C342 28.2517 322.748 9 299 9C275.252 9 256 28.2517 256 52C256 75.7482 275.252 95 299 95Z" fill="white" stroke="#3A3836" stroke-width="2.11" stroke-miterlimit="10"/>
<path d="M103.386 337.771C158.275 337.771 202.771 293.275 202.771 238.386C202.771 183.496 158.275 139 103.386 139C48.4965 139 4 183.496 4 238.386C4 293.275 48.4965 337.771 103.386 337.771Z" fill="white" stroke="#3A3836" stroke-width="2.11" stroke-miterlimit="10"/>
<path d="M172.739 316.478C178.67 316.478 183.478 311.67 183.478 305.739C183.478 299.808 178.67 295 172.739 295C166.808 295 162 299.808 162 305.739C162 311.67 166.808 316.478 172.739 316.478Z" fill="white"/>
<path d="M172.739 313.187C176.853 313.187 180.187 309.853 180.187 305.739C180.187 301.626 176.853 298.291 172.739 298.291C168.626 298.291 165.291 301.626 165.291 305.739C165.291 309.853 168.626 313.187 172.739 313.187Z" fill="#3A3836"/>
<path d="M198.739 272.478C204.67 272.478 209.478 267.67 209.478 261.739C209.478 255.808 204.67 251 198.739 251C192.808 251 188 255.808 188 261.739C188 267.67 192.808 272.478 198.739 272.478Z" fill="white"/>
<path d="M198.739 269.187C202.853 269.187 206.187 265.853 206.187 261.739C206.187 257.626 202.853 254.291 198.739 254.291C194.626 254.291 191.291 257.626 191.291 261.739C191.291 265.853 194.626 269.187 198.739 269.187Z" fill="#3A3836"/>
<path d="M201.739 227.478C207.67 227.478 212.478 222.67 212.478 216.739C212.478 210.808 207.67 206 201.739 206C195.808 206 191 210.808 191 216.739C191 222.67 195.808 227.478 201.739 227.478Z" fill="white"/>
<path d="M201.739 224.187C205.853 224.187 209.187 220.853 209.187 216.739C209.187 212.626 205.853 209.291 201.739 209.291C197.626 209.291 194.291 212.626 194.291 216.739C194.291 220.853 197.626 224.187 201.739 224.187Z" fill="#3A3836"/>
<path d="M179.739 181.478C185.67 181.478 190.478 176.67 190.478 170.739C190.478 164.808 185.67 160 179.739 160C173.808 160 169 164.808 169 170.739C169 176.67 173.808 181.478 179.739 181.478Z" fill="white"/>
<path d="M179.739 178.187C183.853 178.187 187.187 174.853 187.187 170.739C187.187 166.626 183.853 163.291 179.739 163.291C175.626 163.291 172.291 166.626 172.291 170.739C172.291 174.853 175.626 178.187 179.739 178.187Z" fill="#3A3836"/>
<path d="M77.8709 100.405L86.2755 103.138L77.8709 105.882L75.1378 114.287L72.4045 105.882L64 103.138L72.4045 100.405L75.1378 92L77.8709 100.405Z" fill="white" stroke="#3A3836" stroke-width="2.11" stroke-miterlimit="10"/>
<path d="M41.871 365.965L50.2755 368.698L41.871 371.442L39.1378 379.847L36.4046 371.442L28 368.698L36.4046 365.965L39.1378 357.56L41.871 365.965Z" fill="white" stroke="#3A3836" stroke-width="2.11" stroke-miterlimit="10"/>
<path d="M184.011 55.4968L189.875 57.41L184.011 59.3347L182.097 65.1996L180.184 59.3347L174.319 57.41L180.184 55.4968L182.097 49.6318L184.011 55.4968Z" fill="#3A3836"/>
<path d="M105.946 183.715L156.634 212.181V269.066L105.946 297.531L55.2581 269.066V212.181L105.946 183.715Z" fill="#212121" stroke="#212121" stroke-width="2"/>
<path d="M104.291 180.155L153.581 208.605V265.505L104.291 293.955L55 265.505V208.605L104.291 180.155Z" fill="white" stroke="#212121" stroke-width="2"/>
<path d="M104.416 192.727L142.655 214.799V258.942L104.416 281.014L66.1757 258.942V214.799L104.416 192.727Z" fill="url(#paint0_linear_36_1153)" stroke="#212121" stroke-width="2"/>
<path d="M557.207 292H411.891C407.495 292 404 288.505 404 284.109V191.891C404 187.495 407.495 184 411.891 184H557.094C561.491 184 564.985 187.495 564.985 191.891V284.109C565.098 288.505 561.491 292 557.207 292Z" fill="white" stroke="#3A3836" stroke-width="2" stroke-miterlimit="10"/>
<path d="M420.459 249.611H428.576C429.816 249.611 430.831 250.626 430.831 251.866V282.079C430.831 283.319 429.816 284.334 428.576 284.334H420.459C419.219 284.334 418.205 283.319 418.205 282.079V251.866C418.205 250.626 419.219 249.611 420.459 249.611Z" fill="#F4ECFF"/>
<path d="M440.413 233.828H448.53C449.77 233.828 450.785 234.843 450.785 236.083V282.192C450.785 283.432 449.77 284.446 448.53 284.446H440.413C439.173 284.446 438.159 283.432 438.159 282.192V236.083C438.159 234.843 439.173 233.828 440.413 233.828Z" fill="#F4ECFF"/>
<path d="M460.48 211.958H468.597C469.837 211.958 470.852 212.973 470.852 214.213V282.079C470.852 283.319 469.837 284.334 468.597 284.334H460.48C459.24 284.334 458.225 283.319 458.225 282.079V214.213C458.225 212.973 459.24 211.958 460.48 211.958Z" fill="#F4ECFF"/>
<path d="M480.434 224.359H488.551C489.791 224.359 490.806 225.374 490.806 226.614V282.079C490.806 283.319 489.791 284.334 488.551 284.334H480.434C479.194 284.334 478.18 283.319 478.18 282.079V226.614C478.18 225.374 479.194 224.359 480.434 224.359Z" fill="#F4ECFF"/>
<path d="M500.501 195.048H508.618C509.858 195.048 510.873 196.062 510.873 197.303V282.079C510.873 283.319 509.858 284.334 508.618 284.334H500.501C499.261 284.334 498.246 283.319 498.246 282.079V197.303C498.246 196.062 499.261 195.048 500.501 195.048Z" fill="#F4ECFF"/>
<path d="M520.455 216.918H528.572C529.812 216.918 530.827 217.933 530.827 219.173V282.192C530.827 283.432 529.812 284.446 528.572 284.446H520.455C519.215 284.446 518.2 283.432 518.2 282.192V219.173C518.2 217.933 519.215 216.918 520.455 216.918Z" fill="#F4ECFF"/>
<path d="M540.522 204.63H548.639C549.879 204.63 550.893 205.645 550.893 206.885V282.079C550.893 283.319 549.879 284.334 548.639 284.334H540.522C539.282 284.334 538.267 283.319 538.267 282.079V206.885C538.267 205.645 539.282 204.63 540.522 204.63Z" fill="#F4ECFF"/>
<path d="M558.1 423.2H392C388.1 423.2 385 420.1 385 416.2V366C385 362.1 388.1 359 392 359H558.1C562 359 565.1 362.1 565.1 366V416.2C565.1 420 562 423.2 558.1 423.2Z" fill="white" stroke="#3A3836" stroke-width="2" stroke-miterlimit="10"/>
<path d="M438.9 387.365L438.9 394.436C438.9 395.516 438 396.4 436.9 396.4L396 396.4C394.9 396.4 394 395.516 394 394.436L394 387.365C394 386.284 394.9 385.4 396 385.4L436.9 385.4C438 385.4 438.9 386.284 438.9 387.365Z" fill="#D0F9FD"/>
<path d="M538 387.365L538 394.436C538 395.516 536.932 396.4 535.626 396.4L446.374 396.4C445.068 396.4 444 395.516 444 394.436L444 387.365C444 386.284 445.068 385.4 446.374 385.4L535.626 385.4C536.932 385.4 538 386.284 538 387.365Z" fill="#D0F9FD"/>
<path d="M451 405.365L451 412.436C451 413.516 450.201 414.4 449.224 414.4L395.776 414.4C394.799 414.4 394 413.516 394 412.436L394 405.365C394 404.284 394.799 403.4 395.776 403.4L449.224 403.4C450.201 403.4 451 404.284 451 405.365Z" fill="#D0F9FD"/>
<path d="M484 405.365L484 412.436C484 413.516 483.564 414.4 483.032 414.4L455.968 414.4C455.436 414.4 455 413.516 455 412.436L455 405.365C455 404.284 455.436 403.4 455.968 403.4L483.032 403.4C483.564 403.4 484 404.284 484 405.365Z" fill="#D0F9FD"/>
<path d="M548 405.365L548 412.436C548 413.516 547.114 414.4 546.03 414.4L490.97 414.4C489.886 414.4 489 413.516 489 412.436L489 405.365C489 404.284 489.886 403.4 490.97 403.4L546.03 403.4C547.114 403.4 548 404.284 548 405.365Z" fill="#D0F9FD"/>
<path d="M424.9 369.164L424.9 376.236C424.9 377.316 424 378.2 422.9 378.2L396.1 378.2C395 378.2 394.1 377.316 394.1 376.236L394.1 369.164C394.1 368.084 395 367.2 396.1 367.2L422.9 367.2C424 367.2 424.9 368.084 424.9 369.164Z" fill="#D0F9FD"/>
<path d="M483 369.365L483 376.436C483 377.516 482.1 378.4 481 378.4L431.8 378.4C430.7 378.4 429.8 377.516 429.8 376.436L429.8 369.365C429.8 368.284 430.7 367.4 431.8 367.4L481 367.4C482.1 367.4 483 368.284 483 369.365Z" fill="#D0F9FD"/>
<path d="M516.8 369.365L516.8 376.436C516.8 377.516 516.431 378.4 515.98 378.4L488.62 378.4C488.169 378.4 487.8 377.516 487.8 376.436L487.8 369.365C487.8 368.284 488.169 367.4 488.62 367.4L515.98 367.4C516.431 367.4 516.8 368.284 516.8 369.365Z" fill="#D0F9FD"/>
<path d="M555 369.164L555 376.236C555 377.316 554.58 378.2 554.066 378.2L522.933 378.2C522.42 378.2 522 377.316 522 376.236L522 369.164C522 368.084 522.42 367.2 522.933 367.2L554.066 367.2C554.58 367.2 555 368.084 555 369.164Z" fill="#D0F9FD"/>
<path d="M293.993 25C284.055 25 276 33.0546 276 42.9934H293.993V25Z" fill="url(#paint1_linear_36_1153)"/>
<path d="M293.993 25C284.055 25 276 33.0546 276 42.9934H293.993V25Z" stroke="#3A3836" stroke-width="2" stroke-linecap="round" stroke-linejoin="round"/>
<path d="M282.071 51.9956C282.843 62.0556 291.228 69.989 301.497 69.989C312.262 69.989 321 61.2623 321 50.4861C321 39.7099 313.067 31.8426 302.996 31.0713" stroke="#3A3836" stroke-width="2" stroke-linecap="round" stroke-linejoin="round"/>
<path d="M301.354 57.3064C304.969 57.3064 307.899 54.3761 307.899 50.7614C307.899 47.1466 304.969 44.2163 301.354 44.2163C297.739 44.2163 294.809 47.1466 294.809 50.7614C294.809 54.3761 297.739 57.3064 301.354 57.3064Z" stroke="#3A3836" stroke-width="2" stroke-linecap="round" stroke-linejoin="round"/>
<path d="M301.354 57.3064V69.9998" stroke="#3A3836" stroke-width="2" stroke-linecap="round" stroke-linejoin="round"/>
<path d="M307.282 47.6873L317.518 39.9192" stroke="#3A3836" stroke-width="2" stroke-linecap="round" stroke-linejoin="round"/>
<path d="M358.286 157.875H315" stroke="#3A3836" stroke-width="2" stroke-linecap="round" stroke-linejoin="round"/>
<path d="M356.115 146.33H317.17C315.972 146.33 315 147.301 315 148.5V181.672C315 182.871 315.972 183.842 317.17 183.842H356.115C357.314 183.842 358.286 182.871 358.286 181.672V148.5C358.286 147.301 357.314 146.33 356.115 146.33Z" stroke="#3A3836" stroke-width="2" stroke-linecap="round" stroke-linejoin="round"/>
<path d="M325.102 142V150.659" stroke="#3A3836" stroke-width="2" stroke-linecap="round" stroke-linejoin="round"/>
<path d="M348.183 142V150.659" stroke="#3A3836" stroke-width="2" stroke-linecap="round" stroke-linejoin="round"/>
<path d="M332.221 165.167H321.044V176.344H332.221V165.167Z" fill="url(#paint2_linear_36_1153)" stroke="#3A3836" stroke-width="2" stroke-linecap="round" stroke-linejoin="round"/>
<path d="M332.221 165.167H321.044V176.344H332.221V165.167Z" stroke="#3A3836" stroke-width="2" stroke-linecap="round" stroke-linejoin="round"/>
<path d="M299.839 425.403C306.726 425.403 312.309 419.803 312.309 412.894C312.309 405.986 306.726 400.386 299.839 400.386C292.951 400.386 287.368 405.986 287.368 412.894C287.368 419.803 292.951 425.403 299.839 425.403Z" fill="url(#paint3_linear_36_1153)" stroke="#3A3836" stroke-width="2" stroke-linecap="round" stroke-linejoin="round"/>
<path d="M310.4 419.69L318.299 426.957C319.215 427.8 319.281 429.222 318.451 430.142C317.611 431.061 316.193 431.127 315.277 430.295L307.683 423.313" fill="url(#paint4_linear_36_1153)"/>
<path d="M310.4 419.69L318.299 426.957C319.215 427.8 319.281 429.222 318.451 430.142C317.611 431.061 316.193 431.127 315.277 430.295L307.683 423.313" stroke="#3A3836" stroke-width="2" stroke-linecap="round" stroke-linejoin="round"/>
<path d="M299.839 425.403C306.726 425.403 312.309 419.803 312.309 412.894C312.309 405.986 306.726 400.386 299.839 400.386C292.951 400.386 287.368 405.986 287.368 412.894C287.368 419.803 292.951 425.403 299.839 425.403Z" stroke="#3A3836" stroke-width="2" stroke-linecap="round" stroke-linejoin="round"/>
<path d="M299.839 420.522C304.038 420.522 307.443 417.107 307.443 412.895C307.443 408.682 304.038 405.267 299.839 405.267C295.639 405.267 292.234 408.682 292.234 412.895C292.234 417.107 295.639 420.522 299.839 420.522Z" fill="white" stroke="#3A3836" stroke-width="2" stroke-linecap="round" stroke-linejoin="round"/>
<path d="M299.952 408.333V417.238" stroke="#3A3836" stroke-width="2" stroke-linecap="round"/>
<path d="M279 434H299.952V425.619" stroke="#3A3836" stroke-width="2" stroke-linecap="round"/>
<path d="M280.048 390H299.952V399.429" stroke="#3A3836" stroke-width="2" stroke-linecap="round"/>
<rect x="252" y="445" width="94" height="31" rx="7" fill="white" stroke="#3A3836" stroke-width="2"/>
<path d="M274.55 456.993H277.89V466H280.169V456.993H283.509V455.091H274.55V456.993ZM284.093 466H286.362V461.371C286.362 460.364 287.097 459.672 288.098 459.672C288.413 459.672 288.844 459.725 289.057 459.794V457.781C288.855 457.733 288.572 457.701 288.343 457.701C287.427 457.701 286.676 458.234 286.378 459.246H286.292V457.818H284.093V466ZM292.329 466.154C293.538 466.154 294.321 465.627 294.721 464.865H294.785V466H296.937V460.482C296.937 458.532 295.285 457.712 293.464 457.712C291.503 457.712 290.214 458.649 289.9 460.141L291.999 460.311C292.153 459.768 292.638 459.368 293.453 459.368C294.225 459.368 294.667 459.757 294.667 460.428V460.46C294.667 460.988 294.108 461.057 292.686 461.195C291.067 461.344 289.612 461.888 289.612 463.715C289.612 465.334 290.768 466.154 292.329 466.154ZM292.979 464.588C292.281 464.588 291.78 464.263 291.78 463.64C291.78 463.001 292.308 462.687 293.107 462.575C293.602 462.506 294.412 462.388 294.683 462.207V463.076C294.683 463.933 293.975 464.588 292.979 464.588ZM302.394 466.16C304.572 466.16 305.941 464.881 306.048 463.001H303.907C303.773 463.875 303.198 464.365 302.42 464.365C301.36 464.365 300.673 463.475 300.673 461.909C300.673 460.364 301.366 459.48 302.42 459.48C303.251 459.48 303.784 460.029 303.907 460.844H306.048C305.952 458.953 304.519 457.712 302.383 457.712C299.901 457.712 298.367 459.432 298.367 461.941C298.367 464.429 299.874 466.16 302.394 466.16ZM311.229 466.16C313.254 466.16 314.617 465.174 314.937 463.656L312.838 463.518C312.609 464.141 312.023 464.466 311.267 464.466C310.132 464.466 309.413 463.715 309.413 462.495V462.49H314.985V461.866C314.985 459.086 313.302 457.712 311.139 457.712C308.731 457.712 307.17 459.422 307.17 461.946C307.17 464.54 308.71 466.16 311.229 466.16ZM309.413 461.083C309.461 460.151 310.169 459.406 311.176 459.406C312.162 459.406 312.843 460.109 312.849 461.083H309.413ZM323.273 460.151C323.071 458.644 321.856 457.712 319.789 457.712C317.696 457.712 316.316 458.681 316.322 460.258C316.316 461.483 317.089 462.277 318.687 462.596L320.104 462.879C320.818 463.022 321.142 463.283 321.153 463.694C321.142 464.178 320.615 464.525 319.821 464.525C319.012 464.525 318.474 464.178 318.335 463.512L316.103 463.63C316.316 465.196 317.648 466.16 319.816 466.16C321.936 466.16 323.454 465.078 323.46 463.464C323.454 462.282 322.682 461.574 321.095 461.249L319.614 460.95C318.852 460.785 318.57 460.524 318.575 460.13C318.57 459.64 319.124 459.32 319.827 459.32C320.615 459.32 321.084 459.752 321.196 460.279L323.273 460.151Z" fill="#3A3836"/>
<rect x="289" y="324" width="94" height="31" rx="7" fill="white" stroke="#3A3836" stroke-width="2"/>
<path d="M319.136 345H326.119V343.098H321.442V334.091H319.136V345ZM331.301 345.16C333.783 345.16 335.328 343.461 335.328 340.941C335.328 338.406 333.783 336.712 331.301 336.712C328.818 336.712 327.274 338.406 327.274 340.941C327.274 343.461 328.818 345.16 331.301 345.16ZM331.311 343.402C330.166 343.402 329.58 342.353 329.58 340.925C329.58 339.498 330.166 338.443 331.311 338.443C332.435 338.443 333.021 339.498 333.021 340.925C333.021 342.353 332.435 343.402 331.311 343.402ZM340.489 348.239C342.828 348.239 344.489 347.173 344.489 345.08V336.818H342.236V338.192H342.151C341.847 337.527 341.182 336.712 339.813 336.712C338.017 336.712 336.499 338.107 336.499 340.893C336.499 343.615 337.975 344.883 339.818 344.883C341.123 344.883 341.853 344.228 342.151 343.551H342.247V345.048C342.247 346.172 341.528 346.609 340.542 346.609C339.541 346.609 339.035 346.172 338.848 345.676L336.75 345.959C337.021 347.248 338.284 348.239 340.489 348.239ZM340.537 343.178C339.424 343.178 338.816 342.294 338.816 340.882C338.816 339.492 339.413 338.517 340.537 338.517C341.64 338.517 342.258 339.45 342.258 340.882C342.258 342.326 341.629 343.178 340.537 343.178ZM353.103 339.151C352.9 337.644 351.686 336.712 349.619 336.712C347.526 336.712 346.146 337.681 346.151 339.258C346.146 340.483 346.918 341.277 348.516 341.596L349.933 341.879C350.647 342.022 350.972 342.283 350.983 342.694C350.972 343.178 350.445 343.525 349.651 343.525C348.841 343.525 348.303 343.178 348.165 342.512L345.933 342.63C346.146 344.196 347.478 345.16 349.646 345.16C351.766 345.16 353.284 344.078 353.289 342.464C353.284 341.282 352.511 340.574 350.924 340.249L349.443 339.95C348.682 339.785 348.399 339.524 348.405 339.13C348.399 338.64 348.953 338.32 349.656 338.32C350.445 338.32 350.913 338.752 351.025 339.279L353.103 339.151Z" fill="#3A3836"/>
<rect x="289" y="195" width="94" height="31" rx="7" fill="white" stroke="#3A3836" stroke-width="2"/>
<path d="M312.385 216H319.757V214.098H314.691V211.494H319.357V209.592H314.691V206.993H319.736V205.091H312.385V216ZM329.154 207.818H326.752L325.058 213.672H324.973L323.274 207.818H320.877L323.737 216H326.294L329.154 207.818ZM333.766 216.16C335.79 216.16 337.154 215.174 337.473 213.656L335.375 213.518C335.146 214.141 334.56 214.466 333.803 214.466C332.669 214.466 331.95 213.715 331.95 212.495V212.49H337.521V211.866C337.521 209.086 335.838 207.712 333.676 207.712C331.268 207.712 329.707 209.422 329.707 211.946C329.707 214.54 331.247 216.16 333.766 216.16ZM331.95 211.083C331.998 210.151 332.706 209.406 333.713 209.406C334.698 209.406 335.38 210.109 335.385 211.083H331.95ZM341.271 211.27C341.277 210.215 341.905 209.597 342.821 209.597C343.732 209.597 344.281 210.194 344.276 211.195V216H346.545V210.79C346.545 208.884 345.426 207.712 343.722 207.712C342.507 207.712 341.628 208.308 341.261 209.262H341.165V207.818H339.002V216H341.271V211.27ZM352.685 207.818H351.146V205.858H348.877V207.818H347.758V209.523H348.877V213.784C348.866 215.387 349.958 216.181 351.604 216.112C352.19 216.091 352.605 215.973 352.834 215.899L352.477 214.21C352.366 214.232 352.126 214.285 351.913 214.285C351.46 214.285 351.146 214.114 351.146 213.486V209.523H352.685V207.818ZM360.854 210.151C360.651 208.644 359.437 207.712 357.37 207.712C355.277 207.712 353.897 208.681 353.902 210.258C353.897 211.483 354.669 212.277 356.267 212.596L357.684 212.879C358.398 213.022 358.723 213.283 358.734 213.694C358.723 214.178 358.196 214.525 357.402 214.525C356.592 214.525 356.054 214.178 355.916 213.512L353.684 213.63C353.897 215.196 355.229 216.16 357.397 216.16C359.517 216.16 361.035 215.078 361.04 213.464C361.035 212.282 360.262 211.574 358.675 211.249L357.194 210.95C356.433 210.785 356.15 210.524 356.156 210.13C356.15 209.64 356.704 209.32 357.407 209.32C358.196 209.32 358.664 209.752 358.776 210.279L360.854 210.151Z" fill="#3A3836"/>
<rect x="252" y="79" width="94" height="31" rx="7" fill="white" stroke="#3A3836" stroke-width="2"/>
<path d="M271.962 89.0909V100H274.2V92.8729H274.29L277.113 99.9467H278.637L281.46 92.8995H281.55V100H283.788V89.0909H280.943L277.939 96.4205H277.811L274.807 89.0909H271.962ZM289.374 100.16C291.398 100.16 292.762 99.1744 293.081 97.6562L290.983 97.5178C290.754 98.141 290.168 98.4659 289.411 98.4659C288.277 98.4659 287.558 97.7148 287.558 96.495V96.4897H293.129V95.8665C293.129 93.0859 291.446 91.7116 289.283 91.7116C286.876 91.7116 285.315 93.4215 285.315 95.9464C285.315 98.5405 286.854 100.16 289.374 100.16ZM287.558 95.0835C287.606 94.1513 288.314 93.4055 289.321 93.4055C290.306 93.4055 290.988 94.1087 290.993 95.0835H287.558ZM298.962 91.8182H297.423V89.858H295.153V91.8182H294.035V93.5227H295.153V97.7841C295.143 99.3874 296.235 100.181 297.881 100.112C298.467 100.091 298.882 99.9734 299.111 99.8988L298.754 98.2102C298.642 98.2315 298.403 98.2848 298.19 98.2848C297.737 98.2848 297.423 98.1143 297.423 97.4858V93.5227H298.962V91.8182ZM300.44 100H302.709V95.3711C302.709 94.3643 303.444 93.6719 304.446 93.6719C304.76 93.6719 305.192 93.7251 305.405 93.7944V91.7809C305.202 91.733 304.92 91.701 304.691 91.701C303.775 91.701 303.024 92.2337 302.725 93.2457H302.64V91.8182H300.44V100ZM306.578 100H308.847V91.8182H306.578V100ZM307.718 90.7635C308.394 90.7635 308.948 90.2468 308.948 89.6129C308.948 88.9844 308.394 88.4677 307.718 88.4677C307.047 88.4677 306.493 88.9844 306.493 89.6129C306.493 90.2468 307.047 90.7635 307.718 90.7635ZM314.362 100.16C316.54 100.16 317.909 98.8814 318.016 97.0011H315.874C315.741 97.8746 315.166 98.3647 314.388 98.3647C313.328 98.3647 312.641 97.4751 312.641 95.9091C312.641 94.3643 313.333 93.4801 314.388 93.4801C315.219 93.4801 315.752 94.0288 315.874 94.8438H318.016C317.92 92.9528 316.487 91.7116 314.351 91.7116C311.869 91.7116 310.335 93.4322 310.335 95.9411C310.335 98.4286 311.842 100.16 314.362 100.16ZM326.276 94.1513C326.074 92.6438 324.859 91.7116 322.792 91.7116C320.699 91.7116 319.319 92.6811 319.325 94.2578C319.319 95.483 320.092 96.2766 321.69 96.5962L323.107 96.8786C323.82 97.0224 324.145 97.2834 324.156 97.6935C324.145 98.1783 323.618 98.5245 322.824 98.5245C322.015 98.5245 321.477 98.1783 321.338 97.5124L319.106 97.6296C319.319 99.1957 320.651 100.16 322.819 100.16C324.939 100.16 326.457 99.0785 326.462 97.4645C326.457 96.282 325.685 95.5735 324.097 95.2486L322.617 94.9503C321.855 94.7852 321.573 94.5241 321.578 94.13C321.573 93.6399 322.127 93.3203 322.83 93.3203C323.618 93.3203 324.087 93.7518 324.199 94.2791L326.276 94.1513Z" fill="#3A3836"/>
<path d="M438.252 79.6618L450.755 79.6618L457.006 68.8309L450.755 58L438.252 58L432 68.8309L438.252 79.6618Z" fill="url(#paint5_linear_36_1153)"/>
<path d="M340.237 62.4366C353.41 79.3157 367.943 82.2398 367.943 82.2398L377.451 64.9071C366.529 64.1843 357.693 57.1668 352.796 52.2657C350.125 49.6033 345.962 49.1585 342.764 51.1599C338.933 53.5624 337.452 58.8736 340.237 62.4366Z" fill="white" stroke="#3A3836" stroke-width="2" stroke-linecap="round" stroke-linejoin="round"/>
<path d="M362.826 90.6301C362.826 90.6301 362.666 124.18 393.426 126.9L406.396 125.51L412.406 129.93L408.666 139.19C408.666 139.19 406.306 147.01 414.216 150.1C422.126 153.19 424.716 146.53 424.716 146.53L428.026 139.07L438.126 144.97C438.126 144.97 445.546 147.42 448.786 140.61C452.026 133.8 446.626 130.38 446.626 130.38L436.516 123.1C436.516 123.1 442.166 113.53 438.466 107.19C434.766 100.85 431.836 98.8301 424.666 96.9101L413.526 100.31L409.726 101.13L409.816 93.8101C409.816 93.8101 430.476 93.4501 439.016 86.0501C439.016 86.0501 447.296 84.2101 445.466 76.0301C443.626 67.8601 433.016 70.9001 433.016 70.9001C433.016 70.9001 426.816 77.5801 406.686 74.2901L395.876 61.8201L374.116 65.9901L361.906 90.7701L362.846 90.6201L362.826 90.6301Z" fill="white"/>
<path d="M410.076 75.04C410.076 75.04 418.166 77.96 435.806 69.9C435.806 69.9 444.866 68.67 445.536 76.95C445.536 76.95 447.566 83.44 437.216 87.5L390.816 85.37L393.386 76.98L399.426 71.71L410.076 75.03V75.04Z" fill="white"/>
<path d="M391.966 89L390.326 93.84C390.326 93.84 396.186 100.4 409.316 98.06L409.546 93.76C409.546 93.76 398.216 93.76 391.966 88.99V89Z" fill="#E3E8F8"/>
<path d="M393.456 78.02C407.269 78.02 418.466 66.8226 418.466 53.01C418.466 39.1974 407.269 28 393.456 28C379.644 28 368.446 39.1974 368.446 53.01C368.446 66.8226 379.644 78.02 393.456 78.02Z" fill="white" stroke="#3A3836" stroke-width="2" stroke-linecap="round" stroke-linejoin="round"/>
<path d="M390.676 63.7201C392.416 62.6001 392.916 60.2801 391.786 58.5401C390.666 56.8001 388.346 56.3001 386.606 57.4301C384.866 58.5501 384.366 60.8701 385.496 62.6101C386.616 64.3501 388.936 64.8501 390.676 63.7201Z" stroke="#3A3836" stroke-width="2" stroke-linecap="round" stroke-linejoin="round"/>
<path d="M367.536 34.9299C369.266 35.8499 371.416 35.1899 372.336 33.4499C373.256 31.7099 372.596 29.5699 370.856 28.6499C369.126 27.7299 366.976 28.3899 366.056 30.1299C365.136 31.8599 365.796 34.0099 367.536 34.9299Z" fill="#FC8653" stroke="#3A3836" stroke-width="2" stroke-miterlimit="10"/>
<path d="M371.696 34.3201L374.446 36.7501" stroke="#3A3836" stroke-width="2" stroke-miterlimit="10"/>
<path d="M413.099 68.827C405.813 65.3459 402.766 57.1578 405.437 49.3197C406.996 44.7282 409.945 41.5065 414.1 39.8051" stroke="#3A3836" stroke-width="2" stroke-linecap="round" stroke-linejoin="round"/>
<path d="M374.766 66.03C374.766 66.03 352.326 97.16 372.926 117.67C379.996 124.71 390.056 127.82 399.946 126.45C406.386 125.56 415.236 123.33 426.546 118.28" stroke="#3A3836" stroke-width="2" stroke-linecap="round" stroke-linejoin="round"/>
<path d="M406.386 125.51L412.396 129.93" stroke="#3A3836" stroke-width="2" stroke-linecap="round" stroke-linejoin="round"/>
<path d="M428.546 139.91L436.436 144.43C440.366 146.68 445.366 145.65 448.076 142.01C451.176 137.86 450.126 131.96 445.786 129.13L436.506 123.08" stroke="#3A3836" stroke-width="2" stroke-linecap="round" stroke-linejoin="round"/>
<path d="M368.466 62.71L390.726 69.56C394.226 70.67 396.166 74.17 395.116 77.49L385.906 106.62C384.836 109.99 381.086 111.94 377.466 111L356.416 104.52C352.746 103.56 350.616 99.9899 351.656 96.5599L359.666 67.06C360.736 63.52 364.756 61.54 368.476 62.71H368.466Z" fill="white" stroke="#3A3836" stroke-width="2" stroke-linecap="round" stroke-linejoin="round"/>
<path d="M370.076 63.1499L367.416 72.5099C366.806 74.6599 368.006 76.8999 370.126 77.5799L392.866 84.3999" stroke="#3A3836" stroke-width="2" stroke-linecap="round" stroke-linejoin="round"/>
<path d="M371.056 89.2101C369.836 88.8401 369.146 87.5601 369.516 86.3401C369.876 85.1201 371.166 84.4301 372.386 84.8001C373.606 85.1701 374.296 86.4501 373.926 87.6701C373.556 88.8901 372.276 89.5801 371.066 89.2101H371.056Z" fill="#FC8653" stroke="#3A3836" stroke-width="2" stroke-miterlimit="10"/>
<path d="M377.726 91.2101C376.506 90.8401 375.816 89.5601 376.186 88.3401C376.546 87.1201 377.836 86.4301 379.056 86.8001C380.276 87.1701 380.966 88.4501 380.596 89.6701C380.226 90.8901 378.946 91.5801 377.736 91.2101H377.726Z" fill="#FC8653" stroke="#3A3836" stroke-width="2" stroke-miterlimit="10"/>
<path d="M390.536 90.35L385.486 88.84C384.526 88.55 383.456 89.32 383.066 90.61C382.686 91.87 383.156 93.13 384.116 93.41L389.166 94.92" stroke="#3A3836" stroke-width="2" stroke-linecap="round" stroke-linejoin="round"/>
<path d="M358.986 95.8799L386.556 103.63Z" fill="#E3E8F8"/>
<path d="M387.926 99.0599L360.356 91.3099C359.396 91.0199 358.316 91.8099 357.936 93.0799C357.556 94.3499 358.026 95.5999 358.986 95.8799L386.556 103.63" fill="#E3E8F8"/>
<path d="M387.926 99.0599L360.356 91.3099C359.396 91.0199 358.316 91.8099 357.936 93.0799C357.556 94.3499 358.026 95.5999 358.986 95.8799L386.556 103.63" stroke="#3A3836" stroke-width="2" stroke-linecap="round" stroke-linejoin="round"/>
<path d="M409.796 93.81C409.796 93.81 396.856 94.41 391.686 88.71" stroke="#3A3836" stroke-width="2" stroke-linecap="round" stroke-linejoin="round"/>
<path d="M409.426 98.3499C409.426 98.3499 395.246 99.5999 390.086 93.9099" stroke="#3A3836" stroke-width="2" stroke-linecap="round" stroke-linejoin="round"/>
<path d="M416.226 122.25L409.256 136.85C406.826 141.72 409.136 148.11 414.206 150.09L415.236 150.49C419.756 152.26 423.846 149.82 425.926 145.43L438.536 118.79C441.466 112.61 438.776 104.62 433.366 100.43L434.286 101.04C430.306 97.9499 424.636 96.1099 419.916 97.8699L409.706 101.12L409.796 93.7999C409.796 93.7999 424.466 95.9299 442.546 84.4599C446.366 82.0399 446.756 76.5399 443.956 72.9899C441.616 70.0299 437.546 69.0499 434.136 70.6599C427.876 73.6299 417.196 77.2699 406.666 74.2799" stroke="#3A3836" stroke-width="2" stroke-linecap="round" stroke-linejoin="round"/>
<g style="mix-blend-mode:multiply">
<path d="M417.416 64.25C417.416 64.25 415.826 73.5 410.076 75.04L406.666 74.3C406.666 74.3 411.696 72.56 417.416 64.25Z" fill="#E3E3E3"/>
</g>
<g style="mix-blend-mode:multiply">
<path d="M370.596 108.88C370.596 108.88 371.646 117.81 387.696 125.94C387.696 125.94 371.236 122.29 366.416 107.63L370.586 108.88H370.596Z" fill="#E3E3E3"/>
</g>
<path d="M338.77 278.6H354.35" stroke="#3A3836" stroke-width="2" stroke-linecap="round" stroke-linejoin="round"/>
<path d="M338.77 286.38H354.35" stroke="#3A3836" stroke-width="2" stroke-linecap="round" stroke-linejoin="round"/>
<path d="M338.77 300.66H354.35" stroke="#3A3836" stroke-width="2" stroke-linecap="round" stroke-linejoin="round"/>
<path d="M338.77 308.45H354.35" stroke="#3A3836" stroke-width="2" stroke-linecap="round" stroke-linejoin="round"/>
<path d="M331.28 276H319C318.448 276 318 276.448 318 277V289.28C318 289.832 318.448 290.28 319 290.28H331.28C331.832 290.28 332.28 289.832 332.28 289.28V277C332.28 276.448 331.832 276 331.28 276Z" fill="url(#paint6_linear_36_1153)"/>
<path d="M331.28 298.07H319C318.448 298.07 318 298.518 318 299.07V311.35C318 311.902 318.448 312.35 319 312.35H331.28C331.832 312.35 332.28 311.902 332.28 311.35V299.07C332.28 298.518 331.832 298.07 331.28 298.07Z" fill="url(#paint7_linear_36_1153)"/>
<path d="M331.28 276H319C318.448 276 318 276.448 318 277V289.28C318 289.832 318.448 290.28 319 290.28H331.28C331.832 290.28 332.28 289.832 332.28 289.28V277C332.28 276.448 331.832 276 331.28 276Z" stroke="#3A3836" stroke-width="2" stroke-linecap="round" stroke-linejoin="round"/>
<path d="M331.28 298.07H319C318.448 298.07 318 298.518 318 299.07V311.35C318 311.902 318.448 312.35 319 312.35H331.28C331.832 312.35 332.28 311.902 332.28 311.35V299.07C332.28 298.518 331.832 298.07 331.28 298.07Z" stroke="#3A3836" stroke-width="2" stroke-linecap="round" stroke-linejoin="round"/>
<defs>
<linearGradient id="paint0_linear_36_1153" x1="104.416" y1="191.573" x2="104.416" y2="282.169" gradientUnits="userSpaceOnUse">
<stop stop-color="#FF6C37"/>
<stop offset="1" stop-color="#FFB400"/>
</linearGradient>
<linearGradient id="paint1_linear_36_1153" x1="284.997" y1="25" x2="284.997" y2="42.9934" gradientUnits="userSpaceOnUse">
<stop stop-color="#FF6C37"/>
<stop offset="1" stop-color="#FFB400"/>
</linearGradient>
<linearGradient id="paint2_linear_36_1153" x1="326.633" y1="165.167" x2="326.633" y2="176.344" gradientUnits="userSpaceOnUse">
<stop stop-color="#FF6C37"/>
<stop offset="1" stop-color="#FFB400"/>
</linearGradient>
<linearGradient id="paint3_linear_36_1153" x1="299.839" y1="400.386" x2="299.839" y2="425.403" gradientUnits="userSpaceOnUse">
<stop stop-color="#FF6C37"/>
<stop offset="1" stop-color="#FFB400"/>
</linearGradient>
<linearGradient id="paint4_linear_36_1153" x1="313.358" y1="419.69" x2="313.358" y2="430.878" gradientUnits="userSpaceOnUse">
<stop stop-color="#FF6C37"/>
<stop offset="1" stop-color="#FFB400"/>
</linearGradient>
<linearGradient id="paint5_linear_36_1153" x1="457.006" y1="68.8309" x2="432" y2="68.8309" gradientUnits="userSpaceOnUse">
<stop stop-color="#FF6C37"/>
<stop offset="1" stop-color="#FFB400"/>
</linearGradient>
<linearGradient id="paint6_linear_36_1153" x1="325.14" y1="276" x2="325.14" y2="290.28" gradientUnits="userSpaceOnUse">
<stop stop-color="#FF6C37"/>
<stop offset="1" stop-color="#FFB400"/>
</linearGradient>
<linearGradient id="paint7_linear_36_1153" x1="325.14" y1="298.07" x2="325.14" y2="312.35" gradientUnits="userSpaceOnUse">
<stop stop-color="#FF6C37"/>
<stop offset="1" stop-color="#FFB400"/>
</linearGradient>
</defs>
</svg>
