<svg width="576" height="486" viewBox="0 0 576 486" fill="none" xmlns="http://www.w3.org/2000/svg">
<path opacity="0.7" d="M73.09 126.73L145.17 347.76C251.61 389.25 354.63 391.99 453.51 347.76L514.62 126.73C395.54 101.99 200.13 103.17 73.09 126.73Z" fill="url(#paint0_linear_32_8074)"/>
<path d="M201.71 285.54L200.05 286.08L201.71 286.62L202.25 288.28L202.79 286.62L204.45 286.08L202.79 285.54L202.25 283.88L201.71 285.54Z" fill="white" stroke="#3A3836" stroke-width="2" stroke-miterlimit="10"/>
<path d="M262.78 236.68L259.97 237.59L262.78 238.5L263.69 241.31L264.61 238.5L267.42 237.59L264.61 236.68L263.69 233.87L262.78 236.68Z" fill="#3A3836"/>
<path d="M104.27 349.27L112.02 355.6C112.02 355.6 125.32 356.86 145.84 349.27C166.36 341.68 192.92 335.56 207.07 334.37C221.22 333.18 253.57 330.85 278.15 356.72C278.15 356.72 281.48 360.29 281.3 355.97C281.12 351.65 260.11 333.18 251.32 329.3C242.53 325.43 218.14 319.47 192.79 326.32C167.44 333.17 154.26 340.94 128.44 347C128.44 347 113.71 349.96 104.28 349.27H104.27Z" fill="#E6E6E6"/>
<path d="M293.39 382.19C286.83 375.81 280.69 335.64 233.91 326.95C186.64 318.17 131.04 356.85 104.27 349.27C104.27 349.27 129.71 347.42 162.67 333.68C210.29 313.82 240.28 321.38 256.43 328.91C271.33 335.86 289.83 352.23 293.39 382.19Z" fill="white" stroke="#3A3836" stroke-width="2" stroke-linecap="round" stroke-linejoin="round"/>
<path d="M102.78 353.99L109.46 362.89C109.46 362.89 119.17 363.47 138.63 359.3C158.1 355.13 203.78 345.39 222.26 345.59C240.73 345.79 264.57 347.31 278.14 360.09V356.71C278.14 356.71 261.29 339.58 239.84 335.41C218.39 331.24 188.14 336.15 176.08 340.33C164.01 344.5 122.89 359.4 102.78 353.98V353.99Z" fill="#E6E6E6"/>
<path d="M284.11 365.26C284.11 365.26 266.96 334.27 226.63 332.49C186.31 330.7 149.32 348.97 128.1 352.95C114.86 355.43 102.77 353.99 102.77 353.99C102.77 353.99 109.33 357.52 120.35 356.23C131.37 354.94 149.7 349.97 166.53 344.61C183.36 339.25 214.5 331.65 235.66 336.12C256.82 340.59 273.06 350.59 280.26 360.4C280.26 360.4 285.27 366.87 284.1 365.26H284.11Z" fill="white" stroke="#3A3836" stroke-width="2" stroke-linecap="round" stroke-linejoin="round"/>
<path d="M482.51 349.27L474.76 355.6C474.76 355.6 461.46 356.86 440.94 349.27C420.42 341.68 393.86 335.56 379.71 334.37C365.56 333.18 333.21 330.85 308.63 356.72C308.63 356.72 305.3 360.29 305.48 355.97C305.66 351.65 326.67 333.18 335.46 329.3C344.25 325.42 368.64 319.47 393.99 326.32C419.34 333.17 432.52 340.94 458.34 347C458.34 347 473.07 349.96 482.5 349.27H482.51Z" fill="#E6E6E6"/>
<path d="M293.39 382.19C299.95 375.81 306.09 335.64 352.87 326.95C400.14 318.17 455.74 356.85 482.51 349.27C482.51 349.27 457.07 347.42 424.11 333.68C376.49 313.82 346.5 321.38 330.35 328.91C315.45 335.86 296.95 352.23 293.39 382.19Z" fill="white" stroke="#3A3836" stroke-width="2" stroke-linecap="round" stroke-linejoin="round"/>
<path d="M484 353.99L477.32 362.89C477.32 362.89 467.61 363.47 448.15 359.3C428.68 355.13 383 345.39 364.52 345.59C346.05 345.79 322.21 347.31 308.64 360.09V356.71C308.64 356.71 325.49 339.58 346.94 335.41C368.39 331.24 398.64 336.15 410.7 340.33C422.77 344.5 463.89 359.4 484 353.98V353.99Z" fill="#E6E6E6"/>
<path d="M301.95 363.65C301.95 363.65 319.83 334.28 360.15 332.49C400.47 330.7 437.46 348.97 458.68 352.95C471.92 355.43 484.01 353.99 484.01 353.99C484.01 353.99 477.45 357.52 466.43 356.23C455.41 354.94 437.08 349.97 420.25 344.61C403.42 339.25 372.28 331.65 351.12 336.12C329.96 340.59 313.72 350.59 306.52 360.4C306.52 360.4 301.95 365.64 301.95 363.65Z" fill="white" stroke="#3A3836" stroke-width="2" stroke-linecap="round" stroke-linejoin="round"/>
<path d="M489.35 364.11V395.68L293.73 383.82L287.84 384.18L285.72 384.31L284.12 384.41L280.54 384.62L278.15 384.77L274.28 385.01L268.66 385.35L263.79 385.65L98.12 395.69V364.12C162.08 359.22 272.58 312.22 293.4 382.2C307.19 311.25 430.25 359.81 489.36 364.12L489.35 364.11Z" fill="white" stroke="#3A3836" stroke-width="2" stroke-linecap="round" stroke-linejoin="round"/>
<path d="M296.82 383.94L298.26 384.18L300.38 384.31C300.69 382.41 301.15 380.54 301.78 378.73C302.45 376.85 303.26 375.02 304.27 373.3C305.27 371.57 306.43 369.93 307.74 368.41C309.04 366.88 310.49 365.48 312.05 364.18C313.6 362.88 315.27 361.72 317.01 360.66C318.75 359.6 320.56 358.65 322.43 357.81C326.17 356.13 330.1 354.85 334.12 353.91C342.17 352.02 350.52 351.37 358.84 351.52C363.01 351.59 367.17 351.88 371.32 352.32C373.39 352.55 375.47 352.8 377.53 353.11C379.59 353.41 381.66 353.77 383.74 354.11C400.32 356.83 416.87 359.73 433.46 362.39C441.75 363.75 450.06 365.01 458.36 366.28C466.67 367.51 474.99 368.73 483.32 369.79L458.52 365.3C450.25 363.85 441.98 362.35 433.7 360.93C417.15 358.04 400.57 355.31 384.03 352.36C381.96 352 379.89 351.63 377.81 351.28C375.72 350.93 373.63 350.64 371.54 350.37C367.34 349.85 363.13 349.49 358.89 349.34C350.43 349.05 341.89 349.55 333.53 351.36C329.36 352.27 325.24 353.53 321.28 355.23C319.3 356.08 317.37 357.05 315.5 358.14C313.63 359.23 311.83 360.45 310.13 361.82C308.43 363.18 306.82 364.67 305.36 366.31C303.89 367.94 302.57 369.71 301.43 371.6C300.27 373.48 299.33 375.48 298.55 377.55C297.78 379.62 297.22 381.76 296.82 383.93V383.94Z" fill="#E6E6E6"/>
<path d="M301.99 384.41L305.57 384.62C306.06 383.31 306.64 382.04 307.3 380.81C309.03 377.57 311.37 374.64 314.1 372.12C316.84 369.6 319.97 367.5 323.31 365.76C326.65 364.03 330.2 362.66 333.85 361.59C337.49 360.52 341.24 359.75 345.02 359.21C348.8 358.66 352.63 358.37 356.46 358.25C364.13 358.02 371.83 358.55 379.45 359.59C383.26 360.12 387.07 360.8 390.9 361.42L402.36 363.34L413.81 365.27C417.63 365.9 421.45 366.56 425.27 367.17L436.74 369.02L448.22 370.79C452.05 371.39 455.88 371.92 459.72 372.48C461.64 372.76 463.55 373.02 465.48 373.28C467.4 373.54 469.32 373.8 471.24 374.02C456.01 371.16 440.79 368.32 425.53 365.67L379.73 357.74C372.03 356.56 364.24 355.9 356.41 355.99C352.5 356.05 348.59 356.28 344.69 356.78C340.8 357.27 336.92 357.99 333.12 359.04C329.32 360.09 325.58 361.45 322.02 363.22C318.46 364.99 315.08 367.19 312.05 369.85C309.04 372.52 306.39 375.66 304.4 379.21C303.45 380.87 302.65 382.61 301.99 384.41Z" fill="#E6E6E6"/>
<path d="M307.96 384.77L311.83 385.01C311.87 384.95 311.92 384.89 311.97 384.84C313.21 383.35 314.58 381.95 316.06 380.67C319.03 378.12 322.39 376 325.97 374.3C329.55 372.6 333.33 371.28 337.19 370.28C344.93 368.28 353.01 367.51 361.06 367.49C369.13 367.49 377.2 368.26 385.19 369.58C401.25 372.21 417.29 374.94 433.38 377.38L439.42 378.28L442.44 378.73L445.46 379.15C449.49 379.71 453.52 380.25 457.56 380.79C461.59 381.31 465.64 381.79 469.68 382.24C471.7 382.47 473.73 382.66 475.76 382.85C477.79 383.03 479.82 383.21 481.85 383.31C477.81 382.85 473.79 382.24 469.76 381.65C467.75 381.36 465.74 381.04 463.73 380.73L457.71 379.79C453.69 379.16 449.68 378.52 445.67 377.86L433.63 375.91C417.58 373.28 401.52 370.67 385.51 367.81C377.47 366.35 369.31 365.42 361.1 365.29C352.9 365.17 344.63 365.81 336.58 367.74C332.56 368.71 328.59 370.01 324.8 371.74C321 373.47 317.38 375.66 314.13 378.35C312.51 379.7 310.98 381.18 309.59 382.79C309.04 383.43 308.5 384.1 308 384.78L307.96 384.77Z" fill="#E6E6E6"/>
<path d="M317.45 385.34L322.32 385.64C323.83 384.7 325.4 383.85 327.01 383.07C330.52 381.39 334.24 380.1 338.03 379.12C341.83 378.14 345.72 377.46 349.64 377.03C353.56 376.59 357.52 376.4 361.48 376.4C369.4 376.4 377.33 377.18 385.18 378.49C400.93 381.22 416.7 384.01 432.54 386.28C434.52 386.58 436.5 386.83 438.48 387.1C440.46 387.36 442.44 387.65 444.43 387.87L450.39 388.56C452.38 388.78 454.37 388.97 456.36 389.18C460.34 389.58 464.34 389.86 468.34 390.09L471.34 390.22L474.34 390.28C476.34 390.28 478.35 390.3 480.34 390.04C479.34 390.12 478.34 390.09 477.35 390.08C476.85 390.08 476.35 390.05 475.85 390.03C475.35 390.01 474.85 389.99 474.35 389.96L471.36 389.75L468.37 389.49C467.37 389.41 466.38 389.29 465.39 389.19C464.4 389.08 463.4 389 462.41 388.87L459.44 388.51C458.45 388.39 457.46 388.29 456.47 388.15C454.49 387.89 452.51 387.65 450.53 387.38L444.6 386.54L438.67 385.67C436.69 385.38 434.72 385.1 432.75 384.78C424.86 383.54 416.97 382.29 409.09 380.93C401.21 379.62 393.36 378.12 385.49 376.68C377.59 375.22 369.56 374.3 361.49 374.16C357.46 374.09 353.41 374.22 349.38 374.6C345.35 374.98 341.33 375.6 337.38 376.55C333.43 377.51 329.53 378.78 325.79 380.49C322.88 381.83 320.05 383.43 317.44 385.33L317.45 385.34Z" fill="#E6E6E6"/>
<path d="M289.28 383.94L287.84 384.18L285.72 384.31C285.41 382.41 284.95 380.54 284.32 378.73C283.65 376.85 282.84 375.02 281.83 373.3C280.83 371.57 279.67 369.93 278.36 368.41C277.06 366.88 275.61 365.48 274.05 364.18C272.5 362.88 270.83 361.72 269.09 360.66C267.35 359.6 265.54 358.65 263.67 357.81C259.93 356.13 256 354.85 251.98 353.91C243.93 352.02 235.58 351.37 227.26 351.52C223.09 351.59 218.93 351.88 214.78 352.32C212.71 352.55 210.63 352.8 208.57 353.11C206.51 353.41 204.44 353.77 202.36 354.11C185.78 356.83 169.23 359.73 152.64 362.39C144.35 363.75 136.04 365.01 127.74 366.28C119.43 367.51 111.11 368.73 102.78 369.79L127.58 365.3C135.85 363.85 144.12 362.35 152.4 360.93C168.95 358.04 185.53 355.31 202.07 352.36C204.14 352 206.21 351.63 208.29 351.28C210.38 350.93 212.47 350.64 214.56 350.37C218.76 349.85 222.97 349.49 227.21 349.34C235.67 349.05 244.21 349.55 252.57 351.36C256.74 352.27 260.86 353.53 264.82 355.23C266.8 356.08 268.73 357.05 270.6 358.14C272.47 359.23 274.27 360.45 275.97 361.82C277.67 363.18 279.28 364.67 280.74 366.31C282.21 367.94 283.53 369.71 284.67 371.6C285.83 373.48 286.77 375.48 287.55 377.55C288.32 379.62 288.88 381.76 289.28 383.93V383.94Z" fill="#E6E6E6"/>
<path d="M284.11 384.41L280.53 384.62C280.04 383.31 279.46 382.04 278.8 380.81C277.07 377.57 274.73 374.64 272 372.12C269.26 369.6 266.13 367.5 262.79 365.76C259.45 364.03 255.9 362.66 252.25 361.59C248.61 360.52 244.86 359.75 241.08 359.21C237.3 358.66 233.47 358.37 229.64 358.25C221.97 358.02 214.27 358.55 206.65 359.59C202.85 360.12 199.03 360.8 195.2 361.42L183.74 363.34L172.29 365.27C168.47 365.9 164.65 366.56 160.83 367.17L149.36 369.02L137.88 370.79C134.05 371.39 130.22 371.92 126.38 372.48C124.46 372.76 122.55 373.02 120.62 373.28C118.7 373.54 116.78 373.8 114.86 374.02C130.09 371.16 145.31 368.32 160.57 365.67L206.37 357.74C214.07 356.56 221.86 355.9 229.69 355.99C233.6 356.05 237.51 356.28 241.41 356.78C245.3 357.27 249.18 357.99 252.98 359.04C256.78 360.09 260.52 361.45 264.08 363.22C267.64 364.99 271.02 367.19 274.05 369.85C277.06 372.52 279.71 375.66 281.7 379.21C282.65 380.87 283.45 382.61 284.11 384.41Z" fill="#E6E6E6"/>
<path d="M278.14 384.77L274.27 385.01C274.23 384.95 274.18 384.89 274.13 384.84C272.89 383.35 271.52 381.95 270.04 380.67C267.07 378.12 263.71 376 260.13 374.3C256.55 372.6 252.77 371.28 248.91 370.28C241.17 368.28 233.09 367.51 225.04 367.49C216.97 367.49 208.9 368.26 200.91 369.58C184.85 372.21 168.81 374.94 152.72 377.38L146.68 378.28L143.66 378.73L140.64 379.15C136.61 379.71 132.58 380.25 128.54 380.79C124.51 381.31 120.46 381.79 116.42 382.24C114.4 382.47 112.37 382.66 110.34 382.85C108.31 383.03 106.28 383.21 104.25 383.31C108.29 382.85 112.31 382.24 116.34 381.65C118.35 381.36 120.36 381.04 122.37 380.73L128.39 379.79C132.41 379.16 136.42 378.52 140.43 377.86L152.47 375.91C168.52 373.28 184.58 370.67 200.59 367.81C208.63 366.35 216.79 365.42 225 365.29C233.2 365.17 241.47 365.81 249.52 367.74C253.54 368.71 257.51 370.01 261.3 371.74C265.1 373.47 268.72 375.66 271.97 378.35C273.59 379.7 275.12 381.18 276.51 382.79C277.06 383.43 277.6 384.1 278.1 384.78L278.14 384.77Z" fill="#E6E6E6"/>
<path d="M268.65 385.34L263.78 385.64C262.27 384.7 260.7 383.85 259.09 383.07C255.58 381.39 251.86 380.1 248.07 379.12C244.27 378.14 240.38 377.46 236.46 377.03C232.54 376.59 228.58 376.4 224.62 376.4C216.7 376.4 208.77 377.18 200.92 378.49C185.17 381.22 169.4 384.01 153.56 386.28C151.58 386.58 149.6 386.83 147.62 387.1C145.64 387.36 143.66 387.65 141.67 387.87L135.71 388.56C133.72 388.78 131.73 388.97 129.74 389.18C125.76 389.58 121.76 389.86 117.76 390.09L114.76 390.22L111.76 390.28C109.76 390.28 107.75 390.3 105.76 390.04C106.76 390.12 107.76 390.09 108.75 390.08C109.25 390.08 109.75 390.05 110.25 390.03C110.75 390.01 111.25 389.99 111.75 389.96L114.74 389.75L117.73 389.49C118.73 389.41 119.72 389.29 120.71 389.19C121.7 389.08 122.7 389 123.69 388.87L126.66 388.51C127.65 388.39 128.64 388.29 129.63 388.15C131.61 387.89 133.59 387.65 135.57 387.38L141.5 386.54L147.43 385.67C149.41 385.38 151.38 385.1 153.35 384.78C161.24 383.54 169.13 382.29 177.01 380.93C184.89 379.62 192.74 378.12 200.61 376.68C208.51 375.22 216.54 374.3 224.61 374.16C228.64 374.09 232.69 374.22 236.72 374.6C240.75 374.98 244.77 375.6 248.72 376.55C252.67 377.51 256.57 378.78 260.31 380.49C263.22 381.83 266.05 383.43 268.66 385.33L268.65 385.34Z" fill="#E6E6E6"/>
<path d="M506.6 397.31V411.01L313.83 402.79C313.83 402.79 306.22 411.01 293.73 411.01C281.24 411.01 273.63 402.79 273.63 402.79L80.86 411.01V397.31L98.11 395.69L275.42 383.31H312.04L489.35 395.69L506.6 397.31Z" fill="#FF8E64"/>
<path d="M506.6 406.45V411.01L313.83 402.79C313.83 402.79 306.22 411.01 293.73 411.01C281.24 411.01 273.63 402.79 273.63 402.79L80.86 411.01V407.31L275.9 392.58C275.9 392.58 280.38 403.11 293.74 403.11C307.1 403.11 310.86 392.58 310.86 392.58L506.61 406.45H506.6Z" fill="#FF773A"/>
<path d="M489.35 395.68L312.04 383.3H275.42L98.11 395.68L80.86 397.3V411L273.63 402.78C273.63 402.78 281.24 411 293.73 411C306.22 411 313.83 402.78 313.83 402.78L506.6 411V397.3L489.35 395.68Z" stroke="#3A3836" stroke-width="2" stroke-linecap="round" stroke-linejoin="round"/>
<g opacity="0.8">
<path d="M326.84 266.96H309.14L300.29 282.29L309.14 297.61H326.84L335.69 282.29L326.84 266.96Z" fill="#FF8E64"/>
<path d="M275.91 292.84H266.96L262.49 300.59L266.96 308.33H275.91L280.38 300.59L275.91 292.84Z" fill="#FF8E64"/>
<path d="M296.58 328.95H290.63L287.66 334.11L290.63 339.26H296.58L299.55 334.11L296.58 328.95Z" fill="#FF8E64"/>
</g>
<path d="M386.52 279.8L382.12 281.23L386.52 282.66L387.95 287.06L389.39 282.66L393.79 281.23L389.39 279.8L387.95 275.4L386.52 279.8Z" fill="white" stroke="#3A3836" stroke-width="2" stroke-linecap="round" stroke-linejoin="round"/>
<path d="M59.52 123.42L67.7 126.09L59.52 128.77L56.84 136.95L54.18 128.77L46 126.09L54.18 123.42L56.84 115.24L59.52 123.42Z" fill="white" stroke="#3A3836" stroke-width="2" stroke-miterlimit="10"/>
<path d="M524.608 173.76L532.788 176.43L524.608 179.11L521.928 187.29L519.268 179.11L511.088 176.43L519.268 173.76L521.928 165.58L524.608 173.76Z" fill="white" stroke="#3A3836" stroke-width="2" stroke-miterlimit="10"/>
<path d="M313.4 82.18L321.58 84.85L313.4 87.53L310.72 95.71L308.06 87.53L299.88 84.85L308.06 82.18L310.72 74L313.4 82.18Z" fill="white" stroke="#3A3836" stroke-width="2" stroke-miterlimit="10"/>
<path d="M452.068 132.36C462.318 132.36 470.628 124.05 470.628 113.8C470.628 103.55 462.318 95.2402 452.068 95.2402C441.818 95.2402 433.508 103.55 433.508 113.8C433.508 124.05 441.818 132.36 452.068 132.36Z" fill="#FFDE83"/>
<path d="M467.408 101.72C473.698 99.1997 478.178 98.3297 479.018 99.7897C480.468 102.3 470.478 110.79 456.698 118.74C442.918 126.69 430.598 131.11 429.138 128.59C428.418 127.34 430.548 124.6 434.588 121.16" stroke="#3A3836" stroke-width="2" stroke-linecap="round" stroke-linejoin="round"/>
<path d="M132.134 281C157.899 281 178.786 260.113 178.786 234.348C178.786 208.583 157.899 187.696 132.134 187.696C106.369 187.696 85.4822 208.583 85.4822 234.348C85.4822 260.113 106.369 281 132.134 281Z" fill="#3A3836"/>
<path d="M127.652 279.304C153.417 279.304 174.304 258.417 174.304 232.652C174.304 206.887 153.417 186 127.652 186C101.887 186 81 206.887 81 232.652C81 258.417 101.887 279.304 127.652 279.304Z" fill="white" stroke="#3A3836" stroke-width="2" stroke-linecap="round" stroke-linejoin="round"/>
<path d="M301.134 215C326.899 215 347.786 194.113 347.786 168.348C347.786 142.583 326.899 121.696 301.134 121.696C275.369 121.696 254.482 142.583 254.482 168.348C254.482 194.113 275.369 215 301.134 215Z" fill="#3A3836"/>
<path d="M296.652 213.304C322.417 213.304 343.304 192.417 343.304 166.652C343.304 140.887 322.417 120 296.652 120C270.887 120 250 140.887 250 166.652C250 192.417 270.887 213.304 296.652 213.304Z" fill="white" stroke="#3A3836" stroke-width="2" stroke-linecap="round" stroke-linejoin="round"/>
<path d="M460.134 280C485.899 280 506.786 259.113 506.786 233.348C506.786 207.583 485.899 186.696 460.134 186.696C434.369 186.696 413.482 207.583 413.482 233.348C413.482 259.113 434.369 280 460.134 280Z" fill="#3A3836"/>
<path d="M455.652 278.304C481.417 278.304 502.304 257.417 502.304 231.652C502.304 205.887 481.417 185 455.652 185C429.887 185 409 205.887 409 231.652C409 257.417 429.887 278.304 455.652 278.304Z" fill="white" stroke="#3A3836" stroke-width="2" stroke-linecap="round" stroke-linejoin="round"/>
<path d="M296.698 175.931C300.693 175.931 303.931 172.692 303.931 168.698C303.931 164.703 300.693 161.464 296.698 161.464C292.703 161.464 289.464 164.703 289.464 168.698C289.464 172.692 292.703 175.931 296.698 175.931Z" fill="url(#paint1_linear_32_8074)"/>
<path d="M296.698 175.931C300.693 175.931 303.931 172.692 303.931 168.698C303.931 164.703 300.693 161.464 296.698 161.464C292.703 161.464 289.464 164.703 289.464 168.698C289.464 172.692 292.703 175.931 296.698 175.931Z" stroke="#212121" stroke-width="2" stroke-linecap="round" stroke-linejoin="round"/>
<path d="M288.675 180.817C282.05 176.39 280.258 167.417 284.696 160.792C289.123 154.167 298.095 152.375 304.721 156.813C311.346 161.24 313.138 170.213 308.7 176.838C307.644 178.417 306.289 179.772 304.721 180.817" stroke="#212121" stroke-width="2" stroke-linecap="round" stroke-linejoin="round"/>
<path d="M285.122 187.058C274.987 180.657 271.957 167.268 278.348 157.122C284.738 146.987 298.138 143.957 308.273 150.348C318.408 156.738 321.449 170.138 315.058 180.273C313.33 183.015 311.015 185.33 308.273 187.058" stroke="#212121" stroke-width="2" stroke-linecap="round" stroke-linejoin="round"/>
<path d="M303.846 187.997L296.698 178.715L289.55 187.997H303.846Z" fill="url(#paint2_linear_32_8074)"/>
<path d="M303.846 187.997L296.698 178.715L289.55 187.997H303.846Z" stroke="#212121" stroke-width="2" stroke-linecap="round" stroke-linejoin="round"/>
<path d="M137.1 216H147C148.7 216 150 217.3 150 219V252C150 253.7 148.7 255 147 255H108C106.3 255 105 253.7 105 252V219C105 217.3 106.3 216 108 216H117.9" stroke="#3A3836" stroke-width="2" stroke-linecap="round" stroke-linejoin="round"/>
<path d="M137.8 222H144V249L131.6 232.4C129.4 235.1 127.5 237 127.5 237C127.5 237 125.6 235.1 123.4 232.4L111 249V222H117.2C118.3 225.5 121 229.5 123.4 232.4C125.6 235.1 127.5 237 127.5 237C127.5 237 129.4 235.1 131.6 232.4C134.2 229.3 137.1 225.2 137.8 222Z" fill="url(#paint3_linear_32_8074)"/>
<path d="M123.4 232.4C121 229.4 118.2 225.5 117.2 222H111V249L123.4 232.4ZM123.4 232.4C125.6 235.1 127.5 237 127.5 237C127.5 237 129.4 235.1 131.6 232.4M131.6 232.4C134.2 229.3 137.1 225.2 137.7 222H143.9V249L131.6 232.4Z" stroke="#3A3836" stroke-width="2" stroke-linecap="round" stroke-linejoin="round"/>
<path d="M127.5 237L123.4 232.4L111 249H144L132 232.5L127.5 237Z" stroke="#3A3836" stroke-width="2" stroke-linecap="round" stroke-linejoin="round"/>
<path d="M144 249L131.6 232.4" stroke="#3A3836" stroke-width="2" stroke-linecap="round" stroke-linejoin="round"/>
<path d="M138 220.2C138 226.5 127.5 237 127.5 237C127.5 237 117 226.5 117 220.2C117 213.7 122.4 210 127.5 210C132.6 210 138 213.8 138 220.2Z" stroke="#3A3836" stroke-width="2" stroke-linecap="round" stroke-linejoin="round"/>
<path d="M127.5 223.5C129.2 223.5 130.5 222.2 130.5 220.5C130.5 218.8 129.2 217.5 127.5 217.5C125.8 217.5 124.5 218.8 124.5 220.5C124.5 222.2 125.8 223.5 127.5 223.5Z" stroke="#3A3836" stroke-width="2" stroke-linecap="round" stroke-linejoin="round"/>
<path d="M127.5 249V244.5" stroke="#3A3836" stroke-width="2" stroke-linecap="round" stroke-linejoin="round"/>
<path d="M444.364 240.037C449.535 240.037 453.727 235.858 453.727 230.702C453.727 225.546 449.535 221.367 444.364 221.367C439.192 221.367 435 225.546 435 230.702C435 235.858 439.192 240.037 444.364 240.037Z" fill="url(#paint4_linear_32_8074)"/>
<path d="M444.364 240.037C449.535 240.037 453.727 235.858 453.727 230.702C453.727 225.546 449.535 221.367 444.364 221.367C439.192 221.367 435 225.546 435 230.702C435 235.858 439.192 240.037 444.364 240.037Z" stroke="#3A3836" stroke-width="2" stroke-linecap="round" stroke-linejoin="round"/>
<path d="M462.17 241.364L456.978 236.172" stroke="#3A3836" stroke-width="2" stroke-linecap="round" stroke-linejoin="round"/>
<path d="M462.17 220.598L456.978 225.79" stroke="#3A3836" stroke-width="2" stroke-linecap="round" stroke-linejoin="round"/>
<path d="M468.404 247.535H473.034" stroke="#3A3836" stroke-width="2" stroke-linecap="round" stroke-linejoin="round"/>
<path d="M472.389 217.256L469.89 213.375" stroke="#3A3836" stroke-width="2" stroke-linecap="round" stroke-linejoin="round"/>
<path d="M444.249 233.527V228.199" stroke="#3A3836" stroke-width="2" stroke-linecap="round" stroke-linejoin="round"/>
<path d="M470.961 221.906C474.536 221.906 477.434 219.017 477.434 215.453C477.434 211.889 474.536 209 470.961 209C467.386 209 464.488 211.889 464.488 215.453C464.488 219.017 467.386 221.906 470.961 221.906Z" stroke="#3A3836" stroke-width="2" stroke-linecap="round" stroke-linejoin="round"/>
<path d="M470.719 254C474.294 254 477.192 251.111 477.192 247.547C477.192 243.983 474.294 241.094 470.719 241.094C467.144 241.094 464.246 243.983 464.246 247.547C464.246 251.111 467.144 254 470.719 254Z" stroke="#3A3836" stroke-width="2" stroke-linecap="round" stroke-linejoin="round"/>
<defs>
<linearGradient id="paint0_linear_32_8074" x1="293.86" y1="1066.28" x2="293.86" y2="167.47" gradientUnits="userSpaceOnUse">
<stop stop-color="#FF773A"/>
<stop offset="0.27" stop-color="#FF773A" stop-opacity="0.97"/>
<stop offset="0.6" stop-color="#FF773A" stop-opacity="0.9"/>
<stop offset="0.64" stop-color="#FF7938" stop-opacity="0.87"/>
<stop offset="0.69" stop-color="#FF7F35" stop-opacity="0.78"/>
<stop offset="0.77" stop-color="#FF8A2F" stop-opacity="0.63"/>
<stop offset="0.85" stop-color="#FF9926" stop-opacity="0.43"/>
<stop offset="0.94" stop-color="#FFAC1C" stop-opacity="0.18"/>
<stop offset="1" stop-color="#FFBA15" stop-opacity="0"/>
</linearGradient>
<linearGradient id="paint1_linear_32_8074" x1="296.698" y1="161.464" x2="296.698" y2="175.931" gradientUnits="userSpaceOnUse">
<stop stop-color="#FF6C37"/>
<stop offset="1" stop-color="#FFB400"/>
</linearGradient>
<linearGradient id="paint2_linear_32_8074" x1="296.698" y1="178.715" x2="296.698" y2="187.997" gradientUnits="userSpaceOnUse">
<stop stop-color="#FF6C37"/>
<stop offset="1" stop-color="#FFB400"/>
</linearGradient>
<linearGradient id="paint3_linear_32_8074" x1="127.5" y1="222" x2="127.5" y2="249" gradientUnits="userSpaceOnUse">
<stop stop-color="#FF6C37"/>
<stop offset="1" stop-color="#FFB400"/>
</linearGradient>
<linearGradient id="paint4_linear_32_8074" x1="444.364" y1="221.367" x2="444.364" y2="240.037" gradientUnits="userSpaceOnUse">
<stop stop-color="#FF6C37"/>
<stop offset="1" stop-color="#FFB400"/>
</linearGradient>
</defs>
</svg>
