<svg width="560" height="420" viewBox="0 0 560 420" fill="none" xmlns="http://www.w3.org/2000/svg">
<g clip-path="url(#clip0_1530_2339)">
<path d="M448.04 168.12C489.66 168.12 523.4 134.38 523.4 92.76C523.4 51.1398 489.66 17.4 448.04 17.4C406.42 17.4 372.68 51.1398 372.68 92.76C372.68 134.38 406.42 168.12 448.04 168.12Z" fill="#FFDE83"/>
<path d="M172.05 387.67H94.29V407.87H172.05V387.67Z" fill="white"/>
<path d="M285.83 356.12C370.435 356.12 439.02 287.534 439.02 202.93C439.02 118.325 370.435 49.74 285.83 49.74C201.226 49.74 132.64 118.325 132.64 202.93C132.64 287.534 201.226 356.12 285.83 356.12Z" fill="#E5E5E4"/>
<path d="M385.42 128.42C397.151 128.42 406.66 118.911 406.66 107.18C406.66 95.4495 397.151 85.94 385.42 85.94C373.69 85.94 364.18 95.4495 364.18 107.18C364.18 118.911 373.69 128.42 385.42 128.42Z" fill="#AFCAE9"/>
<path d="M363.35 105.55C355.46 109.6 352.49 112.96 353.39 116.36C354.32 119.76 360.61 121.31 369.45 120.87C374.92 120.59 381.36 119.56 388.09 117.75C394.84 115.95 400.93 113.6 405.8 111.12C413.66 107.07 418.33 102.61 417.43 99.21C416.53 95.81 413.81 94.19 404.97 94.63" stroke="#3A3836" stroke-width="2" stroke-linecap="round" stroke-linejoin="round"/>
<path d="M175.69 135.32C189.188 135.32 200.13 124.378 200.13 110.88C200.13 97.3822 189.188 86.44 175.69 86.44C162.192 86.44 151.25 97.3822 151.25 110.88C151.25 124.378 162.192 135.32 175.69 135.32Z" fill="#F48780"/>
<path d="M229.48 376.02C251.074 376.02 268.58 358.514 268.58 336.92C268.58 315.326 251.074 297.82 229.48 297.82C207.886 297.82 190.38 315.326 190.38 336.92C190.38 358.514 207.886 376.02 229.48 376.02Z" fill="#ABD9BC"/>
<path d="M160.78 89.74C163.955 89.74 166.53 87.1656 166.53 83.99C166.53 80.8144 163.955 78.24 160.78 78.24C157.604 78.24 155.03 80.8144 155.03 83.99C155.03 87.1656 157.604 89.74 160.78 89.74Z" stroke="#3A3836" stroke-width="2" stroke-linecap="round" stroke-linejoin="round"/>
<path d="M508.5 369.38L512.81 370.78L508.5 372.18L507.1 376.49L505.7 372.18L501.39 370.78L505.7 369.38L507.1 365.07L508.5 369.38Z" fill="#3A3836"/>
<path d="M268.14 278.42L272.45 279.82L268.14 281.22L266.74 285.53L265.34 281.22L261.03 279.82L265.34 278.42L266.74 274.11L268.14 278.42Z" fill="white"/>
<path d="M197.86 170L202.17 171.4L197.86 172.8L196.46 177.11L195.06 172.8L190.75 171.4L195.06 170L196.46 165.69L197.86 170Z" fill="white"/>
<path d="M378 159.26L382.31 160.66L378 162.06L376.6 166.37L375.2 162.06L370.89 160.66L375.2 159.26L376.6 154.95L378 159.26Z" fill="white"/>
<path d="M42.11 246.83L46.42 248.23L42.11 249.63L40.71 253.94L39.31 249.63L35 248.23L39.31 246.83L40.71 242.52L42.11 246.83Z" fill="#3A3836"/>
<path d="M515.46 217.68L521.58 220.4L515.32 222.84L512.57 228.97L510.16 222.73L504.04 220.01L510.3 217.56L513.05 211.44L515.46 217.68Z" fill="white" stroke="#3A3836" stroke-width="2" stroke-miterlimit="10"/>
<path d="M69.2598 69.61L75.3798 72.33L69.1198 74.77L66.3698 80.9L63.9498 74.66L57.8398 71.94L64.0998 69.49L66.8498 63.36L69.2598 69.61Z" fill="white" stroke="#3A3836" stroke-width="2" stroke-miterlimit="10"/>
<path d="M285.83 356.12C370.435 356.12 439.02 287.534 439.02 202.93C439.02 118.325 370.435 49.74 285.83 49.74C201.226 49.74 132.64 118.325 132.64 202.93C132.64 287.534 201.226 356.12 285.83 356.12Z" stroke="#3A3836" stroke-width="2" stroke-linecap="round" stroke-linejoin="round"/>
<path d="M285.82 12C180.38 12 94.8999 97.47 94.8999 202.92C94.8999 308.37 180.39 393.84 285.82 393.84C391.25 393.84 476.74 308.37 476.74 202.92C476.74 97.47 391.27 12 285.82 12ZM285.82 356.12C201.22 356.12 132.63 287.54 132.63 202.93C132.63 118.32 201.23 49.73 285.82 49.73C370.41 49.73 439.01 118.31 439.01 202.92C439.01 287.53 370.43 356.11 285.82 356.11V356.12Z" fill="white" stroke="#3A3836" stroke-width="2" stroke-linecap="round" stroke-linejoin="round"/>
<path d="M285.83 169.38L256.77 186.15V219.7L285.83 236.48L314.88 219.7V186.15L285.83 169.38Z" fill="url(#paint0_linear_1530_2339)" fill-opacity="0.7" stroke="#3A3836" stroke-width="2" stroke-miterlimit="10"/>
<path d="M285.83 183.36L268.88 193.14V212.71L285.83 222.5L302.77 212.71V193.14L285.83 183.36Z" fill="url(#paint1_linear_1530_2339)" fill-opacity="0.7" stroke="#3A3836" stroke-width="2" stroke-miterlimit="10"/>
<path d="M285.83 155.48V146.18" stroke="#3A3836" stroke-width="2" stroke-linecap="round" stroke-linejoin="round"/>
<path d="M248.92 174.69L242.34 168.11" stroke="#3A3836" stroke-width="2" stroke-linecap="round" stroke-linejoin="round"/>
<path d="M322.74 174.69L329.31 168.11" stroke="#3A3836" stroke-width="2" stroke-linecap="round" stroke-linejoin="round"/>
<path d="M281.51 36.16C284.685 36.16 287.26 33.5856 287.26 30.41C287.26 27.2343 284.685 24.66 281.51 24.66C278.334 24.66 275.76 27.2343 275.76 30.41C275.76 33.5856 278.334 36.16 281.51 36.16Z" stroke="#3A3836" stroke-width="2" stroke-linecap="round" stroke-linejoin="round"/>
<path d="M290.15 381.2C293.326 381.2 295.9 378.626 295.9 375.45C295.9 372.274 293.326 369.7 290.15 369.7C286.974 369.7 284.4 372.274 284.4 375.45C284.4 378.626 286.974 381.2 290.15 381.2Z" stroke="#3A3836" stroke-width="2" stroke-linecap="round" stroke-linejoin="round"/>
<path d="M458.35 204.35C461.526 204.35 464.1 201.776 464.1 198.6C464.1 195.424 461.526 192.85 458.35 192.85C455.174 192.85 452.6 195.424 452.6 198.6C452.6 201.776 455.174 204.35 458.35 204.35Z" stroke="#3A3836" stroke-width="2" stroke-linecap="round" stroke-linejoin="round"/>
<path d="M404.76 83.63C407.935 83.63 410.51 81.0556 410.51 77.88C410.51 74.7044 407.935 72.13 404.76 72.13C401.584 72.13 399.01 74.7044 399.01 77.88C399.01 81.0556 401.584 83.63 404.76 83.63Z" stroke="#3A3836" stroke-width="2" stroke-linecap="round" stroke-linejoin="round"/>
<path d="M165.76 83.63C168.935 83.63 171.51 81.0556 171.51 77.88C171.51 74.7044 168.935 72.13 165.76 72.13C162.584 72.13 160.01 74.7044 160.01 77.88C160.01 81.0556 162.584 83.63 165.76 83.63Z" stroke="#3A3836" stroke-width="2" stroke-linecap="round" stroke-linejoin="round"/>
<path d="M319.15 321C318.8 321.62 318.5 322.27 318.23 322.93C318.48 322.21 318.78 321.55 319.15 321Z" fill="white" stroke="#3A3836" stroke-width="2" stroke-linecap="round" stroke-linejoin="round"/>
<path d="M320.94 340.97C320.85 340.85 320.77 340.72 320.68 340.59C319.82 339.31 319.12 338.12 318.75 337.21C318.68 337.04 318.62 336.86 318.56 336.69C318.77 337.17 319.02 337.65 319.29 338.12L320.94 340.97Z" fill="white" stroke="#3A3836" stroke-width="2" stroke-linecap="round" stroke-linejoin="round"/>
<path d="M461.65 309.41L449.44 308.42L443.42 290.34C441.63 284.92 435.77 281.98 430.35 283.78L374.72 302.3C369.3 304.11 366.37 309.95 368.18 315.38L377.61 343.7L373.33 347.71L370.67 350.19C369.58 351.21 368.5 352.12 367.41 352.93C357.57 360.29 347.64 359.46 336.82 354.4C330.43 351.42 324.93 346.77 320.94 340.97L319.29 338.12C319.02 337.65 318.77 337.17 318.56 336.69C317.02 332.56 316.69 328.05 317.93 323.82C317.97 323.7 318 323.57 318.04 323.45C318.1 323.28 318.16 323.1 318.23 322.93C318.5 322.27 318.8 321.62 319.15 321C319.17 320.96 319.2 320.91 319.23 320.87C320.68 318.28 322.83 316.04 325.57 314.45C328.29 312.87 331.27 312.12 334.22 312.12C340.14 312.12 345.92 315.14 349.14 320.55C352.52 304.13 356.89 297.7 371.37 292.88L416.03 274.44C427.22 271.46 435.77 268.55 444.03 274.57C437.4 267.58 438.41 256.04 446.53 250.85C447.43 250.27 448.4 249.77 449.43 249.37C451.42 248.6 453.46 248.23 455.46 248.23C462.4 248.23 468.91 252.63 471.2 259.66L480.41 287.97C484.33 300.02 474.34 309.41 461.65 309.41Z" fill="white" stroke="#3A3836" stroke-width="2" stroke-linecap="round" stroke-linejoin="round"/>
<path d="M318.56 336.69C316.57 332.42 316.49 327.65 318.04 323.45C318 323.57 317.97 323.7 317.93 323.82C316.69 328.05 317.02 332.56 318.56 336.69Z" fill="white" stroke="#3A3836" stroke-width="2" stroke-linecap="round" stroke-linejoin="round"/>
<path d="M378.52 294.07L381.31 297.38C381.31 297.38 411.87 290.81 418.81 286.14L414.2 278.57C414.2 278.57 400.1 292.8 378.52 294.07Z" fill="#E4E4E4"/>
<path d="M382.59 299.69C381.12 297.24 379.21 294.93 377.52 293.07" stroke="#3A3836" stroke-width="2" stroke-linecap="round" stroke-linejoin="round"/>
<path d="M413.2 277.58C414.71 280.11 416.72 283.85 418.17 287.85" stroke="#3A3836" stroke-width="2" stroke-linecap="round" stroke-linejoin="round"/>
<path d="M329.86 252.75L322.21 261L322.48 264.19L324.8 269.64L326.67 271.56L335.23 270.48L342.89 264.73L329.86 252.75Z" fill="white"/>
<path d="M428.67 230.26L436.13 223.33L436.99 221.08L434.58 216.16L431.98 212.5L428.05 211.91L418.68 213.91L428.67 230.26Z" fill="white"/>
<path d="M348.58 193.44C352.529 193.44 355.73 190.239 355.73 186.29C355.73 182.341 352.529 179.14 348.58 179.14C344.631 179.14 341.43 182.341 341.43 186.29C341.43 190.239 344.631 193.44 348.58 193.44Z" fill="#FF8853" stroke="#3A3836" stroke-width="2" stroke-miterlimit="10"/>
<path d="M352.56 192.51L355.26 197.16" stroke="#3A3836" stroke-width="2" stroke-linecap="round" stroke-linejoin="round"/>
<path d="M419.03 276.44C411.55 285.37 401.03 291.86 388.67 294.18C383.83 295.08 379.03 295.3 374.36 294.89C351.6 292.88 332.01 276 327.58 252.44C323.75 232.04 332.32 212.18 347.98 200.63C351.5 198.02 355.39 195.86 359.57 194.19C362.67 192.95 365.93 192 369.34 191.35C397.73 186.01 425.08 204.71 430.43 233.09C433.44 249.13 428.79 264.85 419.04 276.43L419.03 276.44Z" fill="white" stroke="#3A3836" stroke-width="2" stroke-linecap="round" stroke-linejoin="round"/>
<path d="M422.75 212.79L430.84 211.9C432.14 211.93 433.34 212.79 433.89 214.08L436.42 220C437.03 221.44 436.69 223.07 435.59 223.99L430.21 228.49" stroke="#3A3836" stroke-width="2" stroke-linecap="round" stroke-linejoin="round"/>
<path d="M327.5 254.85L322.81 260.01C321.94 260.97 321.73 262.43 322.28 263.72L324.81 269.64C325.42 271.08 326.84 271.96 328.26 271.8L335.23 271.03" stroke="#3A3836" stroke-width="2" stroke-linecap="round" stroke-linejoin="round"/>
<path d="M94.5103 392.79V313.38C94.5103 313.38 96.8103 295.43 117.72 288.79C128.87 296.62 143.02 300.12 157.46 297.41C159.18 297.09 160.87 296.69 162.51 296.2L165.65 299.54C179.82 301.55 185.71 306.28 190.02 318.76C190.02 318.76 194.46 331.1 194.46 331.11C194.24 330.49 196.2 328.79 196.56 328.38C199.92 324.56 203.31 320.6 208.21 318.75C213.39 316.79 219.65 318.32 223.78 321.87C226.58 324.28 228.63 327.77 229.25 331.49C229.98 335.93 228.19 339.78 225.43 343.13C217.28 353.01 209 365.05 195.33 366.89C189.77 367.64 184.1 366.44 179.49 363.21C178.39 362.44 177.34 361.56 176.42 360.58C175.95 360.08 175.71 359.77 175.71 359.77L175.84 399.36" fill="white"/>
<path d="M94.5103 392.79V313.38C94.5103 313.38 96.8103 295.43 117.72 288.79C128.87 296.62 143.02 300.12 157.46 297.41C159.18 297.09 160.87 296.69 162.51 296.2L165.65 299.54C179.82 301.55 185.71 306.28 190.02 318.76C190.02 318.76 194.46 331.1 194.46 331.11C194.24 330.49 196.2 328.79 196.56 328.38C199.92 324.56 203.31 320.6 208.21 318.75C213.39 316.79 219.65 318.32 223.78 321.87C226.58 324.28 228.63 327.77 229.25 331.49C229.98 335.93 228.19 339.78 225.43 343.13C217.28 353.01 209 365.05 195.33 366.89C189.77 367.64 184.1 366.44 179.49 363.21C178.39 362.44 177.34 361.56 176.42 360.58C175.95 360.08 175.71 359.77 175.71 359.77L175.84 399.36" stroke="#3A3836" stroke-width="2" stroke-linecap="round" stroke-linejoin="round"/>
<path d="M229.47 334.07C229.45 332.72 229.27 331.37 228.91 330.07C229.34 331.37 229.52 332.73 229.47 334.07Z" fill="white" stroke="#3A3836" stroke-width="2" stroke-linecap="round" stroke-linejoin="round"/>
<path d="M94.5103 407.37V392.79L146.09 391.29C151.39 391.14 155.57 386.71 155.42 381.41" fill="white"/>
<path d="M94.5103 407.37V392.79L146.09 391.29C151.39 391.14 155.57 386.71 155.42 381.41" stroke="#3A3836" stroke-width="2" stroke-linecap="round" stroke-linejoin="round"/>
<path d="M175.69 359.78C169.06 353.23 163.41 347.18 158.54 341.52" stroke="#3A3836" stroke-width="2" stroke-linecap="round" stroke-linejoin="round"/>
<path d="M175.85 368.02C175.85 368.02 163.64 363.98 158.3 356" stroke="#3A3836" stroke-width="2" stroke-linecap="round" stroke-linejoin="round"/>
<path d="M195.22 333.51L194.13 330.07" stroke="#3A3836" stroke-width="2" stroke-linecap="round" stroke-linejoin="round"/>
<path d="M158.05 386.97C158.01 392.74 153.3 397.38 147.53 397.34L91.4602 396.93L88.3502 396.9C82.5902 396.85 77.9402 392.14 77.9802 386.37L78.4702 321.03C78.5102 315.26 83.2102 310.62 88.9902 310.66L94.5902 310.69L148.17 311.09C153.94 311.13 158.58 315.84 158.54 321.61L158.05 386.96V386.97Z" fill="white" stroke="#3A3836" stroke-width="2" stroke-miterlimit="10"/>
<path d="M100.87 311.67L100.73 330.38C100.72 332.03 101.03 333.68 101.65 335.21C102.27 336.74 103.19 338.14 104.35 339.32C105.51 340.5 106.89 341.44 108.42 342.08C109.94 342.72 111.58 343.06 113.24 343.07L157.53 343.4" stroke="#3A3836" stroke-width="2" stroke-linecap="round" stroke-linejoin="round"/>
<path d="M157.71 352.42L147.46 352.34C145.52 352.33 143.93 354.34 143.91 356.96C143.89 359.52 145.44 361.61 147.39 361.62L157.64 361.7" stroke="#3A3836" stroke-width="2" stroke-linecap="round" stroke-linejoin="round"/>
<path d="M157.57 370.11L101.83 369.7C99.8905 369.69 98.3005 371.75 98.2805 374.32C98.2605 376.88 99.8105 378.97 101.76 378.98L157.5 379.39" stroke="#3A3836" stroke-width="2" stroke-linecap="round" stroke-linejoin="round"/>
<path d="M120.73 360.91C118.26 360.89 116.27 358.87 116.29 356.4C116.31 353.93 118.33 351.94 120.8 351.96C123.27 351.98 125.26 354 125.24 356.47C125.22 358.94 123.2 360.93 120.73 360.91Z" fill="#FF8853" stroke="#3A3836" stroke-width="2" stroke-miterlimit="10"/>
<path d="M134.27 361.01C131.8 360.99 129.81 358.97 129.83 356.5C129.85 354.03 131.87 352.04 134.34 352.06C136.81 352.08 138.8 354.1 138.78 356.57C138.76 359.04 136.74 361.03 134.27 361.01Z" fill="#FF8853" stroke="#3A3836" stroke-width="2" stroke-miterlimit="10"/>
<path d="M462.15 361.45C460.95 362.97 459.3 364.19 457.31 364.84L401.68 383.34C396.26 385.15 390.4 382.22 388.61 376.8L377.6 343.71L368.17 315.39C366.36 309.96 369.29 304.11 374.71 302.31L430.34 283.79C435.76 281.98 441.62 284.93 443.41 290.35L451.76 315.42L463.85 351.76C465 355.19 464.24 358.81 462.15 361.45Z" fill="white" stroke="#3A3836" stroke-width="2" stroke-miterlimit="10"/>
<path d="M386.17 299.46L392.02 317.05C392.54 318.61 393.35 320.04 394.43 321.28C395.5 322.52 396.81 323.54 398.28 324.27C399.75 325 401.34 325.44 402.98 325.56C404.61 325.68 406.26 325.47 407.81 324.95L449.44 311.1" stroke="#3A3836" stroke-width="2" stroke-linecap="round" stroke-linejoin="round"/>
<path d="M452.491 319.49L442.861 322.7C441.031 323.31 440.191 325.7 441.011 328.16C441.811 330.57 443.931 332.03 445.761 331.42L455.391 328.21" stroke="#3A3836" stroke-width="2" stroke-linecap="round" stroke-linejoin="round"/>
<path d="M458.02 336.11L405.63 353.54C403.8 354.15 402.98 356.59 403.78 359C404.58 361.41 406.7 362.87 408.53 362.26L460.92 344.83" stroke="#3A3836" stroke-width="2" stroke-linecap="round" stroke-linejoin="round"/>
<path d="M420.541 339.27C418.221 340.04 415.71 338.79 414.94 336.46C414.17 334.14 415.42 331.63 417.75 330.86C420.07 330.09 422.581 331.34 423.351 333.67C424.121 336 422.87 338.5 420.55 339.27H420.541Z" fill="#FF8853" stroke="#3A3836" stroke-width="2" stroke-miterlimit="10"/>
<path d="M433.27 335.03C430.95 335.8 428.44 334.55 427.67 332.22C426.9 329.9 428.15 327.39 430.48 326.62C432.81 325.85 435.31 327.1 436.08 329.43C436.85 331.75 435.6 334.26 433.28 335.03H433.27Z" fill="#FF8853" stroke="#3A3836" stroke-width="2" stroke-miterlimit="10"/>
<path d="M147.8 310.64C147.8 310.64 150.48 300.45 165.65 298.31" stroke="#3A3836" stroke-width="2" stroke-linecap="round" stroke-linejoin="round"/>
<path d="M124.92 293.98C124.92 293.98 121.03 295.37 119.25 296.3C119.25 296.3 129.69 307.61 136.68 306.14C136.68 306.14 138.81 300.18 142.93 299.17C142.93 299.17 135.16 300.02 124.92 293.97V293.98Z" fill="#E4E4E4"/>
<path d="M106.14 309.97C106.14 309.97 110.4 295.88 126.48 294.36" stroke="#3A3836" stroke-width="2" stroke-linecap="round" stroke-linejoin="round"/>
<path d="M389.39 397.85L373.32 347.73L377.6 343.72L388.61 376.81C390.4 382.23 396.26 385.16 401.68 383.35L457.31 364.85C459.3 364.19 460.95 362.98 462.15 361.46L466.68 374.6" fill="white"/>
<path d="M389.39 397.85L373.32 347.73L377.6 343.72L388.61 376.81C390.4 382.23 396.26 385.16 401.68 383.35L457.31 364.85C459.3 364.19 460.95 362.98 462.15 361.46L466.68 374.6" stroke="#3A3836" stroke-width="2" stroke-linecap="round" stroke-linejoin="round"/>
<path d="M349.37 319.4L348.3 324.83" stroke="#3A3836" stroke-width="2" stroke-linecap="round" stroke-linejoin="round"/>
<path d="M380.76 353.18C379.33 354.79 377.81 356.23 376.61 357.28" stroke="#3A3836" stroke-width="2" stroke-linecap="round" stroke-linejoin="round"/>
<path d="M421.98 273.19C423.48 275.58 427.22 281.45 428.04 284.56" stroke="#3A3836" stroke-width="2" stroke-linecap="round" stroke-linejoin="round"/>
<path d="M372.92 303.11C371.17 300.37 368.39 295.98 366.91 294.66" stroke="#3A3836" stroke-width="2" stroke-linecap="round" stroke-linejoin="round"/>
<path d="M444.03 274.55L453.04 278.34" stroke="#3A3836" stroke-width="2" stroke-linecap="round" stroke-linejoin="round"/>
<path d="M134.82 310.89C134.82 310.89 134.82 304.05 144.98 298.23" stroke="#3A3836" stroke-width="2" stroke-linecap="round" stroke-linejoin="round"/>
<path d="M159.68 302.42C158.04 302.91 156.35 303.31 154.63 303.63C140.19 306.34 126.04 302.84 114.89 295.01C104.12 287.45 96.1704 275.84 93.5504 261.87C89.5604 240.62 99.0204 219.96 115.94 208.67C121.63 204.86 128.16 202.13 135.31 200.79C163.71 195.46 191.05 214.15 196.4 242.55C201.41 269.22 185.23 294.98 159.69 302.42H159.68Z" fill="white" stroke="#3A3836" stroke-width="2" stroke-linecap="round" stroke-linejoin="round"/>
<path d="M108.89 204.81C112.839 204.81 116.04 201.609 116.04 197.66C116.04 193.711 112.839 190.51 108.89 190.51C104.941 190.51 101.74 193.711 101.74 197.66C101.74 201.609 104.941 204.81 108.89 204.81Z" fill="#FF8853" stroke="#3A3836" stroke-width="2" stroke-miterlimit="10"/>
<path d="M136.061 269.24C141.042 269.24 145.081 265.202 145.081 260.22C145.081 255.238 141.042 251.2 136.061 251.2C131.079 251.2 127.041 255.238 127.041 260.22C127.041 265.202 131.079 269.24 136.061 269.24Z" stroke="#3A3836" stroke-width="2" stroke-linecap="round" stroke-linejoin="round"/>
<path d="M112.831 204.19L115.931 208.67" stroke="#3A3836" stroke-width="2" stroke-linecap="round" stroke-linejoin="round"/>
<path d="M190.62 226.66C153.73 233.56 153.31 247.56 156.14 264.18C157.99 275.16 167.85 285.44 180.88 290.24" stroke="#3A3836" stroke-width="2" stroke-linecap="round" stroke-linejoin="round"/>
</g>
<defs>
<linearGradient id="paint0_linear_1530_2339" x1="256.843" y1="202.931" x2="314.898" y2="202.931" gradientUnits="userSpaceOnUse">
<stop stop-color="#FF7002"/>
<stop offset="0.2957" stop-color="#FE7304"/>
<stop offset="0.4996" stop-color="#FC7C0A"/>
<stop offset="0.6759" stop-color="#F88B15"/>
<stop offset="0.8364" stop-color="#F3A125"/>
<stop offset="0.9849" stop-color="#ECBD39"/>
<stop offset="1" stop-color="#EBC03B"/>
</linearGradient>
<linearGradient id="paint1_linear_1530_2339" x1="268.922" y1="202.931" x2="302.78" y2="202.931" gradientUnits="userSpaceOnUse">
<stop stop-color="#FF7002"/>
<stop offset="0.2957" stop-color="#FE7304"/>
<stop offset="0.4996" stop-color="#FC7C0A"/>
<stop offset="0.6759" stop-color="#F88B15"/>
<stop offset="0.8364" stop-color="#F3A125"/>
<stop offset="0.9849" stop-color="#ECBD39"/>
<stop offset="1" stop-color="#EBC03B"/>
</linearGradient>
<clipPath id="clip0_1530_2339">
<rect width="489.18" height="397.37" fill="white" transform="translate(35 11)"/>
</clipPath>
</defs>
</svg>
