<svg width="534" height="459" viewBox="0 0 534 459" fill="none" xmlns="http://www.w3.org/2000/svg">
<rect x="98" y="25.6078" width="87" height="107" rx="9" stroke="#E6E6E6" stroke-width="2"/>
<rect x="222" y="25.6078" width="87" height="107" rx="9" stroke="#E6E6E6" stroke-width="2"/>
<line x1="267" y1="132.608" x2="267" y2="217.608" stroke="#E6E6E6" stroke-width="2"/>
<line x1="141.808" y1="133.197" x2="79.8079" y2="218.197" stroke="#E6E6E6" stroke-width="2"/>
<line x1="390.807" y1="132.017" x2="453.807" y2="218.017" stroke="#E6E6E6" stroke-width="2"/>
<rect x="391" y="218.608" width="125" height="154" rx="9" stroke="#E6E6E6" stroke-width="2"/>
<path d="M420.559 329.608V318.699H424.927C427.335 318.699 428.549 319.86 428.549 321.495C428.549 322.779 427.713 323.583 426.578 323.839V323.946C427.819 324.004 428.975 324.979 428.975 326.593C428.975 328.329 427.67 329.608 425.22 329.608H420.559ZM422.865 327.722H424.746C426.035 327.722 426.594 327.184 426.594 326.364C426.594 325.464 425.907 324.824 424.799 324.824H422.865V327.722ZM422.865 323.264H424.575C425.518 323.264 426.221 322.742 426.221 321.879C426.221 321.09 425.641 320.563 424.618 320.563H422.865V323.264ZM435.68 326.124V321.426H437.949V329.608H435.771V328.122H435.686C435.318 329.08 434.434 329.714 433.203 329.714C431.557 329.714 430.439 328.548 430.433 326.635V321.426H432.703V326.231C432.708 327.195 433.262 327.797 434.119 327.797C434.934 327.797 435.686 327.221 435.68 326.124ZM443.451 332.846C441.245 332.846 439.983 331.856 439.711 330.567L441.81 330.284C441.996 330.78 442.502 331.216 443.504 331.216C444.489 331.216 445.208 330.78 445.208 329.656V328.159H445.112C444.814 328.835 444.084 329.491 442.779 329.491C440.936 329.491 439.461 328.223 439.461 325.501C439.461 322.715 440.979 321.319 442.774 321.319C444.143 321.319 444.809 322.134 445.112 322.8H445.198V321.426H447.451V329.688C447.451 331.781 445.789 332.846 443.451 332.846ZM443.498 327.786C444.59 327.786 445.219 326.934 445.219 325.49C445.219 324.057 444.601 323.125 443.498 323.125C442.375 323.125 441.778 324.1 441.778 325.49C441.778 326.902 442.385 327.786 443.498 327.786ZM457.128 321.426V323.131H455.504V329.608H453.234V323.131H452.078V321.426H453.234V320.835C453.234 319.056 454.38 318.187 455.919 318.187C456.617 318.187 457.24 318.326 457.522 318.411L457.123 320.116C456.942 320.057 456.665 319.998 456.393 319.998C455.727 319.998 455.504 320.323 455.504 320.877V321.426H457.128ZM458.514 329.608V321.426H460.784V329.608H458.514ZM459.654 320.371C458.983 320.371 458.429 319.855 458.429 319.221C458.429 318.592 458.983 318.075 459.654 318.075C460.331 318.075 460.885 318.592 460.885 319.221C460.885 319.855 460.331 320.371 459.654 320.371ZM464.498 321.426L466 324.286L467.539 321.426H469.867L467.497 325.517L469.931 329.608H467.614L466 326.779L464.412 329.608H462.069L464.498 325.517L462.154 321.426H464.498ZM474.636 329.768C472.116 329.768 470.577 328.148 470.577 325.554C470.577 323.029 472.137 321.319 474.545 321.319C476.708 321.319 478.391 322.694 478.391 325.474V326.097H472.819V326.103C472.819 327.323 473.538 328.074 474.673 328.074C475.429 328.074 476.015 327.749 476.244 327.126L478.343 327.264C478.023 328.782 476.66 329.768 474.636 329.768ZM472.819 324.691H476.255C476.25 323.716 475.568 323.013 474.582 323.013C473.576 323.013 472.867 323.759 472.819 324.691ZM486.679 323.759L484.602 323.887C484.49 323.36 484.021 322.928 483.233 322.928C482.53 322.928 481.976 323.248 481.981 323.738C481.976 324.132 482.258 324.393 483.02 324.558L484.501 324.856C486.088 325.181 486.86 325.89 486.866 327.072C486.86 328.686 485.342 329.768 483.222 329.768C481.054 329.768 479.723 328.803 479.51 327.237L481.742 327.12C481.88 327.786 482.418 328.132 483.228 328.132C484.021 328.132 484.549 327.786 484.559 327.301C484.549 326.891 484.224 326.63 483.51 326.486L482.093 326.204C480.495 325.884 479.723 325.091 479.728 323.866C479.723 322.289 481.102 321.319 483.196 321.319C485.262 321.319 486.477 322.252 486.679 323.759ZM418.954 347.768C416.472 347.768 414.927 346.068 414.927 343.549C414.927 341.013 416.472 339.319 418.954 339.319C421.437 339.319 422.981 341.013 422.981 343.549C422.981 346.068 421.437 347.768 418.954 347.768ZM418.965 346.01C420.089 346.01 420.675 344.96 420.675 343.533C420.675 342.105 420.089 341.051 418.965 341.051C417.82 341.051 417.234 342.105 417.234 343.533C417.234 344.96 417.82 346.01 418.965 346.01ZM424.457 347.608V339.426H426.657V340.854H426.742C427.04 339.841 427.791 339.309 428.708 339.309C428.937 339.309 429.219 339.341 429.421 339.389V341.402C429.208 341.333 428.777 341.28 428.462 341.28C427.461 341.28 426.726 341.972 426.726 342.979V347.608H424.457ZM434.066 350.676V339.426H436.303V340.8H436.405C436.708 340.134 437.363 339.319 438.732 339.319C440.527 339.319 442.046 340.715 442.046 343.528C442.046 346.265 440.591 347.741 438.727 347.741C437.406 347.741 436.719 346.979 436.405 346.297H436.335V350.676H434.066ZM436.287 343.517C436.287 344.976 436.916 345.935 438.008 345.935C439.121 345.935 439.728 344.944 439.728 343.517C439.728 342.1 439.132 341.125 438.008 341.125C436.905 341.125 436.287 342.057 436.287 343.517ZM445.891 347.762C444.331 347.762 443.175 346.942 443.175 345.323C443.175 343.496 444.629 342.952 446.248 342.803C447.671 342.665 448.23 342.595 448.23 342.068V342.036C448.23 341.365 447.788 340.976 447.015 340.976C446.2 340.976 445.716 341.376 445.561 341.919L443.462 341.748C443.777 340.257 445.066 339.319 447.026 339.319C448.848 339.319 450.499 340.14 450.499 342.089V347.608H448.347V346.473H448.283C447.884 347.235 447.101 347.762 445.891 347.762ZM446.541 346.196C447.537 346.196 448.246 345.541 448.246 344.683V343.815C447.974 343.996 447.165 344.113 446.669 344.183C445.87 344.295 445.343 344.609 445.343 345.248C445.343 345.871 445.844 346.196 446.541 346.196ZM456.611 339.426V341.131H455.072V345.094C455.072 345.722 455.386 345.893 455.839 345.893C456.052 345.893 456.292 345.839 456.404 345.818L456.761 347.507C456.532 347.581 456.116 347.698 455.53 347.72C453.884 347.789 452.792 346.995 452.803 345.392V341.131H451.684V339.426H452.803V337.466H455.072V339.426H456.611ZM461.698 347.768C459.179 347.768 457.671 346.036 457.671 343.549C457.671 341.04 459.206 339.319 461.688 339.319C463.824 339.319 465.257 340.561 465.353 342.452H463.211C463.089 341.637 462.556 341.088 461.725 341.088C460.67 341.088 459.978 341.972 459.978 343.517C459.978 345.083 460.665 345.972 461.725 345.972C462.503 345.972 463.078 345.482 463.211 344.609H465.353C465.246 346.489 463.877 347.768 461.698 347.768ZM469.075 342.878V347.608H466.805V336.699H469.011V340.87H469.107C469.479 339.905 470.31 339.319 471.552 339.319C473.256 339.319 474.385 340.481 474.38 342.398V347.608H472.111V342.803C472.116 341.796 471.573 341.205 470.651 341.205C469.724 341.205 469.08 341.823 469.075 342.878ZM479.894 347.768C477.375 347.768 475.836 346.148 475.836 343.554C475.836 341.029 477.396 339.319 479.804 339.319C481.967 339.319 483.65 340.694 483.65 343.474V344.097H478.078V344.103C478.078 345.323 478.797 346.074 479.932 346.074C480.688 346.074 481.274 345.749 481.503 345.126L483.602 345.264C483.282 346.782 481.919 347.768 479.894 347.768ZM478.078 342.691H481.514C481.508 341.716 480.827 341.013 479.841 341.013C478.834 341.013 478.126 341.759 478.078 342.691ZM491.938 341.759L489.861 341.887C489.749 341.36 489.28 340.928 488.492 340.928C487.789 340.928 487.235 341.248 487.24 341.738C487.235 342.132 487.517 342.393 488.279 342.558L489.76 342.856C491.347 343.181 492.119 343.89 492.125 345.072C492.119 346.686 490.601 347.768 488.481 347.768C486.313 347.768 484.981 346.803 484.768 345.237L487 345.12C487.139 345.786 487.677 346.132 488.486 346.132C489.28 346.132 489.807 345.786 489.818 345.301C489.807 344.891 489.483 344.63 488.769 344.486L487.352 344.204C485.754 343.884 484.981 343.091 484.987 341.866C484.981 340.289 486.361 339.319 488.455 339.319C490.521 339.319 491.736 340.252 491.938 341.759Z" fill="#3A3836"/>
<path d="M431.5 277.108H437.5" stroke="#6B6B6B" stroke-width="1.5" stroke-linecap="round" stroke-linejoin="round"/>
<path d="M437.5 259.108L442.5 264.108" stroke="#6B6B6B" stroke-width="1.5" stroke-linecap="round" stroke-linejoin="round"/>
<path d="M470.5 259.108L465.5 264.108" stroke="#6B6B6B" stroke-width="1.5" stroke-linecap="round" stroke-linejoin="round"/>
<path d="M436 296.608L441.5 291.108" stroke="#6B6B6B" stroke-width="1.5" stroke-linecap="round" stroke-linejoin="round"/>
<path d="M472 296.608L466.5 291.108" stroke="#6B6B6B" stroke-width="1.5" stroke-linecap="round" stroke-linejoin="round"/>
<path d="M470.5 277.108H476.5" stroke="#6B6B6B" stroke-width="1.5" stroke-linecap="round" stroke-linejoin="round"/>
<path d="M448.6 256.708L445 253.108" stroke="#6B6B6B" stroke-width="1.5" stroke-linecap="round" stroke-linejoin="round"/>
<path d="M459.4 256.708L463 253.108" stroke="#6B6B6B" stroke-width="1.5" stroke-linecap="round" stroke-linejoin="round"/>
<path d="M461.5 260.608C466.9 263.908 470.5 270.608 470.5 278.308C470.5 289.208 463.1 298.108 454 298.108C444.9 298.108 437.5 289.208 437.5 278.308C437.5 270.608 441.2 263.908 446.5 260.608" stroke="#6B6B6B" stroke-width="1.5" stroke-linecap="round" stroke-linejoin="round"/>
<path d="M448 274.108C449.7 274.108 451 272.808 451 271.108C451 269.408 449.7 268.108 448 268.108C446.3 268.108 445 269.408 445 271.108C445 272.808 446.3 274.108 448 274.108Z" fill="url(#paint0_linear_274_2422)" stroke="#6B6B6B" stroke-width="1.5" stroke-linecap="round" stroke-linejoin="round"/>
<path d="M460 274.108C461.7 274.108 463 272.808 463 271.108C463 269.408 461.7 268.108 460 268.108C458.3 268.108 457 269.408 457 271.108C457 272.808 458.3 274.108 460 274.108Z" fill="url(#paint1_linear_274_2422)" stroke="#6B6B6B" stroke-width="1.5" stroke-linecap="round" stroke-linejoin="round"/>
<path d="M447.2 287.608C449.3 287.608 451 285.908 451 283.808C451 281.708 449.3 280.008 447.2 280.008C445.1 280.008 443.4 281.708 443.4 283.808C443.4 285.908 445.2 287.608 447.2 287.608Z" fill="url(#paint2_linear_274_2422)" stroke="#6B6B6B" stroke-width="1.5" stroke-linecap="round" stroke-linejoin="round"/>
<path d="M460.8 287.608C462.9 287.608 464.6 285.908 464.6 283.808C464.6 281.708 462.9 280.008 460.8 280.008C458.7 280.008 457 281.808 457 283.808C457 285.808 458.7 287.608 460.8 287.608Z" fill="url(#paint3_linear_274_2422)" stroke="#6B6B6B" stroke-width="1.5" stroke-linecap="round" stroke-linejoin="round"/>
<path d="M454 254.608C450.1 254.608 446.9 257.308 446.4 260.908C446.4 260.908 450.2 263.608 454 263.608C457.8 263.608 461.6 260.908 461.6 260.908C461.1 257.308 457.9 254.608 454 254.608Z" fill="url(#paint4_linear_274_2422)" stroke="#6B6B6B" stroke-width="1.5" stroke-linecap="round" stroke-linejoin="round"/>
<rect x="17" y="218.608" width="125" height="154" rx="9" stroke="#E6E6E6" stroke-width="2"/>
<path d="M31.4032 318.699H34.2477L37.252 326.028H37.3798L40.3841 318.699H43.2285V329.608H40.9913V322.507H40.9007L38.0776 329.555H36.5542L33.731 322.481H33.6404V329.608H31.4032V318.699ZM47.4193 329.762C45.8586 329.762 44.7027 328.942 44.7027 327.323C44.7027 325.496 46.1569 324.952 47.7762 324.803C49.1984 324.665 49.7577 324.595 49.7577 324.068V324.036C49.7577 323.365 49.3156 322.976 48.5432 322.976C47.7282 322.976 47.2435 323.376 47.089 323.919L44.9903 323.748C45.3046 322.257 46.5937 321.319 48.5539 321.319C50.3756 321.319 52.0269 322.14 52.0269 324.089V329.608H49.8749V328.473H49.811C49.4115 329.235 48.6285 329.762 47.4193 329.762ZM48.0692 328.196C49.0653 328.196 49.7737 327.541 49.7737 326.683V325.815C49.502 325.996 48.6924 326.113 48.197 326.183C47.398 326.295 46.8706 326.609 46.8706 327.248C46.8706 327.871 47.3714 328.196 48.0692 328.196ZM53.7874 321.426H56.0566V330.013C56.0566 331.909 54.8847 332.676 52.9564 332.676C52.7966 332.676 52.6634 332.671 52.4983 332.665V330.892C52.6155 330.902 52.7007 330.902 52.7966 330.902C53.5264 330.902 53.7874 330.593 53.7874 329.975V321.426ZM54.9166 320.371C54.2455 320.371 53.6915 319.855 53.6915 319.221C53.6915 318.592 54.2455 318.075 54.9166 318.075C55.5931 318.075 56.1471 318.592 56.1471 319.221C56.1471 319.855 55.5931 320.371 54.9166 320.371ZM61.571 329.768C59.0888 329.768 57.544 328.068 57.544 325.549C57.544 323.013 59.0888 321.319 61.571 321.319C64.0533 321.319 65.598 323.013 65.598 325.549C65.598 328.068 64.0533 329.768 61.571 329.768ZM61.5817 328.01C62.7056 328.01 63.2915 326.96 63.2915 325.533C63.2915 324.105 62.7056 323.051 61.5817 323.051C60.4364 323.051 59.8505 324.105 59.8505 325.533C59.8505 326.96 60.4364 328.01 61.5817 328.01ZM67.0735 329.608V321.426H69.2734V322.854H69.3587C69.657 321.841 70.408 321.309 71.3242 321.309C71.5533 321.309 71.8356 321.341 72.038 321.389V323.402C71.8249 323.333 71.3935 323.28 71.0792 323.28C70.0778 323.28 69.3427 323.972 69.3427 324.979V329.608H67.0735ZM81.9297 326.124V321.426H84.1989V329.608H82.0202V328.122H81.935C81.5675 329.08 80.6832 329.714 79.4528 329.714C77.8068 329.714 76.6882 328.548 76.6829 326.635V321.426H78.9521V326.231C78.9574 327.195 79.5114 327.797 80.369 327.797C81.1839 327.797 81.935 327.221 81.9297 326.124ZM86.0139 332.676V321.426H88.2512V322.8H88.3524C88.656 322.134 89.3112 321.319 90.6801 321.319C92.4752 321.319 93.9933 322.715 93.9933 325.528C93.9933 328.265 92.5392 329.741 90.6748 329.741C89.3538 329.741 88.6666 328.979 88.3524 328.297H88.2831V332.676H86.0139ZM88.2352 325.517C88.2352 326.976 88.8637 327.935 89.9557 327.935C91.069 327.935 91.6762 326.944 91.6762 325.517C91.6762 324.1 91.0796 323.125 89.9557 323.125C88.8531 323.125 88.2352 324.057 88.2352 325.517ZM98.521 329.741C96.6567 329.741 95.2025 328.265 95.2025 325.528C95.2025 322.715 96.7206 321.319 98.5157 321.319C99.8847 321.319 100.54 322.134 100.843 322.8H100.913V318.699H103.177V329.608H100.939V328.297H100.843C100.529 328.979 99.8421 329.741 98.521 329.741ZM99.2401 327.935C100.332 327.935 100.961 326.976 100.961 325.517C100.961 324.057 100.343 323.125 99.2401 323.125C98.1162 323.125 97.5196 324.1 97.5196 325.517C97.5196 326.944 98.1269 327.935 99.2401 327.935ZM107.375 329.762C105.815 329.762 104.659 328.942 104.659 327.323C104.659 325.496 106.113 324.952 107.732 324.803C109.154 324.665 109.714 324.595 109.714 324.068V324.036C109.714 323.365 109.272 322.976 108.499 322.976C107.684 322.976 107.2 323.376 107.045 323.919L104.946 323.748C105.261 322.257 106.55 321.319 108.51 321.319C110.332 321.319 111.983 322.14 111.983 324.089V329.608H109.831V328.473H109.767C109.368 329.235 108.585 329.762 107.375 329.762ZM108.025 328.196C109.021 328.196 109.73 327.541 109.73 326.683V325.815C109.458 325.996 108.648 326.113 108.153 326.183C107.354 326.295 106.827 326.609 106.827 327.248C106.827 327.871 107.327 328.196 108.025 328.196ZM118.095 321.426V323.131H116.556V327.094C116.556 327.722 116.87 327.893 117.323 327.893C117.536 327.893 117.776 327.839 117.888 327.818L118.244 329.507C118.015 329.581 117.6 329.698 117.014 329.72C115.368 329.789 114.276 328.995 114.287 327.392V323.131H113.168V321.426H114.287V319.466H116.556V321.426H118.095ZM123.214 329.768C120.695 329.768 119.155 328.148 119.155 325.554C119.155 323.029 120.716 321.319 123.124 321.319C125.286 321.319 126.97 322.694 126.97 325.474V326.097H121.398V326.103C121.398 327.323 122.117 328.074 123.252 328.074C124.008 328.074 124.594 327.749 124.823 327.126L126.922 327.264C126.602 328.782 125.238 329.768 123.214 329.768ZM121.398 324.691H124.834C124.828 323.716 124.146 323.013 123.161 323.013C122.154 323.013 121.446 323.759 121.398 324.691Z" fill="#3A3836"/>
<path d="M92.4955 261.294L99.8474 264.324L92.4955 267.365L89.577 275.04L86.6808 267.365L79.3066 264.324L86.6808 261.294L89.577 253.608L92.4955 261.294Z" stroke="#6B6B6B" stroke-width="1.5" stroke-linecap="round" stroke-linejoin="round"/>
<path d="M76.7114 279.139L86.5919 283.205L76.7114 287.293L72.8015 297.608L68.9028 287.293L59 283.205L68.9028 279.139L72.8015 268.813L76.7114 279.139Z" fill="url(#paint5_linear_274_2422)" stroke="#6B6B6B" stroke-width="1.5" stroke-linecap="round" stroke-linejoin="round"/>
<path d="M444.126 63.6073L451.652 54.3543L466.287 67.9858L461.725 73.0299L455.069 78.8558L446.37 84.9665L437.44 88.5382L432.078 86.9597L428.134 81.51L428.328 74.9937L433.333 70.4999L444.126 63.6073Z" fill="white"/>
<path d="M465.045 69.461C465.045 69.461 455.413 80.1365 440.841 87.2306C436.351 89.4135 430.935 87.599 428.722 83.1194C426.612 78.8384 428.169 73.6262 432.327 71.2679C438.548 67.7307 447.048 61.9315 451.447 54.6594" stroke="#3A3836" stroke-width="2" stroke-linecap="round" stroke-linejoin="round"/>
<path d="M503.386 42.5698L497.101 32.1131C496.009 30.2867 493.651 29.6728 491.799 30.722L483.606 35.0162" fill="white"/>
<path d="M503.386 42.5698L497.101 32.1131C496.009 30.2867 493.651 29.6728 491.799 30.722L483.606 35.0162" stroke="#3A3836" stroke-width="2" stroke-linecap="round" stroke-linejoin="round"/>
<path d="M487.377 37.0884L503.159 42.616C503.159 42.616 521.168 50.2721 527.793 58.3012C527.793 58.3012 532.998 61.7334 529.247 68.6039C525.496 75.4743 517.336 69.5743 517.336 69.5743L514.583 67.48C514.583 67.48 522.37 76.8702 517.504 84.1043C512.638 91.3384 510.855 91.7413 505.735 93.8193C501.856 95.3961 497.161 96.7954 497.161 96.7954L509.113 112.665C509.113 112.665 513.562 119.315 506.53 124.507C499.5 129.69 492.955 120.07 492.955 120.07L481.753 107.912L481.573 125.884C481.573 125.884 480.258 133.397 470.832 131.726C470.832 131.726 464.459 130.663 464.865 122.43C465.262 114.196 462.03 103.029 463.129 97.1628C463.129 97.1628 462.418 87.3417 468.52 81.9996L472.96 78.3807L463.504 67.2031C463.504 67.2031 456.761 56.5164 452.312 54.945" fill="white"/>
<path d="M440.839 36.4819C440.839 36.4819 439.036 23.326 450.391 15.4073C461.746 7.48862 472.742 12.7262 472.742 12.7262C472.742 12.7262 484.497 16.6972 486.954 29.561L487.587 32.8668" fill="white"/>
<path d="M481.109 49.9252C481.109 49.9252 481.042 61.755 497.877 60.9989C497.877 60.9989 479.971 55.3953 490.085 37.9107L487.454 36.8451C487.454 36.8451 484.74 48.0302 481.109 49.9252Z" fill="#E3E8F8"/>
<path d="M461.667 57.3724C474.479 58.741 485.975 49.4643 487.343 36.6524C488.712 23.8404 479.435 12.3449 466.623 10.9763C453.811 9.60778 442.316 18.8845 440.947 31.6964C439.579 44.5083 448.855 56.0038 461.667 57.3724Z" fill="white" stroke="#3A3836" stroke-width="2" stroke-linecap="round" stroke-linejoin="round"/>
<path d="M475.926 28.9562C475.183 30.7373 473.141 31.5852 471.35 30.8408C469.569 30.0974 468.721 28.0558 469.466 26.2647C470.21 24.4737 472.251 23.6357 474.042 24.3801C475.823 25.1235 476.671 27.1651 475.926 28.9562Z" stroke="#3A3836" stroke-width="2" stroke-linecap="round" stroke-linejoin="round"/>
<path d="M462.116 4.78255C462.041 6.61494 460.492 8.02842 458.67 7.95443C456.837 7.87938 455.424 6.33048 455.498 4.50803C455.572 2.68558 457.122 1.26216 458.944 1.33615C460.767 1.41014 462.19 2.96009 462.116 4.78255Z" fill="#FC8653" stroke="#3A3836" stroke-width="2" stroke-miterlimit="10"/>
<path d="M459.667 7.83975L460.324 11.1985" stroke="#3A3836" stroke-width="2" stroke-miterlimit="10"/>
<path d="M487.432 37.054C487.432 37.054 512.076 43.317 528.376 58.5847C531.191 61.2286 531.647 65.5314 529.382 68.6585C526.893 72.0936 522.077 72.8362 518.677 70.3007C514.114 66.8868 505.374 62.564 494.525 59.4339" stroke="#3A3836" stroke-width="2" stroke-linecap="round" stroke-linejoin="round"/>
<path d="M490.193 38.1234C490.193 38.1234 481.222 50.4603 494.46 59.3768" stroke="#3A3836" stroke-width="2" stroke-linecap="round" stroke-linejoin="round"/>
<path d="M498.832 61.0004L495.34 61.1201C490.242 61.2997 485.357 58.7363 482.833 54.3032C482.02 52.8787 481.483 51.7855 481.486 50.2472" stroke="#3A3836" stroke-width="2" stroke-linecap="round" stroke-linejoin="round"/>
<path d="M459.484 57.1895C459.484 57.1895 459.626 61.6095 465.422 69.3892" stroke="#3A3836" stroke-width="0.92" stroke-linecap="round" stroke-linejoin="round"/>
<path d="M454.421 55.5424C454.421 55.5424 455.76 66.6374 465.056 69.34" stroke="#3A3836" stroke-width="0.92" stroke-linecap="round" stroke-linejoin="round"/>
<path d="M459.354 56.3408C464.128 52.2246 463.852 44.0792 458.743 38.143C453.625 32.2058 445.938 30.4494 441.154 34.5645" stroke="#3A3836" stroke-width="2" stroke-linecap="round" stroke-linejoin="round"/>
<path d="M479.334 64.4464L481.752 63.3137C482.027 63.1848 482.146 62.8573 482.017 62.5823L480.188 58.6794C480.059 58.4043 479.732 58.2858 479.457 58.4146L477.039 59.5474C476.764 59.6762 476.645 60.0037 476.774 60.2788L478.603 64.1817C478.732 64.4567 479.059 64.5753 479.334 64.4464Z" fill="#F6D6CC" stroke="#3A3836" stroke-width="1.5" stroke-linecap="round" stroke-linejoin="round"/>
<g style="mix-blend-mode:multiply">
<path d="M479.162 52.0505C479.162 52.0505 470.178 62.3345 461.392 62.3011C461.392 62.3011 459.059 59.2862 459.795 56.8205C459.857 56.6159 459.801 57.1429 459.902 56.9525C459.902 56.9525 468.612 59.8641 479.162 52.0505Z" fill="#E4E4E4"/>
</g>
<path d="M465.401 69.397L467.813 71.9577L473.883 79.2437L471.062 80.5212C469.307 81.3193 467.732 82.5087 466.581 84.0553C465.021 86.1413 463.984 88.5951 463.603 91.2195C462.081 101.798 464.33 116.711 465.237 124.883C465.689 129.035 469.195 132.175 473.367 132.188C477.821 132.201 481.469 128.649 481.582 124.196L481.469 107.56" stroke="#3A3836" stroke-width="2" stroke-linecap="round" stroke-linejoin="round"/>
<path d="M495.457 78.2896C495.457 78.2896 476.835 77.9799 472.029 87.2822C468.29 94.5159 487.257 114.574 495.877 123.128C498.304 125.539 501.958 126.262 505.126 124.951C510.25 122.833 512.017 116.454 508.701 112.007L491.34 88.6811" stroke="#3A3836" stroke-width="2" stroke-linecap="round" stroke-linejoin="round"/>
<path d="M453.204 54.9799C453.204 54.9799 455.533 67.7294 464.374 69.3174L464.821 68.2388C464.821 68.2388 460.156 62.1992 459.912 56.9536L453.204 54.9799Z" fill="#E3E8F8" stroke="#3A3836" stroke-width="2" stroke-linecap="round" stroke-linejoin="round"/>
<path d="M515.013 68.1596L517.105 72.3052C517.952 73.9746 518.457 75.7482 518.64 77.5177C519.308 84.0657 515.244 90.1987 509.097 92.5693L498.04 96.849" stroke="#3A3836" stroke-width="2" stroke-linecap="round" stroke-linejoin="round"/>
<rect x="346" y="25.6078" width="87" height="107" rx="9" fill="white" stroke="#E6E6E6" stroke-width="2"/>
<path d="M12.854 74.5169L8.01314 87.6078H5.96768L1.12678 74.5169H3.30859L6.92223 84.9487H7.05859L10.6722 74.5169H12.854ZM20.5288 87.8805C16.7447 87.8805 14.4265 85.1873 14.4265 81.1646C14.4265 77.1419 16.7788 74.3464 20.3242 74.3464C23.0515 74.3464 25.9492 76.0169 25.9492 80.8919V81.7442H16.4464C16.5401 84.5481 18.168 86.0737 20.5288 86.0737C22.1055 86.0737 23.2901 85.3919 23.8015 84.0282L25.7447 84.5737C25.131 86.551 23.1879 87.8805 20.5288 87.8805ZM16.4464 80.0055H23.9038C23.9038 77.7896 22.506 76.1532 20.3242 76.1532C18.0231 76.1532 16.5827 77.9686 16.4464 80.0055ZM29.0089 87.6078V74.5169H30.9521V76.4942H31.0884C31.5657 75.1987 32.9293 74.3123 34.4975 74.3123C34.7958 74.3123 35.3242 74.3294 35.5543 74.3464V76.3919C35.418 76.3578 34.864 76.2555 34.3271 76.2555C32.418 76.2555 31.0202 77.551 31.0202 79.3237V87.6078H29.0089ZM47.2113 77.4487L45.4045 77.9601C45.055 77.0567 44.3306 76.0851 42.5749 76.0851C40.9727 76.0851 39.7795 76.9032 39.7795 78.0282C39.7795 79.0339 40.4783 79.5538 42.0295 79.9373L43.9727 80.4146C46.3079 80.9856 47.4499 82.1362 47.4499 83.9601C47.4499 86.2186 45.3789 87.8805 42.3363 87.8805C39.6602 87.8805 37.8278 86.6959 37.359 84.4714L39.2681 83.9942C39.6261 85.4004 40.6573 86.1078 42.3022 86.1078C44.1772 86.1078 45.3704 85.1873 45.3704 84.0623C45.3704 83.1589 44.7482 82.5282 43.4272 82.2214L41.2454 81.7101C38.842 81.1476 37.7681 79.9373 37.7681 78.1305C37.7681 75.9146 39.8136 74.3464 42.5749 74.3464C45.1658 74.3464 46.5806 75.5907 47.2113 77.4487ZM50.4776 87.6078V74.5169H52.489V87.6078H50.4776ZM51.5004 72.3351C50.7163 72.3351 50.0685 71.7214 50.0685 70.9714C50.0685 70.2214 50.7163 69.6078 51.5004 69.6078C52.2844 69.6078 52.9322 70.2214 52.9322 70.9714C52.9322 71.7214 52.2844 72.3351 51.5004 72.3351ZM61.4911 87.8805C57.9457 87.8805 55.5593 85.1873 55.5593 81.1305C55.5593 77.0396 57.9457 74.3464 61.4911 74.3464C65.0366 74.3464 67.4229 77.0396 67.4229 81.1305C67.4229 85.1873 65.0366 87.8805 61.4911 87.8805ZM61.4911 86.0737C64.1843 86.0737 65.4116 83.7555 65.4116 81.1305C65.4116 78.5055 64.1843 76.1532 61.4911 76.1532C58.7979 76.1532 57.5707 78.5055 57.5707 81.1305C57.5707 83.7555 58.7979 86.0737 61.4911 86.0737ZM72.5046 79.7328V87.6078H70.4933V74.5169H72.4364V76.5623H72.6069C73.2205 75.2328 74.4478 74.3464 76.4251 74.3464C79.0756 74.3464 80.8569 75.9487 80.8569 79.2896V87.6078H78.8455V79.426C78.8455 77.372 77.712 76.1532 75.8455 76.1532C73.9194 76.1532 72.5046 77.4487 72.5046 79.7328Z" fill="#3A3836"/>
<path d="M115.582 95.6192H128.366C128.878 101.517 134.264 104.96 141.219 104.96C148.616 104.96 154.003 101.006 154.003 94.1532C154.003 87.8123 149.366 82.6646 139.31 82.6646H132.389V73.5623L148.548 55.8351V55.3578H119.026V44.7896H164.503V53.926L145.753 74.1078V74.6532C159.594 75.8123 166.991 84.7442 166.991 94.801C166.991 107.04 156.048 115.562 141.116 115.562C126.764 115.562 116.128 107.79 115.582 95.6192Z" fill="#3A3836"/>
<path d="M242.392 114.608V105.471L266.631 81.7101C273.517 74.7214 277.062 70.5623 277.062 64.7328C277.062 58.1532 272.119 54.0964 265.472 54.0964C258.517 54.0964 254.017 58.5623 254.017 65.6873H241.983C241.983 52.426 251.801 43.8351 265.642 43.8351C279.688 43.8351 289.199 52.3919 289.199 64.0851C289.199 71.9601 285.449 78.301 271.881 91.3237L259.847 103.562V104.04H290.256V114.608H242.392Z" fill="#3A3836"/>
<path d="M401.04 44.7896V114.608H388.392V57.0964H387.983L371.653 67.5282V55.9373L389.006 44.7896H401.04Z" fill="#3A3836"/>
<path d="M203.021 115.358C198.862 115.358 195.487 112.017 195.521 107.858C195.487 103.767 198.862 100.426 203.021 100.426C207.044 100.426 210.487 103.767 210.521 107.858C210.487 112.017 207.044 115.358 203.021 115.358Z" fill="#3A3836"/>
<path d="M328.021 115.358C323.862 115.358 320.487 112.017 320.521 107.858C320.487 103.767 323.862 100.426 328.021 100.426C332.044 100.426 335.487 103.767 335.521 107.858C335.487 112.017 332.044 115.358 328.021 115.358Z" fill="#3A3836"/>
<rect x="204" y="218.608" width="125" height="154" rx="9" stroke="#E6E6E6" stroke-width="2"/>
<path d="M227.257 318.699V329.608H225.265L220.519 322.742H220.439V329.608H218.132V318.699H220.156L224.865 325.559H224.961V318.699H227.257ZM232.849 329.768C230.329 329.768 228.79 328.148 228.79 325.554C228.79 323.029 230.35 321.319 232.758 321.319C234.921 321.319 236.604 322.694 236.604 325.474V326.097H231.032V326.103C231.032 327.323 231.751 328.074 232.886 328.074C233.642 328.074 234.228 327.749 234.457 327.126L236.556 327.264C236.236 328.782 234.873 329.768 232.849 329.768ZM231.032 324.691H234.468C234.463 323.716 233.781 323.013 232.795 323.013C231.789 323.013 231.08 323.759 231.032 324.691ZM239.64 329.608L237.414 321.426H239.709L240.977 326.923H241.052L242.373 321.426H244.626L245.968 326.891H246.038L247.284 321.426H249.574L247.353 329.608H244.951L243.545 324.462H243.443L242.037 329.608H239.64ZM258.656 321.426V323.131H257.032V329.608H254.763V323.131H253.607V321.426H254.763V320.835C254.763 319.056 255.908 318.187 257.447 318.187C258.145 318.187 258.768 318.326 259.051 318.411L258.651 320.116C258.47 320.057 258.193 319.998 257.921 319.998C257.256 319.998 257.032 320.323 257.032 320.877V321.426H258.656ZM263.478 329.768C260.959 329.768 259.42 328.148 259.42 325.554C259.42 323.029 260.98 321.319 263.388 321.319C265.551 321.319 267.234 322.694 267.234 325.474V326.097H261.662V326.103C261.662 327.323 262.381 328.074 263.516 328.074C264.272 328.074 264.858 327.749 265.087 327.126L267.186 327.264C266.866 328.782 265.503 329.768 263.478 329.768ZM261.662 324.691H265.098C265.092 323.716 264.411 323.013 263.425 323.013C262.418 323.013 261.71 323.759 261.662 324.691ZM271.048 329.762C269.487 329.762 268.331 328.942 268.331 327.323C268.331 325.496 269.785 324.952 271.405 324.803C272.827 324.665 273.386 324.595 273.386 324.068V324.036C273.386 323.365 272.944 322.976 272.172 322.976C271.357 322.976 270.872 323.376 270.717 323.919L268.619 323.748C268.933 322.257 270.222 321.319 272.182 321.319C274.004 321.319 275.655 322.14 275.655 324.089V329.608H273.503V328.473H273.439C273.04 329.235 272.257 329.762 271.048 329.762ZM271.698 328.196C272.694 328.196 273.402 327.541 273.402 326.683V325.815C273.13 325.996 272.321 326.113 271.825 326.183C271.026 326.295 270.499 326.609 270.499 327.248C270.499 327.871 271 328.196 271.698 328.196ZM281.768 321.426V323.131H280.228V327.094C280.228 327.722 280.543 327.893 280.995 327.893C281.208 327.893 281.448 327.839 281.56 327.818L281.917 329.507C281.688 329.581 281.272 329.698 280.686 329.72C279.04 329.789 277.948 328.995 277.959 327.392V323.131H276.841V321.426H277.959V319.466H280.228V321.426H281.768ZM288.493 326.124V321.426H290.762V329.608H288.583V328.122H288.498C288.13 329.08 287.246 329.714 286.016 329.714C284.37 329.714 283.251 328.548 283.246 326.635V321.426H285.515V326.231C285.52 327.195 286.074 327.797 286.932 327.797C287.747 327.797 288.498 327.221 288.493 326.124ZM292.577 329.608V321.426H294.777V322.854H294.862C295.16 321.841 295.911 321.309 296.828 321.309C297.057 321.309 297.339 321.341 297.541 321.389V323.402C297.328 323.333 296.897 323.28 296.583 323.28C295.581 323.28 294.846 323.972 294.846 324.979V329.608H292.577ZM302.062 329.768C299.543 329.768 298.004 328.148 298.004 325.554C298.004 323.029 299.564 321.319 301.972 321.319C304.135 321.319 305.818 322.694 305.818 325.474V326.097H300.246V326.103C300.246 327.323 300.965 328.074 302.1 328.074C302.856 328.074 303.442 327.749 303.671 327.126L305.77 327.264C305.45 328.782 304.087 329.768 302.062 329.768ZM300.246 324.691H303.682C303.676 323.716 302.995 323.013 302.009 323.013C301.002 323.013 300.294 323.759 300.246 324.691ZM314.106 323.759L312.029 323.887C311.917 323.36 311.448 322.928 310.66 322.928C309.957 322.928 309.403 323.248 309.408 323.738C309.403 324.132 309.685 324.393 310.447 324.558L311.928 324.856C313.515 325.181 314.287 325.89 314.293 327.072C314.287 328.686 312.769 329.768 310.649 329.768C308.481 329.768 307.149 328.803 306.936 327.237L309.168 327.12C309.307 327.786 309.845 328.132 310.654 328.132C311.448 328.132 311.975 327.786 311.986 327.301C311.975 326.891 311.651 326.63 310.937 326.486L309.52 326.204C307.922 325.884 307.149 325.091 307.155 323.866C307.149 322.289 308.529 321.319 310.622 321.319C312.689 321.319 313.904 322.252 314.106 323.759Z" fill="#3A3836"/>
<path d="M279.629 279.615L284.195 276.977C284.905 276.571 285.818 276.47 286.63 276.673C287.441 276.876 288.152 277.485 288.558 278.195V278.296C288.963 279.007 289.065 279.818 288.963 280.529C288.862 281.34 288.456 282.051 287.847 282.558L279.324 289.762C278.817 290.168 278.208 290.472 277.599 290.675L261.467 294.328C260.959 294.429 260.35 294.429 259.742 294.328C259.234 294.226 258.626 294.023 258.22 293.719L248.175 286.921C247.464 286.414 246.653 286.211 245.841 286.211H243V273.223L250.407 272.31C251.726 272.107 253.045 272.31 254.263 272.817L259.945 274.948C260.452 275.151 260.959 275.252 261.568 275.354L272.323 277.18C273.135 277.282 273.947 277.586 274.555 278.296C275.164 278.905 275.469 279.818 275.469 280.63C275.469 281.543 275.164 282.355 274.555 282.964C273.947 283.572 273.135 283.978 272.323 284.08L260.756 284.892" stroke="#6B6B6B" stroke-width="1.5" stroke-miterlimit="10" stroke-linecap="square"/>
<path d="M283.17 257.608H270.172C269.612 257.608 269.158 258.062 269.158 258.622V271.62C269.158 272.18 269.612 272.635 270.172 272.635H283.17C283.73 272.635 284.185 272.18 284.185 271.62V258.622C284.185 258.062 283.73 257.608 283.17 257.608Z" fill="url(#paint6_linear_274_2422)"/>
<path d="M283.17 257.608H270.172C269.612 257.608 269.158 258.062 269.158 258.622V271.62C269.158 272.18 269.612 272.635 270.172 272.635H283.17C283.73 272.635 284.185 272.18 284.185 271.62V258.622C284.185 258.062 283.73 257.608 283.17 257.608Z" stroke="#6B6B6B" stroke-width="1.5" stroke-miterlimit="10" stroke-linecap="round"/>
<path d="M114.859 381.102C132.714 392.918 147.422 391.072 147.422 391.072L150.928 371.616C140.343 374.402 129.735 370.557 123.533 367.467C120.155 365.791 116.067 366.692 113.67 369.607C110.802 373.102 111.086 378.608 114.859 381.102Z" fill="white" stroke="#3A3836" stroke-width="2" stroke-linecap="round" stroke-linejoin="round"/>
<path d="M145.238 400.653C145.238 400.653 155.75 432.514 185.78 425.316L197.635 419.876L204.738 422.157L204.136 432.125C204.136 432.125 204.383 440.29 212.865 440.705C221.347 441.121 221.686 433.983 221.686 433.983L222.454 425.858L233.905 428.242C233.905 428.242 241.719 428.206 242.626 420.72C243.534 413.233 237.327 411.707 237.327 411.707L225.427 408.018C225.427 408.018 227.743 397.148 222.219 392.313C216.696 387.478 213.276 386.494 205.868 386.952L196.386 393.717L193.044 395.702L190.802 388.733C190.802 388.733 210.277 381.825 216.022 372.094C216.022 372.094 223.287 367.718 218.952 360.544C214.611 353.382 205.518 359.637 205.518 359.637C205.518 359.637 201.762 367.941 181.63 371.22L167.417 362.832L148.111 373.702L144.41 401.078L145.254 400.637L145.238 400.653Z" fill="white"/>
<path d="M185.083 370.854C185.083 370.854 193.682 371.051 207.845 357.802C207.845 357.802 216.044 353.756 219.311 361.394C219.311 361.394 223.299 366.902 214.776 374.041L170.105 386.769L169.875 377.998L173.927 371.081L185.08 370.844L185.083 370.854Z" fill="white"/>
<path d="M172.349 389.846L172.333 394.956C172.333 394.956 179.974 399.313 191.679 392.921L190.53 388.771C190.53 388.771 179.788 392.372 172.346 389.836L172.349 389.846Z" fill="#E3E8F8"/>
<path d="M170.272 378.962C183.368 374.571 190.426 360.396 186.036 347.299C181.645 334.203 167.47 327.145 154.373 331.535C141.277 335.926 134.219 350.101 138.609 363.198C143 376.294 157.175 383.352 170.272 378.962Z" fill="white" stroke="#3A3836" stroke-width="2" stroke-linecap="round" stroke-linejoin="round"/>
<path d="M163.091 366.287C164.385 364.672 164.121 362.313 162.497 361.022C160.882 359.729 158.523 359.992 157.233 361.616C155.939 363.231 156.202 365.59 157.827 366.881C159.442 368.174 161.8 367.911 163.091 366.287Z" stroke="#3A3836" stroke-width="2" stroke-linecap="round" stroke-linejoin="round"/>
<path d="M132 346.344C133.933 346.667 135.761 345.358 136.081 343.416C136.4 341.473 135.094 339.654 133.152 339.335C131.219 339.012 129.39 340.322 129.071 342.264C128.749 344.197 130.058 346.025 132 346.344Z" fill="#FC8653" stroke="#3A3836" stroke-width="2" stroke-miterlimit="10"/>
<path d="M135.75 344.444L139.13 345.874" stroke="#3A3836" stroke-width="2" stroke-miterlimit="10"/>
<path d="M185.974 364.002C177.959 363.017 172.468 356.222 172.509 347.942C172.527 343.093 174.299 339.101 177.698 336.167" stroke="#3A3836" stroke-width="2" stroke-linecap="round" stroke-linejoin="round"/>
<path d="M148.74 373.534C148.74 373.534 137.358 410.182 163.409 423.081C172.35 427.509 182.877 427.26 191.818 422.817C197.642 419.927 205.324 414.999 214.442 406.616" stroke="#3A3836" stroke-width="2" stroke-linecap="round" stroke-linejoin="round"/>
<path d="M197.625 419.879L204.729 422.16" stroke="#3A3836" stroke-width="2" stroke-linecap="round" stroke-linejoin="round"/>
<path d="M223.214 426.489L232.131 428.267C236.572 429.151 240.986 426.585 242.398 422.273C244.018 417.353 241.148 412.092 236.133 410.789L225.411 408.002" stroke="#3A3836" stroke-width="2" stroke-linecap="round" stroke-linejoin="round"/>
<path d="M141.711 372.388L164.994 371.808C168.666 371.748 171.617 374.45 171.677 377.931L172.203 408.478C172.26 412.013 169.324 415.054 165.593 415.314L143.575 415.86C139.79 416.116 136.636 413.409 136.532 409.826L134.75 379.31C134.64 375.613 137.822 372.458 141.721 372.385L141.711 372.388Z" fill="white" stroke="#3A3836" stroke-width="2" stroke-linecap="round" stroke-linejoin="round"/>
<path d="M143.378 372.294L143.831 382.014C143.936 384.246 145.785 385.989 148.011 385.96L171.74 385.198" stroke="#3A3836" stroke-width="2" stroke-linecap="round" stroke-linejoin="round"/>
<path d="M152.59 396.691C151.315 396.728 150.254 395.734 150.217 394.459C150.171 393.188 151.175 392.124 152.449 392.087C153.724 392.05 154.785 393.044 154.822 394.319C154.858 395.593 153.864 396.654 152.599 396.688L152.59 396.691Z" fill="#FC8653" stroke="#3A3836" stroke-width="2" stroke-miterlimit="10"/>
<path d="M159.55 396.467C158.275 396.504 157.214 395.51 157.177 394.236C157.131 392.964 158.135 391.9 159.409 391.863C160.683 391.826 161.745 392.821 161.781 394.095C161.818 395.369 160.824 396.43 159.559 396.464L159.55 396.467Z" fill="#FC8653" stroke="#3A3836" stroke-width="2" stroke-miterlimit="10"/>
<path d="M171.422 391.58L166.154 391.754C165.152 391.784 164.382 392.854 164.422 394.201C164.462 395.516 165.308 396.562 166.308 396.522L171.576 396.349" stroke="#3A3836" stroke-width="2" stroke-linecap="round" stroke-linejoin="round"/>
<path d="M143.266 406.851L171.87 405.437Z" fill="#E3E8F8"/>
<path d="M171.716 400.668L143.112 402.083C142.11 402.113 141.337 403.205 141.38 404.53C141.424 405.855 142.267 406.891 143.266 406.851L171.869 405.437" fill="#E3E8F8"/>
<path d="M171.716 400.668L143.112 402.083C142.11 402.113 141.337 403.205 141.38 404.53C141.424 405.855 142.267 406.891 143.266 406.851L171.869 405.437" stroke="#3A3836" stroke-width="2" stroke-linecap="round" stroke-linejoin="round"/>
<path d="M190.783 388.739C190.783 388.739 178.705 393.421 171.991 389.66" stroke="#3A3836" stroke-width="2" stroke-linecap="round" stroke-linejoin="round"/>
<path d="M191.875 393.161C191.875 393.161 178.828 398.854 172.127 395.099" stroke="#3A3836" stroke-width="2" stroke-linecap="round" stroke-linejoin="round"/>
<path d="M205.919 413.661L203.951 429.719C203.195 435.109 207.416 440.433 212.853 440.699L213.956 440.751C218.805 440.993 221.907 437.379 222.484 432.556L225.973 403.289C226.786 396.498 221.696 389.778 215.235 387.524L216.301 387.81C211.546 386.146 205.585 386.203 201.669 389.372L193.021 395.699L190.78 388.73C190.78 388.73 205.366 386.087 218.863 369.465C221.716 365.956 220.338 360.617 216.554 358.141C213.395 356.079 209.225 356.443 206.503 359.053C201.512 363.859 192.543 370.705 181.608 371.217" stroke="#3A3836" stroke-width="2" stroke-linecap="round" stroke-linejoin="round"/>
<g style="mix-blend-mode:multiply">
<path d="M188.612 358.29C188.612 358.29 190.045 367.566 185.083 370.854L181.614 371.236C181.614 371.236 185.83 367.987 188.612 358.29Z" fill="#E3E3E3"/>
</g>
<g style="mix-blend-mode:multiply">
<path d="M158.406 415.487C158.406 415.487 162.24 423.62 180.042 426.227C180.042 426.227 163.275 427.998 154.045 415.63L158.396 415.49L158.406 415.487Z" fill="#E3E3E3"/>
</g>
<path d="M524.671 393.641C524.643 393.654 524.618 393.673 524.598 393.696C524.578 393.719 524.562 393.745 524.552 393.774C524.542 393.803 524.538 393.834 524.54 393.864C524.542 393.894 524.55 393.924 524.564 393.951C524.624 394.072 524.648 394.207 524.633 394.34C524.618 394.474 524.563 394.6 524.477 394.704C524.44 394.751 524.423 394.811 524.429 394.871C524.436 394.931 524.466 394.986 524.512 395.024C524.559 395.063 524.619 395.081 524.679 395.077C524.74 395.072 524.796 395.044 524.836 394.999C524.98 394.826 525.071 394.616 525.096 394.393C525.122 394.17 525.082 393.945 524.981 393.744C524.954 393.69 524.905 393.649 524.847 393.629C524.789 393.61 524.726 393.614 524.671 393.641V393.641Z" fill="#BCBCBC"/>
<path d="M515.71 383.772C504.675 382.368 494.581 390.108 493.166 401.064C491.751 412.021 499.545 422.037 510.58 423.443C521.615 424.849 531.71 417.109 533.124 406.155C534.538 395.202 526.744 385.179 515.71 383.772ZM519.857 396.248C519.484 396.253 519.127 396.403 518.863 396.665L511.388 404.084L509.794 402.501C517.158 395.209 518.486 395.139 519.857 396.248ZM511.692 404.349L519.145 396.948C519.34 396.755 519.605 396.647 519.88 396.647C520.156 396.647 520.42 396.755 520.615 396.948C520.715 397.048 520.794 397.167 520.846 397.298C520.898 397.43 520.923 397.57 520.918 397.711C520.914 397.852 520.88 397.99 520.819 398.118C520.759 398.246 520.672 398.359 520.566 398.452L512.678 405.33L511.692 404.349ZM512.246 405.504L510.4 405.899C510.378 405.904 510.355 405.902 510.335 405.892C510.315 405.883 510.298 405.867 510.287 405.848C510.276 405.828 510.272 405.806 510.276 405.784C510.279 405.762 510.289 405.742 510.305 405.726L511.387 404.651L512.246 405.504ZM507.54 404.74L509.508 402.786L510.983 404.25L507.66 404.96C507.633 404.966 507.604 404.963 507.578 404.951C507.552 404.939 507.531 404.919 507.517 404.894C507.504 404.87 507.499 404.841 507.503 404.813C507.507 404.785 507.52 404.76 507.54 404.74ZM501.421 414.839C501.397 414.836 501.374 414.827 501.355 414.812C501.336 414.797 501.322 414.777 501.314 414.754C501.306 414.732 501.305 414.707 501.311 414.684C501.316 414.661 501.328 414.639 501.345 414.622L502.933 413.046L504.984 415.082L501.421 414.839ZM505.492 412.743C505.416 412.782 505.356 412.845 505.32 412.922C505.284 412.998 505.275 413.085 505.295 413.167L505.635 414.611C505.644 414.655 505.638 414.7 505.619 414.741C505.6 414.781 505.569 414.815 505.529 414.837C505.49 414.859 505.445 414.867 505.4 414.862C505.355 414.857 505.313 414.837 505.28 414.807L503.22 412.761L509.533 406.494L512.589 405.842L514.055 407.298C511.947 409.13 509.066 410.962 505.492 412.742V412.743ZM514.351 407.03L512.943 405.633L520.831 398.754C520.905 398.691 520.971 398.62 521.03 398.543C520.781 400.788 517.623 403.953 514.353 407.029L514.351 407.03ZM520.489 396.261C519.936 395.707 519.619 394.963 519.603 394.183C519.588 393.404 519.875 392.648 520.406 392.073C520.936 391.497 521.67 391.147 522.454 391.094C523.238 391.041 524.012 391.289 524.616 391.788L521.909 394.476C521.89 394.494 521.875 394.516 521.865 394.541C521.855 394.565 521.85 394.591 521.85 394.617C521.85 394.643 521.855 394.669 521.865 394.694C521.875 394.718 521.89 394.74 521.909 394.758L524.002 396.837C523.43 397.117 522.784 397.212 522.154 397.109C521.525 397.005 520.944 396.708 520.493 396.26L520.489 396.261ZM524.816 396.261C524.677 396.398 524.526 396.521 524.363 396.629L522.335 394.616L524.909 392.061C525.441 392.638 525.728 393.397 525.711 394.179C525.693 394.961 525.372 395.707 524.815 396.26L524.816 396.261Z" fill="#BCBCBC"/>
<defs>
<linearGradient id="paint0_linear_274_2422" x1="448" y1="268.108" x2="448" y2="274.108" gradientUnits="userSpaceOnUse">
<stop stop-color="#FF6C37"/>
<stop offset="1" stop-color="#FFB400"/>
</linearGradient>
<linearGradient id="paint1_linear_274_2422" x1="460" y1="268.108" x2="460" y2="274.108" gradientUnits="userSpaceOnUse">
<stop stop-color="#FF6C37"/>
<stop offset="1" stop-color="#FFB400"/>
</linearGradient>
<linearGradient id="paint2_linear_274_2422" x1="447.2" y1="280.008" x2="447.2" y2="287.608" gradientUnits="userSpaceOnUse">
<stop stop-color="#FF6C37"/>
<stop offset="1" stop-color="#FFB400"/>
</linearGradient>
<linearGradient id="paint3_linear_274_2422" x1="460.8" y1="280.008" x2="460.8" y2="287.608" gradientUnits="userSpaceOnUse">
<stop stop-color="#FF6C37"/>
<stop offset="1" stop-color="#FFB400"/>
</linearGradient>
<linearGradient id="paint4_linear_274_2422" x1="454" y1="254.608" x2="454" y2="263.608" gradientUnits="userSpaceOnUse">
<stop stop-color="#FF6C37"/>
<stop offset="1" stop-color="#FFB400"/>
</linearGradient>
<linearGradient id="paint5_linear_274_2422" x1="72.796" y1="268.813" x2="72.796" y2="297.608" gradientUnits="userSpaceOnUse">
<stop stop-color="#FF6C37"/>
<stop offset="1" stop-color="#FFB400"/>
</linearGradient>
<linearGradient id="paint6_linear_274_2422" x1="276.671" y1="257.608" x2="276.671" y2="272.635" gradientUnits="userSpaceOnUse">
<stop stop-color="#FF6C37"/>
<stop offset="1" stop-color="#FFB400"/>
</linearGradient>
</defs>
</svg>
