<svg width="601" height="271" viewBox="0 0 601 271" fill="none" xmlns="http://www.w3.org/2000/svg">
<rect x="1" y="1" width="98" height="219" rx="4" fill="white" stroke="#3A3836" stroke-width="2"/>
<rect x="126" y="1" width="98" height="219" rx="4" fill="white" stroke="#3A3836" stroke-width="2"/>
<rect x="251" y="1" width="98" height="219" rx="4" fill="white" stroke="#3A3836" stroke-width="2"/>
<rect x="376" y="1" width="98" height="219" rx="4" fill="white" stroke="#3A3836" stroke-width="2"/>
<rect x="501" y="1" width="98" height="219" rx="4" fill="white" stroke="#3A3836" stroke-width="2"/>
<path d="M32.5524 141.772H30.5602C30.3311 140.467 29.2924 139.716 27.9661 139.716C26.1816 139.716 24.9245 141.085 24.9245 143.545C24.9245 146.049 26.1923 147.375 27.9608 147.375C29.2658 147.375 30.3098 146.656 30.5602 145.378L32.5524 145.388C32.2488 147.471 30.5282 149.149 27.9341 149.149C25.0577 149.149 22.9377 147.066 22.9377 143.545C22.9377 140.019 25.0843 137.942 27.9341 137.942C30.3525 137.942 32.2168 139.348 32.5524 141.772ZM36.2052 144.206V149H34.2769V138.091H36.1626V142.208H36.2584C36.6366 141.282 37.4356 140.712 38.6927 140.712C40.392 140.712 41.5106 141.814 41.5106 143.79V149H39.5823V144.089C39.5823 142.986 38.9857 142.342 37.9736 142.342C36.9403 142.342 36.2052 143.023 36.2052 144.206ZM47.045 149.16C44.648 149.16 43.1246 147.471 43.1246 144.941C43.1246 142.406 44.648 140.712 47.045 140.712C49.442 140.712 50.9655 142.406 50.9655 144.941C50.9655 147.471 49.442 149.16 47.045 149.16ZM47.0557 147.615C48.3607 147.615 49.0106 146.433 49.0106 144.936C49.0106 143.439 48.3607 142.24 47.0557 142.24C45.7293 142.24 45.0795 143.439 45.0795 144.936C45.0795 146.433 45.7293 147.615 47.0557 147.615ZM56.171 149.16C53.774 149.16 52.2505 147.471 52.2505 144.941C52.2505 142.406 53.774 140.712 56.171 140.712C58.568 140.712 60.0914 142.406 60.0914 144.941C60.0914 147.471 58.568 149.16 56.171 149.16ZM56.1816 147.615C57.4867 147.615 58.1365 146.433 58.1365 144.936C58.1365 143.439 57.4867 142.24 56.1816 142.24C54.8553 142.24 54.2054 143.439 54.2054 144.936C54.2054 146.433 54.8553 147.615 56.1816 147.615ZM68.1947 142.981L66.4369 143.173C66.2877 142.635 65.819 142.15 64.9294 142.15C64.1251 142.15 63.5125 142.533 63.5178 143.087C63.5125 143.561 63.8428 143.849 64.6737 144.036L66.0693 144.334C67.6141 144.669 68.3651 145.383 68.3705 146.55C68.3651 148.1 66.9216 149.16 64.8762 149.16C62.868 149.16 61.6056 148.27 61.3659 146.768L63.2462 146.587C63.4113 147.322 63.9866 147.706 64.8708 147.706C65.787 147.706 66.3943 147.285 66.3943 146.725C66.3943 146.262 66.0427 145.958 65.2916 145.793L63.896 145.5C62.3247 145.175 61.5896 144.387 61.5949 143.194C61.5896 141.681 62.9319 140.712 64.9028 140.712C66.8204 140.712 67.9284 141.596 68.1947 142.981ZM73.5827 149.16C71.1164 149.16 69.6089 147.525 69.6089 144.957C69.6089 142.432 71.1377 140.712 73.4814 140.712C75.4949 140.712 77.2208 141.974 77.2208 144.845V145.436H71.5212C71.5372 146.837 72.3628 147.658 73.6093 147.658C74.4403 147.658 75.0795 147.295 75.3405 146.603L77.1409 146.805C76.8 148.228 75.4896 149.16 73.5827 149.16ZM71.5265 144.137H75.3724C75.3618 143.023 74.616 142.214 73.5081 142.214C72.3575 142.214 71.5851 143.093 71.5265 144.137ZM18.4186 158.818L15.5049 167H13.3742L10.4605 158.818H12.5166L14.397 164.896H14.4822L16.3679 158.818H18.4186ZM23.0968 167.16C20.6305 167.16 19.1231 165.525 19.1231 162.957C19.1231 160.432 20.6519 158.712 22.9956 158.712C25.0091 158.712 26.735 159.974 26.735 162.845V163.436H21.0354C21.0514 164.837 21.877 165.658 23.1234 165.658C23.9544 165.658 24.5936 165.295 24.8546 164.603L26.6551 164.805C26.3141 166.228 25.0038 167.16 23.0968 167.16ZM21.0407 162.137H24.8866C24.8759 161.023 24.1302 160.214 23.0222 160.214C21.8717 160.214 21.0993 161.093 21.0407 162.137ZM28.3663 167V158.818H30.2359V160.182H30.3212C30.6195 159.234 31.4025 158.701 32.34 158.701C32.553 158.701 32.8567 158.722 33.0324 158.754V160.528C32.8673 160.475 32.4625 160.416 32.1376 160.416C31.0775 160.416 30.2945 161.151 30.2945 162.19V167H28.3663ZM40.7801 160.981L39.0223 161.173C38.8732 160.635 38.4044 160.15 37.5149 160.15C36.7105 160.15 36.098 160.533 36.1033 161.087C36.098 161.561 36.4282 161.849 37.2592 162.036L38.6548 162.334C40.1995 162.669 40.9506 163.383 40.9559 164.55C40.9506 166.1 39.5071 167.16 37.4616 167.16C35.4534 167.16 34.191 166.27 33.9513 164.768L35.8316 164.587C35.9968 165.322 36.572 165.706 37.4563 165.706C38.3725 165.706 38.9797 165.285 38.9797 164.725C38.9797 164.262 38.6282 163.958 37.8771 163.793L36.4815 163.5C34.9101 163.175 34.175 162.387 34.1804 161.194C34.175 159.681 35.5174 158.712 37.4882 158.712C39.4059 158.712 40.5138 159.596 40.7801 160.981ZM42.5459 167V158.818H44.4742V167H42.5459ZM43.5154 157.657C42.8975 157.657 42.3968 157.188 42.3968 156.613C42.3968 156.032 42.8975 155.564 43.5154 155.564C44.128 155.564 44.6287 156.032 44.6287 156.613C44.6287 157.188 44.128 157.657 43.5154 157.657ZM50.026 167.16C47.629 167.16 46.1055 165.471 46.1055 162.941C46.1055 160.406 47.629 158.712 50.026 158.712C52.423 158.712 53.9464 160.406 53.9464 162.941C53.9464 165.471 52.423 167.16 50.026 167.16ZM50.0366 165.615C51.3417 165.615 51.9915 164.433 51.9915 162.936C51.9915 161.439 51.3417 160.24 50.0366 160.24C48.7103 160.24 48.0604 161.439 48.0604 162.936C48.0604 164.433 48.7103 165.615 50.0366 165.615ZM57.5113 162.206V167H55.5831V158.818H57.4261V160.208H57.522C57.8948 159.298 58.7365 158.712 59.9616 158.712C61.6502 158.712 62.7688 159.83 62.7634 161.79V167H60.8352V162.089C60.8352 160.997 60.2386 160.342 59.2425 160.342C58.2251 160.342 57.5113 161.023 57.5113 162.206ZM64.7237 167V158.818H66.6519V167H64.7237ZM65.6931 157.657C65.0752 157.657 64.5745 157.188 64.5745 156.613C64.5745 156.032 65.0752 155.564 65.6931 155.564C66.3057 155.564 66.8064 156.032 66.8064 156.613C66.8064 157.188 66.3057 157.657 65.6931 157.657ZM70.5631 162.206V167H68.6348V158.818H70.4778V160.208H70.5737C70.9466 159.298 71.7882 158.712 73.0134 158.712C74.7019 158.712 75.8205 159.83 75.8152 161.79V167H73.8869V162.089C73.8869 160.997 73.2903 160.342 72.2943 160.342C71.2769 160.342 70.5631 161.023 70.5631 162.206ZM81.3337 170.239C79.2509 170.239 78.0737 169.317 77.7222 168.172L79.4587 167.751C79.693 168.23 80.2044 168.779 81.3656 168.779C82.4629 168.779 83.2619 168.284 83.2619 167.08V165.53H83.1661C82.8678 166.132 82.2126 166.883 80.8117 166.883C78.926 166.883 77.4399 165.551 77.4399 162.882C77.4399 160.192 78.926 158.712 80.817 158.712C82.2605 158.712 82.8731 159.58 83.1661 160.171H83.2726V158.818H85.1742V167.133C85.1742 169.227 83.5443 170.239 81.3337 170.239ZM81.3497 165.37C82.5801 165.37 83.2726 164.433 83.2726 162.872C83.2726 161.322 82.5908 160.294 81.3497 160.294C80.0659 160.294 79.4054 161.386 79.4054 162.872C79.4054 164.379 80.0766 165.37 81.3497 165.37ZM27.0326 178.981L25.2748 179.173C25.1256 178.635 24.6569 178.15 23.7673 178.15C22.963 178.15 22.3504 178.533 22.3557 179.087C22.3504 179.561 22.6807 179.849 23.5116 180.036L24.9072 180.334C26.452 180.669 27.203 181.383 27.2084 182.55C27.203 184.1 25.7595 185.16 23.714 185.16C21.7059 185.16 20.4434 184.27 20.2037 182.768L22.0841 182.587C22.2492 183.322 22.8245 183.706 23.7087 183.706C24.6249 183.706 25.2322 183.285 25.2322 182.725C25.2322 182.262 24.8806 181.958 24.1295 181.793L22.7339 181.5C21.1626 181.175 20.4275 180.387 20.4328 179.194C20.4275 177.681 21.7698 176.712 23.7407 176.712C25.6583 176.712 26.7662 177.596 27.0326 178.981ZM32.884 176.818V178.31H31.27V182.539C31.27 183.317 31.6588 183.487 32.1436 183.487C32.3833 183.487 32.6017 183.439 32.7082 183.413L33.0331 184.92C32.8254 184.989 32.4472 185.096 31.8985 185.112C30.4497 185.154 29.3311 184.398 29.3417 182.859V178.31H28.1805V176.818H29.3417V174.858H31.27V176.818H32.884ZM34.4966 185V176.818H36.3663V178.182H36.4515C36.7498 177.234 37.5328 176.701 38.4703 176.701C38.6834 176.701 38.987 176.722 39.1628 176.754V178.528C38.9977 178.475 38.5929 178.416 38.2679 178.416C37.2079 178.416 36.4249 179.151 36.4249 180.19V185H34.4966ZM42.6372 185.165C41.0764 185.165 39.8992 184.313 39.8992 182.704C39.8992 180.861 41.4173 180.387 43.0047 180.217C44.4482 180.062 45.0289 180.036 45.0289 179.482V179.45C45.0289 178.645 44.5388 178.187 43.6439 178.187C42.7011 178.187 42.1578 178.667 41.966 179.226L40.1656 178.97C40.5917 177.479 41.9127 176.712 43.6333 176.712C45.194 176.712 46.9571 177.362 46.9571 179.524V185H45.1034V183.876H45.0395C44.6879 184.563 43.9209 185.165 42.6372 185.165ZM43.1379 183.748C44.2991 183.748 45.0342 182.976 45.0342 182.065V181.101C44.7838 181.303 43.7718 181.431 43.2657 181.5C42.4028 181.623 41.7583 181.932 41.7583 182.672C41.7583 183.381 42.3335 183.748 43.1379 183.748ZM52.9816 176.818V178.31H51.3676V182.539C51.3676 183.317 51.7565 183.487 52.2412 183.487C52.4809 183.487 52.6993 183.439 52.8058 183.413L53.1308 184.92C52.923 184.989 52.5448 185.096 51.9962 185.112C50.5473 185.154 49.4287 184.398 49.4394 182.859V178.31H48.2781V176.818H49.4394V174.858H51.3676V176.818H52.9816ZM58.1286 185.16C55.6623 185.16 54.1548 183.525 54.1548 180.957C54.1548 178.432 55.6836 176.712 58.0273 176.712C60.0408 176.712 61.7667 177.974 61.7667 180.845V181.436H56.0671C56.0831 182.837 56.9087 183.658 58.1552 183.658C58.9862 183.658 59.6254 183.295 59.8864 182.603L61.6868 182.805C61.3459 184.228 60.0355 185.16 58.1286 185.16ZM56.0724 180.137H59.9183C59.9077 179.023 59.1619 178.214 58.054 178.214C56.9034 178.214 56.131 179.093 56.0724 180.137ZM66.9562 188.239C64.8735 188.239 63.6963 187.317 63.3447 186.172L65.0812 185.751C65.3156 186.23 65.827 186.779 66.9882 186.779C68.0855 186.779 68.8845 186.284 68.8845 185.08V183.53H68.7886C68.4903 184.132 67.8351 184.883 66.4342 184.883C64.5486 184.883 63.0624 183.551 63.0624 180.882C63.0624 178.192 64.5486 176.712 66.4395 176.712C67.8831 176.712 68.4957 177.58 68.7886 178.171H68.8952V176.818H70.7968V185.133C70.7968 187.227 69.1668 188.239 66.9562 188.239ZM66.9722 183.37C68.2027 183.37 68.8952 182.433 68.8952 180.872C68.8952 179.322 68.2133 178.294 66.9722 178.294C65.6885 178.294 65.028 179.386 65.028 180.872C65.028 182.379 65.6991 183.37 66.9722 183.37ZM73.9715 188.068C73.4442 188.068 72.9754 187.972 72.7144 187.866L73.1618 186.364C74.0035 186.609 74.5681 186.545 74.925 185.613L75.0901 185.17L72.1231 176.818H74.1686L76.0542 182.997H76.1395L78.0305 176.818H80.0812L76.8053 185.991C76.3419 187.296 75.4736 188.068 73.9715 188.068Z" fill="#3A3836"/>
<path d="M154.359 141.772H152.367C152.138 140.467 151.099 139.716 149.773 139.716C147.988 139.716 146.731 141.085 146.731 143.545C146.731 146.049 147.999 147.375 149.767 147.375C151.072 147.375 152.116 146.656 152.367 145.378L154.359 145.388C154.055 147.471 152.335 149.149 149.741 149.149C146.864 149.149 144.744 147.066 144.744 143.545C144.744 140.019 146.891 137.942 149.741 137.942C152.159 137.942 154.023 139.348 154.359 141.772ZM159.652 149.16C157.255 149.16 155.732 147.471 155.732 144.941C155.732 142.406 157.255 140.712 159.652 140.712C162.049 140.712 163.573 142.406 163.573 144.941C163.573 147.471 162.049 149.16 159.652 149.16ZM159.663 147.615C160.968 147.615 161.618 146.433 161.618 144.936C161.618 143.439 160.968 142.24 159.663 142.24C158.337 142.24 157.687 143.439 157.687 144.936C157.687 146.433 158.337 147.615 159.663 147.615ZM167.138 144.206V149H165.21V140.818H167.053V142.208H167.148C167.521 141.298 168.363 140.712 169.588 140.712C171.277 140.712 172.395 141.83 172.39 143.79V149H170.462V144.089C170.462 142.997 169.865 142.342 168.869 142.342C167.852 142.342 167.138 143.023 167.138 144.206ZM178.494 140.818V142.31H176.795V149H174.867V142.31H173.658V140.818H174.867V140.046C174.867 138.395 176.001 137.58 177.424 137.58C178.089 137.58 178.638 137.718 178.888 137.803L178.5 139.295C178.34 139.247 178.084 139.178 177.781 139.178C177.061 139.178 176.795 139.534 176.795 140.174V140.818H178.494ZM180.004 149V140.818H181.933V149H180.004ZM180.974 139.657C180.356 139.657 179.855 139.188 179.855 138.613C179.855 138.032 180.356 137.564 180.974 137.564C181.586 137.564 182.087 138.032 182.087 138.613C182.087 139.188 181.586 139.657 180.974 139.657ZM183.916 149V140.818H185.785V142.182H185.87C186.169 141.234 186.952 140.701 187.889 140.701C188.102 140.701 188.406 140.722 188.582 140.754V142.528C188.417 142.475 188.012 142.416 187.687 142.416C186.627 142.416 185.844 143.151 185.844 144.19V149H183.916ZM189.863 149V140.818H191.706V142.208H191.802C192.143 141.276 192.963 140.712 194.06 140.712C195.163 140.712 195.957 141.282 196.271 142.208H196.356C196.718 141.298 197.624 140.712 198.812 140.712C200.314 140.712 201.369 141.681 201.369 143.508V149H199.435V143.806C199.435 142.794 198.817 142.336 198.039 142.336C197.107 142.336 196.559 142.975 196.559 143.897V149H194.668V143.727C194.668 142.885 194.108 142.336 193.293 142.336C192.462 142.336 191.791 143.018 191.791 144.025V149H189.863ZM160.788 162.206V167H158.859V158.818H160.702V160.208H160.798C161.171 159.298 162.013 158.712 163.238 158.712C164.927 158.712 166.045 159.83 166.04 161.79V167H164.112V162.089C164.112 160.997 163.515 160.342 162.519 160.342C161.501 160.342 160.788 161.023 160.788 162.206ZM171.622 167.16C169.156 167.16 167.648 165.525 167.648 162.957C167.648 160.432 169.177 158.712 171.521 158.712C173.534 158.712 175.26 159.974 175.26 162.845V163.436H169.561C169.577 164.837 170.402 165.658 171.649 165.658C172.48 165.658 173.119 165.295 173.38 164.603L175.18 164.805C174.84 166.228 173.529 167.16 171.622 167.16ZM169.566 162.137H173.412C173.401 161.023 172.656 160.214 171.548 160.214C170.397 160.214 169.625 161.093 169.566 162.137ZM178.536 167L176.224 158.818H178.19L179.628 164.571H179.703L181.173 158.818H183.117L184.587 164.539H184.667L186.084 158.818H188.055L185.738 167H183.73L182.196 161.471H182.084L180.55 167H178.536ZM146.7 176.818L143.786 185H141.655L138.742 176.818H140.798L142.678 182.896H142.763L144.649 176.818H146.7ZM151.378 185.16C148.912 185.16 147.404 183.525 147.404 180.957C147.404 178.432 148.933 176.712 151.277 176.712C153.29 176.712 155.016 177.974 155.016 180.845V181.436H149.317C149.333 182.837 150.158 183.658 151.405 183.658C152.236 183.658 152.875 183.295 153.136 182.603L154.936 182.805C154.595 184.228 153.285 185.16 151.378 185.16ZM149.322 180.137H153.168C153.157 179.023 152.411 178.214 151.303 178.214C150.153 178.214 149.381 179.093 149.322 180.137ZM156.648 185V176.818H158.517V178.182H158.602C158.901 177.234 159.684 176.701 160.621 176.701C160.834 176.701 161.138 176.722 161.314 176.754V178.528C161.149 178.475 160.744 178.416 160.419 178.416C159.359 178.416 158.576 179.151 158.576 180.19V185H156.648ZM169.061 178.981L167.304 179.173C167.154 178.635 166.686 178.15 165.796 178.15C164.992 178.15 164.379 178.533 164.385 179.087C164.379 179.561 164.709 179.849 165.54 180.036L166.936 180.334C168.481 180.669 169.232 181.383 169.237 182.55C169.232 184.1 167.788 185.16 165.743 185.16C163.735 185.16 162.472 184.27 162.233 182.768L164.113 182.587C164.278 183.322 164.853 183.706 165.738 183.706C166.654 183.706 167.261 183.285 167.261 182.725C167.261 182.262 166.909 181.958 166.158 181.793L164.763 181.5C163.191 181.175 162.456 180.387 162.462 179.194C162.456 177.681 163.799 176.712 165.769 176.712C167.687 176.712 168.795 177.596 169.061 178.981ZM170.827 185V176.818H172.755V185H170.827ZM171.797 175.657C171.179 175.657 170.678 175.188 170.678 174.613C170.678 174.032 171.179 173.564 171.797 173.564C172.409 173.564 172.91 174.032 172.91 174.613C172.91 175.188 172.409 175.657 171.797 175.657ZM178.307 185.16C175.91 185.16 174.387 183.471 174.387 180.941C174.387 178.406 175.91 176.712 178.307 176.712C180.704 176.712 182.228 178.406 182.228 180.941C182.228 183.471 180.704 185.16 178.307 185.16ZM178.318 183.615C179.623 183.615 180.273 182.433 180.273 180.936C180.273 179.439 179.623 178.24 178.318 178.24C176.992 178.24 176.342 179.439 176.342 180.936C176.342 182.433 176.992 183.615 178.318 183.615ZM185.793 180.206V185H183.864V176.818H185.707V178.208H185.803C186.176 177.298 187.018 176.712 188.243 176.712C189.931 176.712 191.05 177.83 191.045 179.79V185H189.116V180.089C189.116 178.997 188.52 178.342 187.524 178.342C186.506 178.342 185.793 179.023 185.793 180.206ZM196.726 185V176.818H198.654V185H196.726ZM197.695 175.657C197.077 175.657 196.576 175.188 196.576 174.613C196.576 174.032 197.077 173.564 197.695 173.564C198.308 173.564 198.808 174.032 198.808 174.613C198.808 175.188 198.308 175.657 197.695 175.657ZM207.103 178.981L205.346 179.173C205.196 178.635 204.728 178.15 203.838 178.15C203.034 178.15 202.421 178.533 202.427 179.087C202.421 179.561 202.751 179.849 203.582 180.036L204.978 180.334C206.523 180.669 207.274 181.383 207.279 182.55C207.274 184.1 205.83 185.16 203.785 185.16C201.777 185.16 200.514 184.27 200.275 182.768L202.155 182.587C202.32 183.322 202.895 183.706 203.78 183.706C204.696 183.706 205.303 183.285 205.303 182.725C205.303 182.262 204.951 181.958 204.2 181.793L202.805 181.5C201.233 181.175 200.498 180.387 200.504 179.194C200.498 177.681 201.841 176.712 203.811 176.712C205.729 176.712 206.837 177.596 207.103 178.981ZM140.17 198.206V203H138.242V194.818H140.085V196.208H140.181C140.554 195.298 141.395 194.712 142.62 194.712C144.309 194.712 145.427 195.83 145.422 197.79V203H143.494V198.089C143.494 196.997 142.897 196.342 141.901 196.342C140.884 196.342 140.17 197.023 140.17 198.206ZM151.005 203.16C148.538 203.16 147.031 201.525 147.031 198.957C147.031 196.432 148.56 194.712 150.903 194.712C152.917 194.712 154.643 195.974 154.643 198.845V199.436H148.943C148.959 200.837 149.785 201.658 151.031 201.658C151.862 201.658 152.501 201.295 152.762 200.603L154.563 200.805C154.222 202.228 152.911 203.16 151.005 203.16ZM148.948 198.137H152.794C152.784 197.023 152.038 196.214 150.93 196.214C149.779 196.214 149.007 197.093 148.948 198.137ZM159.843 203.16C157.398 203.16 155.922 201.418 155.922 198.941C155.922 196.443 157.435 194.712 159.832 194.712C161.83 194.712 163.215 195.878 163.348 197.652H161.505C161.356 196.864 160.786 196.267 159.859 196.267C158.671 196.267 157.877 197.258 157.877 198.909C157.877 200.582 158.655 201.588 159.859 201.588C160.706 201.588 161.34 201.082 161.505 200.203H163.348C163.209 201.94 161.899 203.16 159.843 203.16ZM168.553 203.16C166.087 203.16 164.58 201.525 164.58 198.957C164.58 196.432 166.108 194.712 168.452 194.712C170.466 194.712 172.191 195.974 172.191 198.845V199.436H166.492C166.508 200.837 167.334 201.658 168.58 201.658C169.411 201.658 170.05 201.295 170.311 200.603L172.112 200.805C171.771 202.228 170.46 203.16 168.553 203.16ZM166.497 198.137H170.343C170.332 197.023 169.587 196.214 168.479 196.214C167.328 196.214 166.556 197.093 166.497 198.137ZM180.289 196.981L178.532 197.173C178.382 196.635 177.914 196.15 177.024 196.15C176.22 196.15 175.607 196.533 175.613 197.087C175.607 197.561 175.938 197.849 176.768 198.036L178.164 198.334C179.709 198.669 180.46 199.383 180.465 200.55C180.46 202.1 179.016 203.16 176.971 203.16C174.963 203.16 173.7 202.27 173.461 200.768L175.341 200.587C175.506 201.322 176.081 201.706 176.966 201.706C177.882 201.706 178.489 201.285 178.489 200.725C178.489 200.262 178.137 199.958 177.386 199.793L175.991 199.5C174.419 199.175 173.684 198.387 173.69 197.194C173.684 195.681 175.027 194.712 176.998 194.712C178.915 194.712 180.023 195.596 180.289 196.981ZM188.522 196.981L186.764 197.173C186.615 196.635 186.146 196.15 185.257 196.15C184.452 196.15 183.84 196.533 183.845 197.087C183.84 197.561 184.17 197.849 185.001 198.036L186.396 198.334C187.941 198.669 188.692 199.383 188.698 200.55C188.692 202.1 187.249 203.16 185.203 203.16C183.195 203.16 181.933 202.27 181.693 200.768L183.573 200.587C183.738 201.322 184.314 201.706 185.198 201.706C186.114 201.706 186.721 201.285 186.721 200.725C186.721 200.262 186.37 199.958 185.619 199.793L184.223 199.5C182.652 199.175 181.917 198.387 181.922 197.194C181.917 195.681 183.259 194.712 185.23 194.712C187.148 194.712 188.256 195.596 188.522 196.981ZM192.642 203.165C191.081 203.165 189.904 202.313 189.904 200.704C189.904 198.861 191.422 198.387 193.01 198.217C194.453 198.062 195.034 198.036 195.034 197.482V197.45C195.034 196.645 194.544 196.187 193.649 196.187C192.706 196.187 192.163 196.667 191.971 197.226L190.17 196.97C190.597 195.479 191.918 194.712 193.638 194.712C195.199 194.712 196.962 195.362 196.962 197.524V203H195.108V201.876H195.044C194.693 202.563 193.926 203.165 192.642 203.165ZM193.143 201.748C194.304 201.748 195.039 200.976 195.039 200.065V199.101C194.789 199.303 193.777 199.431 193.271 199.5C192.408 199.623 191.763 199.932 191.763 200.672C191.763 201.381 192.338 201.748 193.143 201.748ZM198.901 203V194.818H200.771V196.182H200.856C201.154 195.234 201.937 194.701 202.875 194.701C203.088 194.701 203.391 194.722 203.567 194.754V196.528C203.402 196.475 202.997 196.416 202.672 196.416C201.612 196.416 200.829 197.151 200.829 198.19V203H198.901ZM206.296 206.068C205.768 206.068 205.3 205.972 205.039 205.866L205.486 204.364C206.328 204.609 206.892 204.545 207.249 203.613L207.414 203.17L204.447 194.818H206.493L208.378 200.997H208.464L210.355 194.818H212.405L209.13 203.991C208.666 205.296 207.798 206.068 206.296 206.068Z" fill="#3A3836"/>
<path d="M281.983 138.091H283.959V145.218C283.959 147.562 282.191 149.165 279.533 149.165C276.864 149.165 275.106 147.562 275.106 145.218V138.091H277.082V145.053C277.082 146.422 278.031 147.402 279.533 147.402C281.03 147.402 281.983 146.422 281.983 145.053V138.091ZM286.022 152.068V140.818H287.918V142.171H288.03C288.323 141.58 288.925 140.712 290.369 140.712C292.26 140.712 293.746 142.192 293.746 144.92C293.746 147.615 292.302 149.144 290.374 149.144C288.968 149.144 288.334 148.308 288.03 147.711H287.95V152.068H286.022ZM287.913 144.909C287.913 146.496 288.605 147.562 289.836 147.562C291.109 147.562 291.78 146.443 291.78 144.909C291.78 143.386 291.12 142.294 289.836 142.294C288.595 142.294 287.913 143.322 287.913 144.909ZM298.433 149.144C296.505 149.144 295.061 147.615 295.061 144.92C295.061 142.192 296.548 140.712 298.439 140.712C299.882 140.712 300.484 141.58 300.777 142.171H300.857V138.091H302.79V149H300.894V147.711H300.777C300.473 148.308 299.839 149.144 298.433 149.144ZM298.971 147.562C300.202 147.562 300.894 146.496 300.894 144.909C300.894 143.322 300.212 142.294 298.971 142.294C297.688 142.294 297.027 143.386 297.027 144.909C297.027 146.443 297.698 147.562 298.971 147.562ZM307.2 149.165C305.639 149.165 304.462 148.313 304.462 146.704C304.462 144.861 305.98 144.387 307.567 144.217C309.011 144.062 309.591 144.036 309.591 143.482V143.45C309.591 142.645 309.101 142.187 308.206 142.187C307.264 142.187 306.72 142.667 306.528 143.226L304.728 142.97C305.154 141.479 306.475 140.712 308.196 140.712C309.756 140.712 311.52 141.362 311.52 143.524V149H309.666V147.876H309.602C309.25 148.563 308.483 149.165 307.2 149.165ZM307.7 147.748C308.862 147.748 309.597 146.976 309.597 146.065V145.101C309.346 145.303 308.334 145.431 307.828 145.5C306.965 145.623 306.321 145.932 306.321 146.672C306.321 147.381 306.896 147.748 307.7 147.748ZM317.544 140.818V142.31H315.93V146.539C315.93 147.317 316.319 147.487 316.804 147.487C317.043 147.487 317.262 147.439 317.368 147.413L317.693 148.92C317.486 148.989 317.107 149.096 316.559 149.112C315.11 149.154 313.991 148.398 314.002 146.859V142.31H312.841V140.818H314.002V138.858H315.93V140.818H317.544ZM322.691 149.16C320.225 149.16 318.717 147.525 318.717 144.957C318.717 142.432 320.246 140.712 322.59 140.712C324.603 140.712 326.329 141.974 326.329 144.845V145.436H320.63C320.646 146.837 321.471 147.658 322.718 147.658C323.549 147.658 324.188 147.295 324.449 146.603L326.249 146.805C325.908 148.228 324.598 149.16 322.691 149.16ZM320.635 144.137H324.481C324.47 143.023 323.724 142.214 322.616 142.214C321.466 142.214 320.694 143.093 320.635 144.137ZM286.795 167.144C284.867 167.144 283.423 165.615 283.423 162.92C283.423 160.192 284.909 158.712 286.8 158.712C288.244 158.712 288.846 159.58 289.139 160.171H289.219V156.091H291.152V167H289.256V165.711H289.139C288.835 166.308 288.201 167.144 286.795 167.144ZM287.333 165.562C288.564 165.562 289.256 164.496 289.256 162.909C289.256 161.322 288.574 160.294 287.333 160.294C286.049 160.294 285.389 161.386 285.389 162.909C285.389 164.443 286.06 165.562 287.333 165.562ZM296.776 167.16C294.379 167.16 292.856 165.471 292.856 162.941C292.856 160.406 294.379 158.712 296.776 158.712C299.173 158.712 300.696 160.406 300.696 162.941C300.696 165.471 299.173 167.16 296.776 167.16ZM296.787 165.615C298.092 165.615 298.742 164.433 298.742 162.936C298.742 161.439 298.092 160.24 296.787 160.24C295.46 160.24 294.81 161.439 294.81 162.936C294.81 164.433 295.46 165.615 296.787 165.615ZM305.902 167.16C303.457 167.16 301.981 165.418 301.981 162.941C301.981 160.443 303.494 158.712 305.891 158.712C307.889 158.712 309.274 159.878 309.407 161.652H307.564C307.415 160.864 306.845 160.267 305.918 160.267C304.73 160.267 303.936 161.258 303.936 162.909C303.936 164.582 304.714 165.588 305.918 165.588C306.765 165.588 307.399 165.082 307.564 164.203H309.407C309.268 165.94 307.958 167.16 305.902 167.16ZM317.457 160.981L315.699 161.173C315.55 160.635 315.081 160.15 314.192 160.15C313.387 160.15 312.775 160.533 312.78 161.087C312.775 161.561 313.105 161.849 313.936 162.036L315.332 162.334C316.876 162.669 317.627 163.383 317.633 164.55C317.627 166.1 316.184 167.16 314.138 167.16C312.13 167.16 310.868 166.27 310.628 164.768L312.508 164.587C312.674 165.322 313.249 165.706 314.133 165.706C315.049 165.706 315.656 165.285 315.656 164.725C315.656 164.262 315.305 163.958 314.554 163.793L313.158 163.5C311.587 163.175 310.852 162.387 310.857 161.194C310.852 159.681 312.194 158.712 314.165 158.712C316.083 158.712 317.191 159.596 317.457 160.981Z" fill="#3A3836"/>
<path d="M396.836 141.575C396.485 140.419 395.59 139.716 394.274 139.716C392.511 139.716 391.238 141.079 391.238 143.535C391.238 146.006 392.49 147.375 394.317 147.375C395.957 147.375 396.996 146.39 397.028 144.835H394.514V143.29H398.94V144.6C398.94 147.413 397.007 149.149 394.306 149.149C391.297 149.149 389.251 147.008 389.251 143.556C389.251 140.04 391.392 137.942 394.248 137.942C396.661 137.942 398.514 139.433 398.85 141.575H396.836ZM400.766 149V140.818H402.636V142.182H402.721C403.019 141.234 403.802 140.701 404.74 140.701C404.953 140.701 405.257 140.722 405.432 140.754V142.528C405.267 142.475 404.862 142.416 404.537 142.416C403.477 142.416 402.694 143.151 402.694 144.19V149H400.766ZM408.907 149.165C407.346 149.165 406.169 148.313 406.169 146.704C406.169 144.861 407.687 144.387 409.274 144.217C410.718 144.062 411.298 144.036 411.298 143.482V143.45C411.298 142.645 410.808 142.187 409.913 142.187C408.971 142.187 408.427 142.667 408.236 143.226L406.435 142.97C406.861 141.479 408.182 140.712 409.903 140.712C411.464 140.712 413.227 141.362 413.227 143.524V149H411.373V147.876H411.309C410.957 148.563 410.19 149.165 408.907 149.165ZM409.407 147.748C410.569 147.748 411.304 146.976 411.304 146.065V145.101C411.053 145.303 410.041 145.431 409.535 145.5C408.672 145.623 408.028 145.932 408.028 146.672C408.028 147.381 408.603 147.748 409.407 147.748ZM418.202 149.144C416.274 149.144 414.83 147.615 414.83 144.92C414.83 142.192 416.316 140.712 418.207 140.712C419.651 140.712 420.253 141.58 420.546 142.171H420.625V138.091H422.559V149H420.663V147.711H420.546C420.242 148.308 419.608 149.144 418.202 149.144ZM418.74 147.562C419.97 147.562 420.663 146.496 420.663 144.909C420.663 143.322 419.981 142.294 418.74 142.294C417.456 142.294 416.796 143.386 416.796 144.909C416.796 146.443 417.467 147.562 418.74 147.562ZM429.829 145.559V140.818H431.757V149H429.887V147.546H429.802C429.429 148.462 428.566 149.107 427.341 149.107C425.732 149.107 424.614 147.993 424.614 146.028V140.818H426.542V145.729C426.542 146.768 427.16 147.423 428.087 147.423C428.939 147.423 429.829 146.805 429.829 145.559ZM436.094 149.165C434.533 149.165 433.356 148.313 433.356 146.704C433.356 144.861 434.874 144.387 436.462 144.217C437.905 144.062 438.486 144.036 438.486 143.482V143.45C438.486 142.645 437.996 142.187 437.101 142.187C436.158 142.187 435.615 142.667 435.423 143.226L433.623 142.97C434.049 141.479 435.37 140.712 437.09 140.712C438.651 140.712 440.414 141.362 440.414 143.524V149H438.56V147.876H438.497C438.145 148.563 437.378 149.165 436.094 149.165ZM436.595 147.748C437.756 147.748 438.491 146.976 438.491 146.065V145.101C438.241 145.303 437.229 145.431 436.723 145.5C435.86 145.623 435.215 145.932 435.215 146.672C435.215 147.381 435.791 147.748 436.595 147.748ZM444.281 138.091V149H442.353V138.091H444.281ZM448.192 138.091V149H446.264V138.091H448.192ZM451.374 152.068C450.847 152.068 450.378 151.972 450.117 151.866L450.564 150.364C451.406 150.609 451.97 150.545 452.327 149.613L452.492 149.17L449.525 140.818H451.571L453.457 146.997H453.542L455.433 140.818H457.484L454.208 149.991C453.744 151.296 452.876 152.068 451.374 152.068ZM404.469 167.144C402.541 167.144 401.097 165.615 401.097 162.92C401.097 160.192 402.583 158.712 404.474 158.712C405.918 158.712 406.52 159.58 406.813 160.171H406.893V156.091H408.826V167H406.93V165.711H406.813C406.509 166.308 405.875 167.144 404.469 167.144ZM405.007 165.562C406.237 165.562 406.93 164.496 406.93 162.909C406.93 161.322 406.248 160.294 405.007 160.294C403.723 160.294 403.063 161.386 403.063 162.909C403.063 164.443 403.734 165.562 405.007 165.562ZM414.503 167.16C412.037 167.16 410.529 165.525 410.529 162.957C410.529 160.432 412.058 158.712 414.402 158.712C416.415 158.712 418.141 159.974 418.141 162.845V163.436H412.442C412.458 164.837 413.283 165.658 414.53 165.658C415.361 165.658 416 165.295 416.261 164.603L418.061 164.805C417.72 166.228 416.41 167.16 414.503 167.16ZM412.447 162.137H416.293C416.282 161.023 415.536 160.214 414.428 160.214C413.278 160.214 412.506 161.093 412.447 162.137ZM419.773 170.068V158.818H421.669V160.171H421.781C422.074 159.58 422.676 158.712 424.119 158.712C426.01 158.712 427.496 160.192 427.496 162.92C427.496 165.615 426.053 167.144 424.124 167.144C422.718 167.144 422.084 166.308 421.781 165.711H421.701V170.068H419.773ZM421.663 162.909C421.663 164.496 422.356 165.562 423.586 165.562C424.86 165.562 425.531 164.443 425.531 162.909C425.531 161.386 424.87 160.294 423.586 160.294C422.345 160.294 421.663 161.322 421.663 162.909ZM431.076 156.091V167H429.148V156.091H431.076ZM436.628 167.16C434.231 167.16 432.707 165.471 432.707 162.941C432.707 160.406 434.231 158.712 436.628 158.712C439.025 158.712 440.548 160.406 440.548 162.941C440.548 165.471 439.025 167.16 436.628 167.16ZM436.638 165.615C437.943 165.615 438.593 164.433 438.593 162.936C438.593 161.439 437.943 160.24 436.638 160.24C435.312 160.24 434.662 161.439 434.662 162.936C434.662 164.433 435.312 165.615 436.638 165.615ZM443.105 170.068C442.577 170.068 442.109 169.972 441.848 169.866L442.295 168.364C443.137 168.609 443.701 168.545 444.058 167.613L444.223 167.17L441.256 158.818H443.302L445.188 164.997H445.273L447.164 158.818H449.215L445.939 167.991C445.475 169.296 444.607 170.068 443.105 170.068ZM383.981 180.206V185H382.053V176.818H383.896V178.208H383.992C384.365 177.298 385.206 176.712 386.431 176.712C388.12 176.712 389.239 177.83 389.233 179.79V185H387.305V180.089C387.305 178.997 386.708 178.342 385.712 178.342C384.695 178.342 383.981 179.023 383.981 180.206ZM394.816 185.16C392.349 185.16 390.842 183.525 390.842 180.957C390.842 178.432 392.371 176.712 394.714 176.712C396.728 176.712 398.454 177.974 398.454 180.845V181.436H392.754C392.77 182.837 393.596 183.658 394.842 183.658C395.673 183.658 396.312 183.295 396.573 182.603L398.374 182.805C398.033 184.228 396.723 185.16 394.816 185.16ZM392.759 180.137H396.605C396.595 179.023 395.849 178.214 394.741 178.214C393.59 178.214 392.818 179.093 392.759 180.137ZM401.73 185L399.418 176.818H401.383L402.822 182.571H402.896L404.366 176.818H406.311L407.781 182.539H407.861L409.278 176.818H411.248L408.931 185H406.923L405.389 179.471H405.277L403.743 185H401.73ZM423.624 176.818L420.71 185H418.579L415.666 176.818H417.722L419.602 182.896H419.687L421.573 176.818H423.624ZM428.302 185.16C425.836 185.16 424.328 183.525 424.328 180.957C424.328 178.432 425.857 176.712 428.201 176.712C430.214 176.712 431.94 177.974 431.94 180.845V181.436H426.24C426.256 182.837 427.082 183.658 428.329 183.658C429.159 183.658 429.799 183.295 430.06 182.603L431.86 182.805C431.519 184.228 430.209 185.16 428.302 185.16ZM426.246 180.137H430.092C430.081 179.023 429.335 178.214 428.227 178.214C427.077 178.214 426.304 179.093 426.246 180.137ZM433.571 185V176.818H435.441V178.182H435.526C435.825 177.234 436.608 176.701 437.545 176.701C437.758 176.701 438.062 176.722 438.238 176.754V178.528C438.072 178.475 437.668 178.416 437.343 178.416C436.283 178.416 435.5 179.151 435.5 180.19V185H433.571ZM445.985 178.981L444.227 179.173C444.078 178.635 443.61 178.15 442.72 178.15C441.916 178.15 441.303 178.533 441.308 179.087C441.303 179.561 441.633 179.849 442.464 180.036L443.86 180.334C445.405 180.669 446.156 181.383 446.161 182.55C446.156 184.1 444.712 185.16 442.667 185.16C440.659 185.16 439.396 184.27 439.156 182.768L441.037 182.587C441.202 183.322 441.777 183.706 442.661 183.706C443.578 183.706 444.185 183.285 444.185 182.725C444.185 182.262 443.833 181.958 443.082 181.793L441.687 181.5C440.115 181.175 439.38 180.387 439.385 179.194C439.38 177.681 440.722 176.712 442.693 176.712C444.611 176.712 445.719 177.596 445.985 178.981ZM447.751 185V176.818H449.679V185H447.751ZM448.72 175.657C448.103 175.657 447.602 175.188 447.602 174.613C447.602 174.032 448.103 173.564 448.72 173.564C449.333 173.564 449.834 174.032 449.834 174.613C449.834 175.188 449.333 175.657 448.72 175.657ZM455.231 185.16C452.834 185.16 451.311 183.471 451.311 180.941C451.311 178.406 452.834 176.712 455.231 176.712C457.628 176.712 459.152 178.406 459.152 180.941C459.152 183.471 457.628 185.16 455.231 185.16ZM455.242 183.615C456.547 183.615 457.197 182.433 457.197 180.936C457.197 179.439 456.547 178.24 455.242 178.24C453.915 178.24 453.265 179.439 453.265 180.936C453.265 182.433 453.915 183.615 455.242 183.615ZM462.716 180.206V185H460.788V176.818H462.631V178.208H462.727C463.1 177.298 463.942 176.712 465.167 176.712C466.855 176.712 467.974 177.83 467.969 179.79V185H466.04V180.089C466.04 178.997 465.444 178.342 464.448 178.342C463.43 178.342 462.716 179.023 462.716 180.206Z" fill="#3A3836"/>
<path d="M515.207 149H511.511V138.091H515.282C518.531 138.091 520.502 140.136 520.502 143.535C520.502 146.944 518.531 149 515.207 149ZM513.487 147.29H515.111C517.386 147.29 518.542 146.044 518.542 143.535C518.542 141.037 517.386 139.801 515.17 139.801H513.487V147.29ZM525.917 149.16C523.45 149.16 521.943 147.525 521.943 144.957C521.943 142.432 523.472 140.712 525.815 140.712C527.829 140.712 529.555 141.974 529.555 144.845V145.436H523.855C523.871 146.837 524.697 147.658 525.943 147.658C526.774 147.658 527.413 147.295 527.674 146.603L529.475 146.805C529.134 148.228 527.824 149.16 525.917 149.16ZM523.861 144.137H527.706C527.696 143.023 526.95 142.214 525.842 142.214C524.691 142.214 523.919 143.093 523.861 144.137ZM531.186 152.068V140.818H533.082V142.171H533.194C533.487 141.58 534.089 140.712 535.533 140.712C537.424 140.712 538.91 142.192 538.91 144.92C538.91 147.615 537.466 149.144 535.538 149.144C534.132 149.144 533.498 148.308 533.194 147.711H533.114V152.068H531.186ZM533.077 144.909C533.077 146.496 533.77 147.562 535 147.562C536.273 147.562 536.944 146.443 536.944 144.909C536.944 143.386 536.284 142.294 535 142.294C533.759 142.294 533.077 143.322 533.077 144.909ZM540.561 149V140.818H542.431V142.182H542.516C542.814 141.234 543.597 140.701 544.535 140.701C544.748 140.701 545.051 140.722 545.227 140.754V142.528C545.062 142.475 544.657 142.416 544.332 142.416C543.272 142.416 542.489 143.151 542.489 144.19V149H540.561ZM549.794 149.16C547.327 149.16 545.82 147.525 545.82 144.957C545.82 142.432 547.349 140.712 549.692 140.712C551.706 140.712 553.432 141.974 553.432 144.845V145.436H547.732C547.748 146.837 548.574 147.658 549.82 147.658C550.651 147.658 551.29 147.295 551.551 146.603L553.352 146.805C553.011 148.228 551.701 149.16 549.794 149.16ZM547.737 144.137H551.583C551.573 143.023 550.827 142.214 549.719 142.214C548.568 142.214 547.796 143.093 547.737 144.137ZM558.632 149.16C556.187 149.16 554.711 147.418 554.711 144.941C554.711 142.443 556.224 140.712 558.621 140.712C560.619 140.712 562.004 141.878 562.137 143.652H560.294C560.145 142.864 559.575 142.267 558.648 142.267C557.46 142.267 556.666 143.258 556.666 144.909C556.666 146.582 557.444 147.588 558.648 147.588C559.495 147.588 560.129 147.082 560.294 146.203H562.137C561.998 147.94 560.688 149.16 558.632 149.16ZM566.075 149.165C564.514 149.165 563.337 148.313 563.337 146.704C563.337 144.861 564.855 144.387 566.442 144.217C567.886 144.062 568.466 144.036 568.466 143.482V143.45C568.466 142.645 567.976 142.187 567.081 142.187C566.139 142.187 565.595 142.667 565.403 143.226L563.603 142.97C564.029 141.479 565.35 140.712 567.071 140.712C568.631 140.712 570.395 141.362 570.395 143.524V149H568.541V147.876H568.477C568.125 148.563 567.358 149.165 566.075 149.165ZM566.575 147.748C567.737 147.748 568.472 146.976 568.472 146.065V145.101C568.221 145.303 567.209 145.431 566.703 145.5C565.84 145.623 565.196 145.932 565.196 146.672C565.196 147.381 565.771 147.748 566.575 147.748ZM576.419 140.818V142.31H574.805V146.539C574.805 147.317 575.194 147.487 575.679 147.487C575.918 147.487 576.137 147.439 576.243 147.413L576.568 148.92C576.361 148.989 575.982 149.096 575.434 149.112C573.985 149.154 572.866 148.398 572.877 146.859V142.31H571.716V140.818H572.877V138.858H574.805V140.818H576.419ZM581.566 149.16C579.1 149.16 577.592 147.525 577.592 144.957C577.592 142.432 579.121 140.712 581.465 140.712C583.478 140.712 585.204 141.974 585.204 144.845V145.436H579.505C579.521 146.837 580.346 147.658 581.593 147.658C582.424 147.658 583.063 147.295 583.324 146.603L585.124 146.805C584.783 148.228 583.473 149.16 581.566 149.16ZM579.51 144.137H583.356C583.345 143.023 582.599 142.214 581.491 142.214C580.341 142.214 579.569 143.093 579.51 144.137ZM514.65 167.16C512.253 167.16 510.73 165.471 510.73 162.941C510.73 160.406 512.253 158.712 514.65 158.712C517.047 158.712 518.57 160.406 518.57 162.941C518.57 165.471 517.047 167.16 514.65 167.16ZM514.661 165.615C515.966 165.615 516.616 164.433 516.616 162.936C516.616 161.439 515.966 160.24 514.661 160.24C513.334 160.24 512.684 161.439 512.684 162.936C512.684 164.433 513.334 165.615 514.661 165.615ZM522.135 156.091V167H520.207V156.091H522.135ZM527.154 167.144C525.226 167.144 523.783 165.615 523.783 162.92C523.783 160.192 525.269 158.712 527.16 158.712C528.603 158.712 529.205 159.58 529.498 160.171H529.578V156.091H531.512V167H529.615V165.711H529.498C529.195 166.308 528.561 167.144 527.154 167.144ZM527.692 165.562C528.923 165.562 529.615 164.496 529.615 162.909C529.615 161.322 528.934 160.294 527.692 160.294C526.409 160.294 525.748 161.386 525.748 162.909C525.748 164.443 526.419 165.562 527.692 165.562ZM544.595 158.818L541.682 167H539.551L536.637 158.818H538.693L540.574 164.896H540.659L542.545 158.818H544.595ZM549.274 167.16C546.807 167.16 545.3 165.525 545.3 162.957C545.3 160.432 546.829 158.712 549.172 158.712C551.186 158.712 552.912 159.974 552.912 162.845V163.436H547.212C547.228 164.837 548.054 165.658 549.3 165.658C550.131 165.658 550.77 165.295 551.031 164.603L552.832 164.805C552.491 166.228 551.181 167.16 549.274 167.16ZM547.217 162.137H551.063C551.053 161.023 550.307 160.214 549.199 160.214C548.048 160.214 547.276 161.093 547.217 162.137ZM554.543 167V158.818H556.413V160.182H556.498C556.796 159.234 557.579 158.701 558.517 158.701C558.73 158.701 559.033 158.722 559.209 158.754V160.528C559.044 160.475 558.639 160.416 558.314 160.416C557.254 160.416 556.471 161.151 556.471 162.19V167H554.543ZM566.957 160.981L565.199 161.173C565.05 160.635 564.581 160.15 563.692 160.15C562.887 160.15 562.275 160.533 562.28 161.087C562.275 161.561 562.605 161.849 563.436 162.036L564.832 162.334C566.376 162.669 567.127 163.383 567.133 164.55C567.127 166.1 565.684 167.16 563.638 167.16C561.63 167.16 560.368 166.27 560.128 164.768L562.008 164.587C562.174 165.322 562.749 165.706 563.633 165.706C564.549 165.706 565.156 165.285 565.156 164.725C565.156 164.262 564.805 163.958 564.054 163.793L562.658 163.5C561.087 163.175 560.352 162.387 560.357 161.194C560.352 159.681 561.694 158.712 563.665 158.712C565.583 158.712 566.691 159.596 566.957 160.981ZM568.723 167V158.818H570.651V167H568.723ZM569.692 157.657C569.074 157.657 568.574 157.188 568.574 156.613C568.574 156.032 569.074 155.564 569.692 155.564C570.305 155.564 570.805 156.032 570.805 156.613C570.805 157.188 570.305 157.657 569.692 157.657ZM576.203 167.16C573.806 167.16 572.282 165.471 572.282 162.941C572.282 160.406 573.806 158.712 576.203 158.712C578.6 158.712 580.123 160.406 580.123 162.941C580.123 165.471 578.6 167.16 576.203 167.16ZM576.213 165.615C577.518 165.615 578.168 164.433 578.168 162.936C578.168 161.439 577.518 160.24 576.213 160.24C574.887 160.24 574.237 161.439 574.237 162.936C574.237 164.433 574.887 165.615 576.213 165.615ZM583.688 162.206V167H581.76V158.818H583.603V160.208H583.699C584.072 159.298 584.913 158.712 586.138 158.712C587.827 158.712 588.946 159.83 588.94 161.79V167H587.012V162.089C587.012 160.997 586.415 160.342 585.419 160.342C584.402 160.342 583.688 161.023 583.688 162.206Z" fill="#3A3836"/>
<path d="M119.707 111.707C120.098 111.317 120.098 110.683 119.707 110.293L113.343 103.929C112.953 103.538 112.319 103.538 111.929 103.929C111.538 104.319 111.538 104.953 111.929 105.343L117.586 111L111.929 116.657C111.538 117.047 111.538 117.681 111.929 118.071C112.319 118.462 112.953 118.462 113.343 118.071L119.707 111.707ZM100 112L119 112L119 110L100 110L100 112Z" fill="#3A3836"/>
<path d="M244.707 111.707C245.098 111.317 245.098 110.683 244.707 110.293L238.343 103.929C237.953 103.538 237.319 103.538 236.929 103.929C236.538 104.319 236.538 104.953 236.929 105.343L242.586 111L236.929 116.657C236.538 117.047 236.538 117.681 236.929 118.071C237.319 118.462 237.953 118.462 238.343 118.071L244.707 111.707ZM225 112L244 112L244 110L225 110L225 112Z" fill="#3A3836"/>
<path d="M369.707 111.707C370.098 111.317 370.098 110.683 369.707 110.293L363.343 103.929C362.953 103.538 362.319 103.538 361.929 103.929C361.538 104.319 361.538 104.953 361.929 105.343L367.586 111L361.929 116.657C361.538 117.047 361.538 117.681 361.929 118.071C362.319 118.462 362.953 118.462 363.343 118.071L369.707 111.707ZM350 112L369 112L369 110L350 110L350 112Z" fill="#3A3836"/>
<path d="M494.707 111.707C495.098 111.317 495.098 110.683 494.707 110.293L488.343 103.929C487.953 103.538 487.319 103.538 486.929 103.929C486.538 104.319 486.538 104.953 486.929 105.343L492.586 111L486.929 116.657C486.538 117.047 486.538 117.681 486.929 118.071C487.319 118.462 487.953 118.462 488.343 118.071L494.707 111.707ZM475 112L494 112L494 110L475 110L475 112Z" fill="#3A3836"/>
<circle cx="50.5" cy="30.5" r="14.5" fill="#3A3836"/>
<circle cx="175.5" cy="30.5" r="14.5" fill="#3A3836"/>
<circle cx="300.5" cy="30.5" r="14.5" fill="#3A3836"/>
<circle cx="424.5" cy="30.5" r="14.5" fill="#3A3836"/>
<circle cx="549.5" cy="30.5" r="14.5" fill="#3A3836"/>
<path d="M51.8031 25.0909V36H49.8269V27.0138H49.763L47.2115 28.6438V26.8327L49.9228 25.0909H51.8031Z" fill="white"/>
<path d="M171.311 36V34.5724L175.099 30.8597C176.175 29.7678 176.729 29.1179 176.729 28.207C176.729 27.179 175.956 26.5451 174.917 26.5451C173.831 26.5451 173.128 27.2429 173.128 28.3562H171.247C171.247 26.2841 172.781 24.9418 174.944 24.9418C177.139 24.9418 178.625 26.2788 178.625 28.1058C178.625 29.3363 178.039 30.3271 175.919 32.3619L174.039 34.2741V34.3487H178.79V36H171.311Z" fill="white"/>
<path d="M299.999 36.1491C297.698 36.1491 296.052 34.8761 295.999 33.033H298.002C298.05 33.9226 298.897 34.4925 299.994 34.4925C301.161 34.4925 301.997 33.832 301.992 32.8679C301.997 31.8825 301.177 31.19 299.797 31.19H298.833V29.6665H299.797C300.926 29.6665 301.715 29.0327 301.709 28.0792C301.715 27.163 301.038 26.5451 300.021 26.5451C299.014 26.5451 298.162 27.1151 298.13 28.0312H296.228C296.271 26.2042 297.911 24.9418 300.031 24.9418C302.21 24.9418 303.627 26.3001 303.621 27.962C303.627 29.1871 302.833 30.0661 301.651 30.3217V30.407C303.179 30.6254 304.032 31.6055 304.026 32.9691C304.032 34.8121 302.332 36.1491 299.999 36.1491Z" fill="white"/>
<path d="M419.777 33.9759V32.4045L424.406 25.0909H426.867V32.3512H428.263V33.9759H426.867V36H424.981V33.9759H419.777ZM425.003 32.3512V27.3281H424.918L421.801 32.266V32.3512H425.003Z" fill="white"/>
<path d="M549.016 36.1491C546.885 36.1491 545.303 34.8441 545.25 33.033H547.168C547.237 33.9279 548.031 34.5511 549.016 34.5511C550.183 34.5511 551.024 33.6829 551.019 32.4631C551.024 31.2273 550.161 30.343 548.963 30.3377C548.308 30.3324 547.615 30.604 547.248 31.0089L545.463 30.7159L546.033 25.0909H552.361V26.7422H547.668L547.354 29.6346H547.418C547.823 29.1552 548.606 28.8036 549.49 28.8036C551.472 28.8036 552.931 30.3164 552.931 32.4151C552.931 34.5831 551.322 36.1491 549.016 36.1491Z" fill="white"/>
<path d="M57.999 77.9982H30V110H57.999V77.9982Z" fill="url(#paint0_linear_274_2423)"/>
<path d="M57.999 77.9982H30V110H57.999V77.9982Z" stroke="#6B6B6B" stroke-width="1.5" stroke-linecap="round" stroke-linejoin="round"/>
<path d="M36.9971 71.999H63.998V104.999" stroke="#6B6B6B" stroke-width="1.5" stroke-linecap="round" stroke-linejoin="round"/>
<path d="M42.9961 66H69.997V99" stroke="#6B6B6B" stroke-width="1.5" stroke-linecap="round" stroke-linejoin="round"/>
<path d="M37.7144 95.7352L41.2493 99.0207L49.7748 89.2683" stroke="white" stroke-width="1.5" stroke-linecap="round" stroke-linejoin="round"/>
<path d="M181 110V98H193" fill="url(#paint1_linear_274_2423)"/>
<path d="M181 110V98H193" stroke="#6B6B6B" stroke-width="1.5" stroke-linecap="round" stroke-linejoin="round"/>
<path d="M181 110H157V66H193V98L181 110Z" stroke="#6B6B6B" stroke-width="1.5" stroke-linecap="round" stroke-linejoin="round"/>
<path d="M186 76H176" stroke="#6B6B6B" stroke-width="1.5" stroke-linecap="round" stroke-linejoin="round"/>
<path d="M186 88H176" stroke="#6B6B6B" stroke-width="1.5" stroke-linecap="round" stroke-linejoin="round"/>
<path d="M178 100H176" stroke="#6B6B6B" stroke-width="1.5" stroke-linecap="round" stroke-linejoin="round"/>
<path d="M164 76L166 78L171 73" stroke="#6B6B6B" stroke-width="1.5" stroke-linecap="round" stroke-linejoin="round"/>
<path d="M164 88L166 90L171 85" stroke="#6B6B6B" stroke-width="1.5" stroke-linecap="round" stroke-linejoin="round"/>
<path d="M167 103C168.7 103 170 101.7 170 100C170 98.3 168.7 97 167 97C165.3 97 164 98.3 164 100C164 101.7 165.3 103 167 103Z" fill="url(#paint2_linear_274_2423)" stroke="#6B6B6B" stroke-width="1.5" stroke-linecap="round" stroke-linejoin="round"/>
<g clip-path="url(#clip0_274_2423)">
<path d="M424.72 78.58V107.51" stroke="#6B6B6B" stroke-width="1.5" stroke-linecap="round" stroke-linejoin="round"/>
<path d="M442.69 88.2699V101.45L424.72 107.51L406.75 101.45V88.2699" stroke="#6B6B6B" stroke-width="1.5" stroke-linecap="round" stroke-linejoin="round"/>
<path d="M424.72 78.58L429.21 88.27H445.69L441.19 81L424.72 78.58ZM424.72 78.58L408.24 81L403.75 88.27H420.23L424.72 78.58Z" stroke="#6B6B6B" stroke-width="1.5" stroke-linecap="round" stroke-linejoin="round"/>
<path d="M433.93 74.46L425.68 63.75L417.44 74.46H433.93Z" fill="url(#paint3_linear_274_2423)"/>
<path d="M433.93 74.46L425.68 63.75L417.44 74.46H433.93Z" stroke="#6B6B6B" stroke-width="1.5" stroke-linecap="round" stroke-linejoin="round"/>
</g>
<g clip-path="url(#clip1_274_2423)">
<path d="M301.86 67.75V82.76L296.4 78.67L290.94 82.76V67.75" fill="url(#paint4_linear_274_2423)"/>
<path d="M301.86 67.75V82.76L296.4 78.67L290.94 82.76V67.75" stroke="#6B6B6B" stroke-width="1.5" stroke-linecap="round" stroke-linejoin="round"/>
<path d="M282.75 104.6C282.75 106.86 284.58 108.69 286.84 108.69H317.5V100.5" stroke="#6B6B6B" stroke-width="1.5" stroke-linecap="round" stroke-linejoin="round"/>
<path d="M286.84 67.75C284.58 67.75 282.75 69.58 282.75 71.84V104.6C282.75 102.34 284.58 100.51 286.84 100.51H317.5V67.75H286.84Z" stroke="#6B6B6B" stroke-width="1.5" stroke-linecap="round" stroke-linejoin="round"/>
<path d="M282.75 104.6H317.51" stroke="#6B6B6B" stroke-width="1.5" stroke-linecap="round" stroke-linejoin="round"/>
</g>
<path d="M571.28 93.5V68.56C571.28 67.7 570.5 67 569.54 67H528.74C527.78 67 527 67.7 527 68.56V102.44C527 103.3 527.78 104 528.74 104H550.5" stroke="#6B6B6B" stroke-width="1.58" stroke-linecap="round" stroke-linejoin="round"/>
<path d="M531.02 71.27C531.58 71.27 532.04 70.82 532.04 70.25C532.04 69.68 531.59 69.23 531.02 69.23C530.45 69.23 530 69.68 530 70.25C530 70.82 530.45 71.27 531.02 71.27V71.27Z" fill="#6B6B6B"/>
<path d="M534.84 71.27C535.4 71.27 535.86 70.82 535.86 70.25C535.86 69.68 535.41 69.23 534.84 69.23C534.27 69.23 533.82 69.68 533.82 70.25C533.82 70.82 534.27 71.27 534.84 71.27V71.27Z" fill="#6B6B6B"/>
<path d="M538.66 71.27C539.22 71.27 539.68 70.82 539.68 70.25C539.68 69.68 539.23 69.23 538.66 69.23C538.09 69.23 537.64 69.68 537.64 70.25C537.64 70.82 538.09 71.27 538.66 71.27V71.27Z" fill="#6B6B6B"/>
<path d="M527 73.6099H570.25" stroke="#6B6B6B" stroke-width="1.5" stroke-linecap="round" stroke-linejoin="round"/>
<path d="M537.21 80.21L532.21 84.808L536.989 89.21" stroke="#6B6B6B" stroke-width="1.69" stroke-linecap="round" stroke-linejoin="round"/>
<path d="M546.21 80.21L551.21 84.808L546.431 89.21" stroke="#6B6B6B" stroke-width="1.69" stroke-linecap="round" stroke-linejoin="round"/>
<path d="M542.71 81.21L540.71 88.71" stroke="#6B6B6B" stroke-width="1.69" stroke-linecap="round" stroke-linejoin="round"/>
<path d="M553.035 108.237L563.057 92.1133C563.15 91.9622 563.36 91.9622 563.453 92.1133L573.476 108.249C573.569 108.4 573.464 108.609 573.278 108.609H553.233C553.046 108.609 552.941 108.411 553.035 108.249V108.237Z" fill="url(#paint5_linear_274_2423)" stroke="#6B6B6B" stroke-width="1.5" stroke-linecap="round" stroke-linejoin="round"/>
<path d="M563.165 98.1648V102.165" stroke="#6B6B6B" stroke-width="1.5" stroke-linecap="round"/>
<circle cx="563.165" cy="105.165" r="1" fill="#6B6B6B"/>
<path d="M591.671 241.033C591.643 241.047 591.618 241.065 591.598 241.088C591.578 241.111 591.562 241.138 591.552 241.166C591.542 241.195 591.538 241.226 591.54 241.256C591.542 241.287 591.55 241.316 591.564 241.344C591.624 241.464 591.648 241.599 591.633 241.733C591.618 241.866 591.563 241.992 591.477 242.096C591.44 242.144 591.423 242.204 591.429 242.263C591.436 242.323 591.466 242.378 591.512 242.417C591.559 242.455 591.619 242.474 591.679 242.469C591.74 242.464 591.796 242.436 591.836 242.391C591.98 242.218 592.071 242.008 592.096 241.785C592.122 241.562 592.082 241.337 591.981 241.137C591.954 241.082 591.905 241.041 591.847 241.022C591.789 241.002 591.726 241.006 591.671 241.033V241.033Z" fill="#BCBCBC"/>
<path d="M582.71 231.165C571.675 229.76 561.581 237.5 560.166 248.457C558.751 259.413 566.545 269.43 577.58 270.835C588.615 272.241 598.71 264.501 600.124 253.547C601.538 242.594 593.744 232.571 582.71 231.165ZM586.857 243.64C586.484 243.645 586.127 243.795 585.863 244.058L578.388 251.476L576.794 249.893C584.158 242.601 585.486 242.531 586.857 243.64ZM578.692 251.741L586.145 244.341C586.34 244.148 586.605 244.039 586.88 244.039C587.156 244.039 587.42 244.148 587.615 244.341C587.715 244.44 587.794 244.56 587.846 244.691C587.898 244.822 587.923 244.962 587.918 245.103C587.914 245.244 587.88 245.383 587.819 245.51C587.759 245.638 587.672 245.752 587.566 245.845L579.678 252.722L578.692 251.741ZM579.246 252.896L577.4 253.292C577.378 253.296 577.355 253.294 577.335 253.285C577.315 253.275 577.298 253.26 577.287 253.24C577.276 253.221 577.272 253.198 577.276 253.176C577.279 253.154 577.289 253.134 577.305 253.118L578.387 252.043L579.246 252.896ZM574.54 252.132L576.508 250.178L577.983 251.642L574.66 252.352C574.633 252.358 574.604 252.355 574.578 252.343C574.552 252.331 574.531 252.311 574.517 252.287C574.504 252.262 574.499 252.233 574.503 252.206C574.507 252.178 574.52 252.152 574.54 252.132ZM568.421 262.231C568.397 262.229 568.374 262.219 568.355 262.204C568.336 262.189 568.322 262.169 568.314 262.146C568.306 262.124 568.305 262.099 568.311 262.076C568.316 262.053 568.328 262.031 568.345 262.015L569.933 260.438L571.984 262.474L568.421 262.231ZM572.492 260.135C572.416 260.174 572.356 260.237 572.32 260.314C572.284 260.391 572.275 260.477 572.295 260.559L572.635 262.003C572.644 262.047 572.638 262.092 572.619 262.133C572.6 262.174 572.569 262.207 572.529 262.229C572.49 262.251 572.445 262.26 572.4 262.254C572.355 262.249 572.313 262.229 572.28 262.199L570.22 260.153L576.533 253.886L579.589 253.234L581.055 254.69C578.947 256.522 576.066 258.354 572.492 260.134V260.135ZM581.351 254.423L579.943 253.025L587.831 246.147C587.905 246.083 587.971 246.012 588.03 245.935C587.781 248.18 584.623 251.345 581.353 254.421L581.351 254.423ZM587.489 243.653C586.936 243.099 586.619 242.355 586.603 241.576C586.588 240.796 586.875 240.04 587.406 239.465C587.936 238.89 588.67 238.539 589.454 238.486C590.238 238.433 591.012 238.681 591.616 239.18L588.909 241.868C588.89 241.887 588.875 241.909 588.865 241.933C588.855 241.957 588.85 241.983 588.85 242.009C588.85 242.036 588.855 242.062 588.865 242.086C588.875 242.11 588.89 242.132 588.909 242.15L591.002 244.229C590.43 244.509 589.784 244.604 589.154 244.501C588.525 244.397 587.944 244.1 587.493 243.652L587.489 243.653ZM591.816 243.653C591.677 243.79 591.526 243.914 591.363 244.021L589.335 242.008L591.909 239.453C592.441 240.03 592.728 240.789 592.711 241.571C592.693 242.353 592.372 243.099 591.815 243.652L591.816 243.653Z" fill="#BCBCBC"/>
<defs>
<linearGradient id="paint0_linear_274_2423" x1="43.9995" y1="77.9982" x2="43.9995" y2="110" gradientUnits="userSpaceOnUse">
<stop stop-color="#FF6C37"/>
<stop offset="1" stop-color="#FFB400"/>
</linearGradient>
<linearGradient id="paint1_linear_274_2423" x1="187" y1="98" x2="187" y2="110" gradientUnits="userSpaceOnUse">
<stop stop-color="#FF6C37"/>
<stop offset="1" stop-color="#FFB400"/>
</linearGradient>
<linearGradient id="paint2_linear_274_2423" x1="167" y1="97" x2="167" y2="103" gradientUnits="userSpaceOnUse">
<stop stop-color="#FF6C37"/>
<stop offset="1" stop-color="#FFB400"/>
</linearGradient>
<linearGradient id="paint3_linear_274_2423" x1="425.685" y1="63.75" x2="425.685" y2="74.46" gradientUnits="userSpaceOnUse">
<stop stop-color="#FF6C37"/>
<stop offset="1" stop-color="#FFB400"/>
</linearGradient>
<linearGradient id="paint4_linear_274_2423" x1="296.4" y1="67.75" x2="296.4" y2="82.76" gradientUnits="userSpaceOnUse">
<stop stop-color="#FF6C37"/>
<stop offset="1" stop-color="#FFB400"/>
</linearGradient>
<linearGradient id="paint5_linear_274_2423" x1="563.255" y1="92" x2="563.255" y2="108.609" gradientUnits="userSpaceOnUse">
<stop stop-color="#FF6C37"/>
<stop offset="1" stop-color="#FFB400"/>
</linearGradient>
<clipPath id="clip0_274_2423">
<rect width="43.44" height="45.26" fill="white" transform="translate(403 63)"/>
</clipPath>
<clipPath id="clip1_274_2423">
<rect width="36.26" height="42.44" fill="white" transform="translate(282 67)"/>
</clipPath>
</defs>
</svg>
