<?xml version="1.0" encoding="UTF-8" standalone="no"?>
<svg
   width="1600"
   height="900"
   xml:space="preserve"
   overflow="hidden"
   version="1.1"
   id="svg44"
   sodipodi:docname="movie-embedding-plot.svg"
   inkscape:version="1.3 (0e150ed6c4, 2023-07-21)"
   xmlns:inkscape="http://www.inkscape.org/namespaces/inkscape"
   xmlns:sodipodi="http://sodipodi.sourceforge.net/DTD/sodipodi-0.dtd"
   xmlns="http://www.w3.org/2000/svg"
   xmlns:svg="http://www.w3.org/2000/svg"><sodipodi:namedview
     id="namedview44"
     pagecolor="#505050"
     bordercolor="#eeeeee"
     borderopacity="1"
     inkscape:showpageshadow="0"
     inkscape:pageopacity="0"
     inkscape:pagecheckerboard="0"
     inkscape:deskcolor="#d1d1d1"
     inkscape:zoom="0.6681524"
     inkscape:cx="704.929"
     inkscape:cy="499.13763"
     inkscape:window-width="1920"
     inkscape:window-height="1009"
     inkscape:window-x="1912"
     inkscape:window-y="-5"
     inkscape:window-maximized="1"
     inkscape:current-layer="svg44" /><defs
     id="defs1"><clipPath
       id="clip0"><rect
         x="1917"
         y="470"
         width="1935"
         height="1670"
         id="rect1" /></clipPath></defs><g
     clip-path="url(#clip0)"
     transform="matrix(0.53771038,0,0,0.53771038,-751.02559,-252.72387)"
     id="g44"><rect
       x="1918"
       y="471"
       width="1932"
       height="1667"
       fill="#ffffff"
       id="rect2" /><g
       id="g3"><rect
         x="2148"
         y="521"
         width="1604"
         height="1414"
         fill="#dceaf7"
         id="rect3" /></g><g
       id="g4"><path
         d="m 2148.5,1934.5 h 1604 m -1604,-234.94 h 1604 m -1604,-236.01 h 1604 m -1604,-471.017 h 1604 m -1604,-236.008 h 1604 M 2148.5,521.5 h 1604"
         stroke="#ffffff"
         stroke-width="3.4375"
         stroke-linejoin="round"
         stroke-miterlimit="10"
         fill="none"
         id="path3" /></g><g
       id="g5"><path
         d="m 2415.58,521.5 v 1413 m 267.01,-1413 v 1413 m 268.01,-1413 v 1413 m 267.01,-1413 v 1413 m 267,-1413 v 1413 m 267.89,-1413 v 1413"
         stroke="#ffffff"
         stroke-width="3.4375"
         stroke-linejoin="round"
         stroke-miterlimit="10"
         fill="none"
         id="path4" /></g><g
       id="g6"><path
         d="M 0,0 3.60892e-4,1413"
         stroke="#bfbfbf"
         stroke-width="3.4375"
         stroke-linejoin="round"
         stroke-miterlimit="10"
         fill="none"
         fill-rule="evenodd"
         transform="matrix(1,0,0,-1,2148.5,1934.5)"
         id="path5" /></g><g
       id="g7"><path
         d="m 2148.5,1228.5 h 1604"
         stroke="#bfbfbf"
         stroke-width="3.4375"
         stroke-linejoin="round"
         stroke-miterlimit="10"
         fill="none"
         fill-rule="evenodd"
         id="path6" /></g><g
       id="g15"><path
         d="m 2973.62,945.438 c 0,6.075 -4.92,10.999 -11,10.999 -6.07,0 -11,-4.924 -11,-10.999 0,-6.075 4.93,-11 11,-11 6.08,0 11,4.925 11,11 z"
         stroke="#156082"
         stroke-width="3.4375"
         stroke-linejoin="round"
         stroke-miterlimit="10"
         fill="#156082"
         id="path7" /><path
         d="m 3136.62,1530.44 c 0,6.07 -4.92,11 -11,11 -6.07,0 -11,-4.93 -11,-11 0,-6.08 4.93,-11 11,-11 6.08,0 11,4.92 11,11 z"
         stroke="#156082"
         stroke-width="3.4375"
         stroke-linejoin="round"
         stroke-miterlimit="10"
         fill="#156082"
         id="path8" /><path
         d="m 2739.62,991.437 c 0,6.075 -4.92,11.003 -11,11.003 -6.07,0 -11,-4.928 -11,-11.003 0,-6.074 4.93,-10.999 11,-10.999 6.08,0 11,4.925 11,10.999 z"
         stroke="#156082"
         stroke-width="3.4375"
         stroke-linejoin="round"
         stroke-miterlimit="10"
         fill="#156082"
         id="path9" /><path
         d="m 3326.62,1483.44 c 0,6.07 -4.92,11 -11,11 -6.07,0 -11,-4.93 -11,-11 0,-6.08 4.93,-11 11,-11 6.08,0 11,4.92 11,11 z"
         stroke="#156082"
         stroke-width="3.4375"
         stroke-linejoin="round"
         stroke-miterlimit="10"
         fill="#156082"
         id="path10" /><path
         d="m 2730.62,978.438 c 0,6.075 -4.92,10.999 -11,10.999 -6.07,0 -11,-4.924 -11,-10.999 0,-6.075 4.93,-11 11,-11 6.08,0 11,4.925 11,11 z"
         stroke="#156082"
         stroke-width="3.4375"
         stroke-linejoin="round"
         stroke-miterlimit="10"
         fill="#156082"
         id="path11" /><path
         d="m 3121.62,1133.44 c 0,6.07 -4.92,11 -11,11 -6.07,0 -11,-4.93 -11,-11 0,-6.08 4.93,-11 11,-11 6.08,0 11,4.92 11,11 z"
         stroke="#156082"
         stroke-width="3.4375"
         stroke-linejoin="round"
         stroke-miterlimit="10"
         fill="#156082"
         id="path12" /><path
         d="m 2747.62,1499.44 c 0,6.07 -4.92,11 -11,11 -6.07,0 -11,-4.93 -11,-11 0,-6.08 4.93,-11 11,-11 6.08,0 11,4.92 11,11 z"
         stroke="#156082"
         stroke-width="3.4375"
         stroke-linejoin="round"
         stroke-miterlimit="10"
         fill="#156082"
         id="path13" /><path
         d="m 3335.62,1263.44 c 0,6.07 -4.92,11 -11,11 -6.07,0 -11,-4.93 -11,-11 0,-6.08 4.93,-11 11,-11 6.08,0 11,4.92 11,11 z"
         stroke="#156082"
         stroke-width="3.4375"
         stroke-linejoin="round"
         stroke-miterlimit="10"
         fill="#156082"
         id="path14" /><path
         d="m 2667.62,1221.44 c 0,6.07 -4.92,11 -11,11 -6.07,0 -11,-4.93 -11,-11 0,-6.08 4.93,-11 11,-11 6.08,0 11,4.92 11,11 z"
         stroke="#156082"
         stroke-width="3.4375"
         stroke-linejoin="round"
         stroke-miterlimit="10"
         fill="#156082"
         id="path15" /></g><g
       id="g16"><text
         fill="#404040"
         font-family="'Segoe UI', 'Segoe UI_MSFontService', sans-serif"
         font-weight="400"
         font-size="55px"
         transform="translate(2797.42,1037)"
         id="text15">The Lion King</text></g><g
       id="g17"><text
         fill="#404040"
         font-family="'Segoe UI', 'Segoe UI_MSFontService', sans-serif"
         font-weight="400"
         font-size="55px"
         transform="translate(3011.5,1621)"
         id="text16">Inception</text></g><g
       id="g18"><text
         fill="#404040"
         font-family="'Segoe UI', 'Segoe UI_MSFontService', sans-serif"
         font-weight="400"
         font-size="55px"
         transform="translate(2617.45,1082)"
         id="text17">Toy Story</text></g><g
       id="g19"><text
         fill="#404040"
         font-family="'Segoe UI', 'Segoe UI_MSFontService', sans-serif"
         font-weight="400"
         font-size="55px"
         transform="translate(3173.71,1575)"
         id="text18">Pulp Fiction</text></g><g
       id="g20"><text
         fill="#404040"
         font-family="'Segoe UI', 'Segoe UI_MSFontService', sans-serif"
         font-weight="400"
         font-size="55px"
         transform="translate(2643.65,943)"
         id="text19">Shrek</text></g><g
       id="g21"><text
         fill="#404040"
         font-family="'Segoe UI', 'Segoe UI_MSFontService', sans-serif"
         font-weight="400"
         font-size="55px"
         transform="translate(3066.45,1225)"
         id="text20">The </text></g><g
       id="g22"><text
         fill="#404040"
         font-family="'Segoe UI', 'Segoe UI_MSFontService', sans-serif"
         font-weight="400"
         font-size="55px"
         transform="translate(2976.31,1299)"
         id="text21">Shawshank </text></g><g
       id="g23"><text
         fill="#404040"
         font-family="'Segoe UI', 'Segoe UI_MSFontService', sans-serif"
         font-weight="400"
         font-size="55px"
         transform="translate(2962.66,1372)"
         id="text22">Redemption</text></g><g
       id="g24"><text
         fill="#404040"
         font-family="'Segoe UI', 'Segoe UI_MSFontService', sans-serif"
         font-weight="400"
         font-size="55px"
         transform="translate(2628.13,1590)"
         id="text23">The Dark </text></g><g
       id="g25"><text
         fill="#404040"
         font-family="'Segoe UI', 'Segoe UI_MSFontService', sans-serif"
         font-weight="400"
         font-size="55px"
         transform="translate(2657.26,1664)"
         id="text24">Knight</text></g><g
       id="g26"><text
         fill="#404040"
         font-family="'Segoe UI', 'Segoe UI_MSFontService', sans-serif"
         font-weight="400"
         font-size="55px"
         transform="translate(3245.37,1355)"
         id="text25">Titanic</text></g><g
       id="g27"><text
         fill="#404040"
         font-family="'Segoe UI', 'Segoe UI_MSFontService', sans-serif"
         font-weight="400"
         font-size="55px"
         transform="translate(2505.42,1312)"
         id="text26">Jurassic Park</text></g><g
       id="g28"><text
         fill="#595959"
         font-family="'Aptos Narrow', 'Aptos Narrow_MSFontService', sans-serif"
         font-weight="400"
         font-stretch="semi-condensed"
         font-size="41px"
         transform="translate(2045.11,1947)"
         id="text27">-0.6</text></g><g
       id="g29"><text
         fill="#595959"
         font-family="'Aptos Narrow', 'Aptos Narrow_MSFontService', sans-serif"
         font-weight="400"
         font-stretch="semi-condensed"
         font-size="41px"
         transform="translate(2045.11,1711)"
         id="text28">-0.4</text></g><g
       id="g30"><text
         fill="#595959"
         font-family="'Aptos Narrow', 'Aptos Narrow_MSFontService', sans-serif"
         font-weight="400"
         font-stretch="semi-condensed"
         font-size="41px"
         transform="translate(2045.11,1475)"
         id="text29">-0.2</text></g><g
       id="g31"><text
         fill="#595959"
         font-family="'Aptos Narrow', 'Aptos Narrow_MSFontService', sans-serif"
         font-weight="400"
         font-stretch="semi-condensed"
         font-size="41px"
         transform="translate(2089.36,1240)"
         id="text30">0</text></g><g
       id="g32"><text
         fill="#595959"
         font-family="'Aptos Narrow', 'Aptos Narrow_MSFontService', sans-serif"
         font-weight="400"
         font-stretch="semi-condensed"
         font-size="41px"
         transform="translate(2057.73,1004)"
         id="text31">0.2</text></g><g
       id="g33"><text
         fill="#595959"
         font-family="'Aptos Narrow', 'Aptos Narrow_MSFontService', sans-serif"
         font-weight="400"
         font-stretch="semi-condensed"
         font-size="41px"
         transform="translate(2057.73,769)"
         id="text32">0.4</text></g><g
       id="g34"><text
         fill="#595959"
         font-family="'Aptos Narrow', 'Aptos Narrow_MSFontService', sans-serif"
         font-weight="400"
         font-stretch="semi-condensed"
         font-size="41px"
         transform="translate(2057.73,533)"
         id="text33">0.6</text></g><g
       id="g35"><text
         fill="#595959"
         font-family="'Aptos Narrow', 'Aptos Narrow_MSFontService', sans-serif"
         font-weight="400"
         font-stretch="semi-condensed"
         font-size="41px"
         transform="translate(2101.18,2000)"
         id="text34">0.085</text></g><g
       id="g36"><text
         fill="#595959"
         font-family="'Aptos Narrow', 'Aptos Narrow_MSFontService', sans-serif"
         font-weight="400"
         font-stretch="semi-condensed"
         font-size="41px"
         transform="translate(2378.98,2000)"
         id="text35">0.09</text></g><g
       id="g37"><text
         fill="#595959"
         font-family="'Aptos Narrow', 'Aptos Narrow_MSFontService', sans-serif"
         font-weight="400"
         font-stretch="semi-condensed"
         font-size="41px"
         transform="translate(2635.87,2000)"
         id="text36">0.095</text></g><g
       id="g38"><text
         fill="#595959"
         font-family="'Aptos Narrow', 'Aptos Narrow_MSFontService', sans-serif"
         font-weight="400"
         font-stretch="semi-condensed"
         font-size="41px"
         transform="translate(2924.12,2000)"
         id="text37">0.1</text></g><g
       id="g39"><text
         fill="#595959"
         font-family="'Aptos Narrow', 'Aptos Narrow_MSFontService', sans-serif"
         font-weight="400"
         font-stretch="semi-condensed"
         font-size="41px"
         transform="translate(3170.57,2000)"
         id="text38">0.105</text></g><g
       id="g40"><text
         fill="#595959"
         font-family="'Aptos Narrow', 'Aptos Narrow_MSFontService', sans-serif"
         font-weight="400"
         font-stretch="semi-condensed"
         font-size="41px"
         transform="translate(3448.36,2000)"
         id="text39">0.11</text></g><g
       id="g41"><text
         fill="#595959"
         font-family="'Aptos Narrow', 'Aptos Narrow_MSFontService', sans-serif"
         font-weight="400"
         font-stretch="semi-condensed"
         font-size="41px"
         transform="translate(3705.26,2000)"
         id="text40">0.115</text></g><g
       id="g42"><text
         fill="#595959"
         font-family="'Aptos Narrow', 'Aptos Narrow_MSFontService', sans-serif"
         font-weight="400"
         font-stretch="semi-condensed"
         font-size="46px"
         transform="rotate(-90,1685.705,-332.705)"
         id="text41">Component 2</text></g><g
       id="g43"><text
         fill="#595959"
         font-family="'Aptos Narrow', 'Aptos Narrow_MSFontService', sans-serif"
         font-weight="400"
         font-stretch="semi-condensed"
         font-size="46px"
         transform="translate(2825.92,2068)"
         id="text42">Component 1</text></g><rect
       x="1918.5"
       y="471.5"
       width="1932"
       height="1667"
       stroke="#d9d9d9"
       stroke-width="3.4375"
       stroke-linejoin="round"
       stroke-miterlimit="10"
       fill="none"
       id="rect43" /></g></svg>
